<mxfile host="65bd71144e">
    <diagram id="Ul5vMgMHBHLhrGhfazsJ" name="Page-1">
        <mxGraphModel dx="773" dy="420" grid="1" gridSize="10" guides="1" tooltips="1" connect="1" arrows="1" fold="1" page="1" pageScale="1" pageWidth="850" pageHeight="1100" math="0" shadow="0">
            <root>
                <mxCell id="0"/>
                <mxCell id="1" parent="0"/>
                <mxCell id="2" value="AWS Cloud" style="points=[[0,0],[0.25,0],[0.5,0],[0.75,0],[1,0],[1,0.25],[1,0.5],[1,0.75],[1,1],[0.75,1],[0.5,1],[0.25,1],[0,1],[0,0.75],[0,0.5],[0,0.25]];outlineConnect=0;gradientColor=none;html=1;whiteSpace=wrap;fontSize=12;fontStyle=0;container=1;pointerEvents=0;collapsible=0;recursiveResize=0;shape=mxgraph.aws4.group;grIcon=mxgraph.aws4.group_aws_cloud_alt;strokeColor=#232F3E;fillColor=none;verticalAlign=top;align=left;spacingLeft=30;fontColor=#232F3E;dashed=0;" parent="1" vertex="1">
                    <mxGeometry x="300" y="100" width="280" height="280" as="geometry"/>
                </mxCell>
                <mxCell id="5" value="EC2 instance contents" style="points=[[0,0],[0.25,0],[0.5,0],[0.75,0],[1,0],[1,0.25],[1,0.5],[1,0.75],[1,1],[0.75,1],[0.5,1],[0.25,1],[0,1],[0,0.75],[0,0.5],[0,0.25]];outlineConnect=0;gradientColor=none;html=1;whiteSpace=wrap;fontSize=12;fontStyle=0;container=1;pointerEvents=0;collapsible=0;recursiveResize=0;shape=mxgraph.aws4.group;grIcon=mxgraph.aws4.group_ec2_instance_contents;strokeColor=#D86613;fillColor=none;verticalAlign=top;align=left;spacingLeft=30;fontColor=#D86613;dashed=0;" parent="2" vertex="1">
                    <mxGeometry x="20" y="20" width="240" height="240" as="geometry"/>
                </mxCell>
                <mxCell id="11" style="edgeStyle=none;html=1;entryX=0;entryY=0.5;entryDx=0;entryDy=0;" parent="5" source="7" target="8" edge="1">
                    <mxGeometry relative="1" as="geometry"/>
                </mxCell>
                <mxCell id="12" style="edgeStyle=none;html=1;entryX=0;entryY=0.5;entryDx=0;entryDy=0;" parent="5" source="7" target="9" edge="1">
                    <mxGeometry relative="1" as="geometry"/>
                </mxCell>
                <mxCell id="13" style="edgeStyle=none;html=1;entryX=0;entryY=0.5;entryDx=0;entryDy=0;" parent="5" source="7" target="10" edge="1">
                    <mxGeometry relative="1" as="geometry"/>
                </mxCell>
                <mxCell id="7" value="" style="shape=image;verticalLabelPosition=bottom;labelBackgroundColor=#ffffff;verticalAlign=top;aspect=fixed;imageAspect=0;image=data:image/png,iVBORw0KGgoAAAANSUhEUgAAAxgAAAIqCAYAAACnuOx2AAAMY2lDQ1BJQ0MgUHJvZmlsZQAASImVlwdYU8kWgOeWVBJaIAJSQm+iSA0gJYQWQUCqICohCSSUGBKCih1dVsG1iyhWdFVE0dUVkLUgYmdR7K5lsaCysi4WbKi8CQnouq98b75v7vw5c+bMOScz984AoNPBl8lyUV0A8qQF8rjwYNaElFQW6RGgAGPABFrAly9QyDixsVEAlsH27+XNdYCo2isuKlv/7P+vRV8oUggAQNIgZwgVgjzITQDgxQKZvAAAYgiUW08rkKlYDNlADh2EPEvFWWperuIMNW8f0EmI40JuAIBM4/PlWQBot0A5q1CQBe1oP4LsKhVKpADoGEAOEIj5QsgJkEfk5U1V8TzIDlBfBnkXZHbGVzaz/mY/Y8g+n581xOq4Bgo5RKKQ5fJn/J+p+d8lL1c5OIcdrDSxPCJOFT/M4c2cqZEqpkHulmZEx6hyDfmdRKjOOwAoVayMSFTro6YCBRfmD/7nAHUV8kMiIZtCDpPmRkdp5BmZkjAeZLha0OmSAl6CZuwikSI0XmNzg3xqXMwgZ8q5HM3YWr58YF6VfosyJ5GjsX9TLOIN2n9dJE5IhkwFAKMWSpKiIWtDNlDkxEeqdTCrIjE3elBHroxT+W8DmS2Shger7WNpmfKwOI2+LE8xGC9WIpbwojVcUSBOiFDnB9st4A/4bwS5TiTlJA7aESkmRA3GIhSFhKpjx9pE0kRNvNg9WUFwnGZsjyw3VqOPk0W54Sq5FWQTRWG8Ziw+pgAuTrV9PEpWEJug9hNPz+aPjVX7gxeCKMAFIYAFlLBmgKkgG0jauuu74S91TxjgAznIAiLgopEMjkge6JHCZzwoAn9CEgHF0LjggV4RKITyT0NS9dMFZA70Fg6MyAGPIeeBSJALfysHRkmHZksCj6BE8o/ZBdDXXFhVff+UcaAkSiNRDtpl6QxqEkOJIcQIYhjRETfBA3A/PAo+g2B1w9m4z6C3X/QJjwnthAeEa4QOwq0pkmL5N76MAx3Qfpgm4oyvI8btoE1PPBj3h9ahZZyJmwAX3APOw8ED4cyeUMrV+K2KnfVv4hyK4Kuca/QorhSUMowSRHH4dqS2k7bnkBVVRr/Oj9rXjKGscod6vp2f+1WehbCN/FYTW4QdxM5gJ7Bz2BGsHrCw41gD1oodVfHQGno0sIYGZ4sb8CcH2pH8Yz6+Zk5VJhWuNa5drh81faBANL1AtcG4U2Uz5JIscQGLA78CIhZPKhg5guXm6uYKgOqbon5NvWIOfCsQ5vkvsvwmAHxKoTDri4xvDcDhxwAw3nyRWb+E2wO+649eEijlhWoZrnoQ4NtAB+4oY2AOrIEDjMgNeAE/EARCwVgQAxJACpgM8yyG61kOpoFZYD4oAWVgOVgD1oPNYBvYBfaCA6AeHAEnwGlwAVwC18BtuH46wTPQA96APgRBSAgdYSDGiAViizgjbggbCUBCkSgkDklB0pEsRIookVnIAqQMWYmsR7Yi1chPyGHkBHIOaUduIfeRLuQl8gHFUBpqgJqhdugolI1y0Eg0AZ2EZqH5aBG6EF2KVqBV6B60Dj2BXkCvoR3oM7QXA5gWxsQsMReMjXGxGCwVy8Tk2BysFCvHqrBarBH+01ewDqwbe48TcQbOwl3gGo7AE3EBno/PwZfg6/FdeB3egl/B7+M9+GcCnWBKcCb4EniECYQswjRCCaGcsINwiHAK7qZOwhsikcgk2hO94W5MIWYTZxKXEDcS9xGbiO3Eh8ReEolkTHIm+ZNiSHxSAamEtI60h3ScdJnUSXpH1iJbkN3IYeRUspRcTC4n7yYfI18mPyH3UXQpthRfSgxFSJlBWUbZTmmkXKR0UvqoelR7qj81gZpNnU+toNZST1HvUF9paWlZaflojdeSaM3TqtDar3VW677We5o+zYnGpaXRlLSltJ20Jtot2is6nW5HD6Kn0gvoS+nV9JP0e/R32gztkdo8baH2XO1K7Trty9rPdSg6tjocnck6RTrlOgd1Lup061J07XS5unzdObqVuod1b+j26jH0RuvF6OXpLdHbrXdO76k+Sd9OP1RfqL9Qf5v+Sf2HDIxhzeAyBIwFjO2MU4xOA6KBvQHPINugzGCvQZtBj6G+oYdhkuF0w0rDo4YdTIxpx+Qxc5nLmAeY15kfhpkN4wwTDVs8rHbY5WFvjYYbBRmJjEqN9hldM/pgzDIONc4xXmFcb3zXBDdxMhlvMs1kk8kpk+7hBsP9hguGlw4/MPw3U9TUyTTOdKbpNtNW014zc7NwM5nZOrOTZt3mTPMg82zz1ebHzLssGBYBFhKL1RbHLf5gGbI4rFxWBauF1WNpahlhqbTcatlm2Wdlb5VoVWy1z+quNdWabZ1pvdq62brHxsJmnM0smxqb32wptmxbse1a2zO2b+3s7ZLtvrert3tqb2TPsy+yr7G/40B3CHTId6hyuOpIdGQ75jhudLzkhDp5OomdKp0uOqPOXs4S543O7SMII3xGSEdUjbjhQnPhuBS61LjcH8kcGTWyeGT9yOejbEaljlox6syoz66errmu211vj9YfPXZ08ejG0S/dnNwEbpVuV93p7mHuc90b3F94OHuIPDZ53PRkeI7z/N6z2fOTl7eX3KvWq8vbxjvde4P3DbYBO5a9hH3Wh+AT7DPX54jPe18v3wLfA75/+bn45fjt9ns6xn6MaMz2MQ/9rfz5/lv9OwJYAekBWwI6Ai0D+YFVgQ+CrIOEQTuCnnAcOdmcPZznwa7B8uBDwW+5vtzZ3KYQLCQ8pDSkLVQ/NDF0fei9MKuwrLCasJ5wz/CZ4U0RhIjIiBURN3hmPAGvmtcz1nvs7LEtkbTI+Mj1kQ+inKLkUY3j0HFjx60adyfaNloaXR8DYngxq2LuxtrH5sf+Mp44PnZ85fjHcaPjZsWdiWfET4nfHf8mIThhWcLtRIdEZWJzkk5SWlJ10tvkkOSVyR0TRk2YPeFCikmKJKUhlZSalLojtXdi6MQ1EzvTPNNK0q5Psp80fdK5ySaTcycfnaIzhT/lYDohPTl9d/pHfgy/it+bwcvYkNEj4ArWCp4Jg4SrhV0if9FK0ZNM/8yVmU+z/LNWZXWJA8Xl4m4JV7Je8iI7Intz9tucmJydOf25ybn78sh56XmHpfrSHGnLVPOp06e2y5xlJbKOfN/8Nfk98kj5DgWimKRoKDCAh/dWpYPyO+X9woDCysJ305KmHZyuN106vXWG04zFM54UhRX9OBOfKZjZPMty1vxZ92dzZm+dg8zJmNM813ruwrmd88Ln7ZpPnZ8z/9di1+KVxa8XJC9oXGi2cN7Ch9+Ff1dTol0iL7nxvd/3mxfhiySL2ha7L163+HOpsPR8mWtZednHJYIl538Y/UPFD/1LM5e2LfNatmk5cbl0+fUVgSt2rdRbWbTy4apxq+pWs1aXrn69Zsqac+Ue5ZvXUtcq13ZURFU0rLNZt3zdx/Xi9dcqgyv3bTDdsHjD243CjZc3BW2q3Wy2uWzzhy2SLTe3hm+tq7KrKt9G3Fa47fH2pO1nfmT/WL3DZEfZjk87pTs7dsXtaqn2rq7ebbp7WQ1ao6zp2pO259LekL0NtS61W/cx95XtB/uV+//4Kf2n6wciDzQfZB+s/dn25w2HGIdK65C6GXU99eL6joaUhvbDYw83N/o1Hvpl5C87j1geqTxqeHTZMeqxhcf6jxcd722SNXWfyDrxsHlK8+2TE05ebRnf0nYq8tTZ02GnT57hnDl+1v/skXO+5w6fZ5+vv+B1oa7Vs/XQr56/Hmrzaqu76H2x4ZLPpcb2Me3HLgdePnEl5Mrpq7yrF65FX2u/nnj95o20Gx03hTef3sq99eK3wt/6bs+7Q7hTelf3bvk903tVvzv+vq/Dq+Po/ZD7rQ/iH9x+KHj47JHi0cfOhY/pj8ufWDypfur29EhXWNelPyb+0flM9qyvu+RPvT83PHd4/vNfQX+19kzo6Xwhf9H/cskr41c7X3u8bu6N7b33Ju9N39vSd8bvdr1nvz/zIfnDk75pH0kfKz45fmr8HPn5Tn9ef7+ML+cPHAUwWNHMTABe7gSAngLPDpfgNWGi+s43UBD1PXWAwH9i9b1woHgBsDMIgMR5AETBM8omWG0h02CrOqonBAHU3X2oaooi091NbYsGbzyEd/39r8wAIDUC8Ene39+3sb//E7yjYrcAaMpX3zVVhQjvBlscVdTWSgXfFvU99KsYv22BygMP8G37L1qHh9vIw1VKAAAAimVYSWZNTQAqAAAACAAEARoABQAAAAEAAAA+ARsABQAAAAEAAABGASgAAwAAAAEAAgAAh2kABAAAAAEAAABOAAAAAAAAAJAAAAABAAAAkAAAAAEAA5KGAAcAAAASAAAAeKACAAQAAAABAAADGKADAAQAAAABAAACKgAAAABBU0NJSQAAAFNjcmVlbnNob3QKwBZaAAAACXBIWXMAABYlAAAWJQFJUiTwAAAB1mlUWHRYTUw6Y29tLmFkb2JlLnhtcAAAAAAAPHg6eG1wbWV0YSB4bWxuczp4PSJhZG9iZTpuczptZXRhLyIgeDp4bXB0az0iWE1QIENvcmUgNS40LjAiPgogICA8cmRmOlJERiB4bWxuczpyZGY9Imh0dHA6Ly93d3cudzMub3JnLzE5OTkvMDIvMjItcmRmLXN5bnRheC1ucyMiPgogICAgICA8cmRmOkRlc2NyaXB0aW9uIHJkZjphYm91dD0iIgogICAgICAgICAgICB4bWxuczpleGlmPSJodHRwOi8vbnMuYWRvYmUuY29tL2V4aWYvMS4wLyI+CiAgICAgICAgIDxleGlmOlBpeGVsWERpbWVuc2lvbj43OTI8L2V4aWY6UGl4ZWxYRGltZW5zaW9uPgogICAgICAgICA8ZXhpZjpVc2VyQ29tbWVudD5TY3JlZW5zaG90PC9leGlmOlVzZXJDb21tZW50PgogICAgICAgICA8ZXhpZjpQaXhlbFlEaW1lbnNpb24+NTU0PC9leGlmOlBpeGVsWURpbWVuc2lvbj4KICAgICAgPC9yZGY6RGVzY3JpcHRpb24+CiAgIDwvcmRmOlJERj4KPC94OnhtcG1ldGE+CgmYIFEAAAAcaURPVAAAAAIAAAAAAAABFQAAACgAAAEVAAABFQAAWURHobDGAABAAElEQVR4AeydB5hkVZn+33urOlTnMDnDwAxpyJKVIDmDuKDumtE/YloDi7qYMC26uq45K7sqrCAgGQmSGXJ2CDMwOfR0rs5V9/7fr2YGe3p6uqurK9xb9Z6Hmkr3nvA7xfOct7/k+GxQEwEREAEREAEREAEREAEREIEsEHAkMLJAUV2IgAiIgAiIgAiIgAiIgAikCEhg6IcgAiIgAiIgAiIgAiIgAiKQNQISGFlDqY5EQAREQAREQAREQAREQAQkMPQbEAEREAEREAEREAEREAERyBoBCYysoVRHIiACIiACIiACIiACIiACEhj6DYiACIiACIiACIiACIiACGSNgARG1lCqIxEQAREQAREQAREQAREQAQkM/QZEQAREQAREQAREQAREQASyRkACI2so1ZEIiIAIiIAIiIAIiIAIiIAEhn4DIiACIiACIiACIiACIiACWSMggZE1lOpIBERABERABERABERABERAAkO/AREQAREQAREQAREQAREQgawRkMDIGkp1JAIiIAIiIAIiIAIiIAIiIIGh34AIiIAIiIAIiIAIiIAIiEDWCEhgZA2lOhIBERABERABERABERABEZDA0G9ABERABERABERABERABEQgawQkMLKGUh2JgAiIgAiIgAiIgAiIgAhIYOg3IAIiIAIiIAIiIAIiIAIikDUCEhhZQ6mOREAEREAEREAEREAEREAEJDD0GxABESh6AkPPPYre269D9913Ipn0AB+IlEVQscsuqHvXhShfcgicmrqi56AFTp6AH+/CIH9PXb//BQZeew3JoSTg8PcUcVF73PGoOukclPH3pCYCIiACpUxAAqOUd19rF4ESIJBc+TJ67rwJ8b/dicSmTfB9qgs2x3XgVlWjbMGuaPzQv6Js18VwyitKgIiWmCkBf3AAQyteQvvPv4eh11fA6+2B7239PTkOotOmofq4k1FzwumIzNk102F0nwiIgAiEnoAERui3UAsQAREYi0DfLX9E9+03oe/vy0a/zHXR9J4PouotJyEye8Ho1+hTESCB5NrX0Xvf7Wj73S8Bj5awUVpsr71Rc9IZqDrl7aN8q49EQAREoDQISGCUxj5rlSJQsgTa//Pf0fvQvUh0947OgH95rt57D9RecCEqDjl69Gv0qQiQwMCj96L7ql+g5wWK1a2WsJFgorVVqDriaDR++msjv9J7ERABESgZAhIYJbPVWqgIlCCBZBKbLvsE+h5/eMzFl8XK0HDRJSn/eVBwqInADgQoKCyOp+MnV2Cob2iHr4d/EDv4cEy7/PsWmDH8Y70WAREQgZIhIIFRMluthYpAaRHwe7ox8PCdaP+/32Pw9dfGXLzFY9S/432oOe1tiEyZMea1+rI0CSQ3b0D85mvR+cffvBF3sTMS5Qt2QeM/vQsVhx8Pp7p2Z5fpcxEQAREoWgISGEW7tVqYCJQ2Aa9tE7p/9W3EH38SifaOcWHUHHkUak45m25Sx457rS4oPQIDj96D+K3XI/7gA+MuPtrYgJqDD0TtBz4Lt2nauNfrAhEQAREoNgISGMW2o1qPCIhAikBiw1q0fumjGFy7Ht7g2C4tdkPFnJkMzj0TNed/SARFYAcC8at/jvjtf8HAmvU7fDfyA7e8DOWzZ6L5Kz9EdMbskV/rvQiIgAgUPQEJjKLfYi1QBEqPgD/EdKLLX8bGz38MXrw7LQCR8ghqjj8NDR/9PBAtS+seXVQiBBJD6PjhNxC/82YkB1n3Io3m1tRi+jd+gLKFi+CUKf1xGsh0iQiIQBERkMAoos3UUkRABLYQSK56Fb13MCD3huvgDQykjaX6yGPQ9OFPwJ0+xwplpH2fLixiAr4Hb+MatP3s++h58G9pL9StqEDDWeeg6sRzEJm3W9r36UIREAERKAYCEhjFsItagwiIwHYEBp9+BF1X/jd6l70KP5HeX5ytg8pFi1B3xtmofOu5cGTF2I5pqb7xhwZhtVS6br0JAytWpI3BiUZQtcduqHv3x1G+/2Fp36cLRUAERKAYCEhgFMMuag0iIALbEeh74E60/ddXt9S+2Em9gu1u2PqmrLkJ1YccgrqPXAanonK0S/RZiRHwB/rR+f0voueJx5ksoDP91TPdcVl9NRo/cRliRx6f/n26UgREQASKgIAERhFsopYgAiLwDwJ+Txd66Cvf+qPv/OPDNF9ZcG7F7rtjypf/G25tPcAq32olTIDVur3uTmz+8scx8MoraSULGE7LZfrjxosvQfVbT4VTVTP8K70WAREQgaImIIFR1NurxYlA6RFILHsS8dtuQOctN2W0+OjM2Zh+2TcQmbuQVoxYRn3opuIg4A/0Ibl6OTZe/nkk1q/NaFH1Z5yD6pPOQtmiJRndr5tEQAREIIwEJDDCuGuaswiIwE4J9N78R8Rv+hP6lq/c6TVjfRGpr0f9ySeh6tR3IDJz3liX6rsiJ5Bcvwq9jL/ovO12JDsn4B41jEts4QLUnH4eqk57x7BP9VIEREAEipuABEZx769WJwIlR6Drtz9A9w1XI9HTl9Ha3YpyxBbOQz3jMMoW7ZNRH7qpOAgMvfw8On98OcXqKmYjG8xoUdHqGGrPOh917/1YRvfrJhEQAREIIwEJjDDumuYsAiIwKgGvZQM6fvdjxP96C/wJBHcP78xh3EWkugLNn/sWKvc/VDUxhsMppdesfdH/9FK0fvNSJHsG4DMeI5PmMNi75oRT0fCej8CdOiOTLnSPCIiACISOgARG6LZMExYBEdgZgf77b0PXX+ge9czTO7sk7c+bL/40qo56K9zm6WnfowuLh4DXuhG9D9zFZAH/OelFxfbbH3Vnvh2Vbz550n2pAxEQAREIAwEJjDDskuYoAiKQFoHO71+GnkcewlBrR1rXj3VR7ZGHo+aM81F+4JvHukzfFSmBwSfvR/zGq9H94MOTXmFZcwOqDzsC9Z+4fNJ9qQMREAERCAMBCYww7JLmKAIikBaBlks/jP7nnoY3lEjr+rEuqpg1DXUXfABVJ5831mX6rkgJ9N52Dbqu+hUG1m2a9Ardsigql+yPqd/62aT7UgciIAIiEAYCEhhh2CXNUQREYEwCVgwtufY1bL7iKxh87RXGX4x5eVpfuhVlqH/H+1F77j/DqaxK6x5dVCQEGH/Rde3/oPN/f87g7qFJL4phGCjfhfVVLvkSIrN3URHHSRNVByIgAkEnIIER9B3S/ERABMYl4LVuQu8d16DzphuRaJn8X5y3DVh3ypmoO+cCRBYs3vaRnkuAQHL1q+j68x/RdfP1WVttdOo01J9+BqpOPI9xPdOy1q86EgEREIEgEpDACOKuaE4iIAITIpBY+So6vnMp+laug9c/MKF7x7q4askS1J58JipPOHesy/RdkRHou+UqxO+4Eb0vLsvaytzKCsTmz0LDZ76F6PzdstavOhIBERCBIBKQwAjirmhOIiACEyIw+MqLaPnU+5EcTGScnna0AcunNKL6mONR96FLR/tanxUpga4ffw3xe+/CUHtX1lZo6Woj5VFM/e6vUb77XlnrVx2JgAiIQBAJSGAEcVc0JxEQgbQJeJ2t6H/ioVT8he9lIfhi2MgOg3OrjjwGUz7/H8M+1ctiJ7D565eg98G/wU8ks7pUx3VScRiVBx0Bt745q32rMxEQAREIEgEJjCDthuYiAiIwYQJDy19g/MX16LjuzxO+N50bKvfeF00XfgzR3feGU1aRzi26JqQE/KEBJF55AW2/+AH6X3g2J6toOOdcxmGcjbKFe+ekf3UqAiIgAkEgIIERhF3QHERABDIm0P/wXei+6pfo/fvLGfcx1o1lM2ag7thjUXXehXBr68e6VN+FnIDX3Ynea36BrnvuwdCGDTlZTdWei1B7wQdRefhbc9K/OhUBERCBIBCQwAjCLmgOIiACmRHwkui55Vp0/OK7SPRNPp3oaJOIVFWicveFaPzcfyLSNHW0S/RZkRBItrWg/ZufRv8ry5Hs7c/JqqKxMjRc+ClUn/o2wI3kZAx1KgIiIAKFJiCBUegd0PgiIAIZE0huWov4Tdei8+orsxrcvd2EGJxrKUZnfO/XiEydsd1XelNcBJItG7DhX9+/JdVxNoqpjILHgr3rz383ak5/GyLTZo9yhT4SAREQgfATkMAI/x5qBSJQsgQGHv4rum+5Hj1LH8kpA7emFlM++BFUHHo0axhMz+lY6rwwBLzWjRhYei82//LH8OLdOZ1E9aGHofbUs1Fx+Ak5HUedi4AIiEChCEhgFIq8xhUBEZg0gfgffoL47TdiYP3GSfc1VgduRQVqDjkYNedfiLJFS8a6VN+FlMDQy88hfvUvEH/0cVbvzl4tldFwVMycjpqTzkDNOy8a7Wt9JgIiIAKhJyCBEfot1AJEoAQJ0H3FH+hHx4++iZ67b0NyKLvpREcSdSIuyqc2ouHjX0TlwUeN/Frvi4BA/+MPoOO/v4rBlnb4SS+nK4qURVB93MlouPhzcCoqAbpNqYmACIhAMRGQwCim3dRaRKBUCDC4O/HaS2j79Y/R99jDeVv11H//D1S9mdl/dCDMG/O8DETB2nv/XWj52r/lZTgbJPamw9H0/o8gustiBXvnjboGEgERyBcBCYx8kdY4IiACWSPgDw6g9/rfovuvt2Ng5cqs9TteR/VnnI2aE89EdPF+412q70NEIPHSM4jf8Rd03nh93mZdMX8+ak84CVVnvxdOueqr5A28BhIBEcgLAQmMvGDWICIgAtkk4Pf1ov2Kf0Pfs88g0d2Tza7H7Kt6yV7M/vNPqDz2jDGv05fhItB35/WI33h1zmqpjEYjWluN2L77ofGS/4ATqxrtEn0mAiIgAqElIIER2q3TxEWgRAnQPcrrbEfL5y6i9eL1nPvLD6dcPqURtee8EzVvf//wj/U65AS6r/oFuv/8vxjqiOdtJRbXUzFvPqZ87Qdb6qtEonkbWwOJgAiIQK4JSGDkmrD6FwERyCoBv68nFX+x6ZtfRGLj+qz2PV5nrutQYLwD9e+9eEtw7ng36PvAE/AH+tD5mx+h+/qr4Hl+XucbnTYdUz95Kcr22A9OjarE5xW+BhMBEcgpAQmMnOJV5yIgAtkmkFz7Gnpv/F90/vUuJLtzW69gtLlXH3UM6t/+zyjb84DRvtZnISOQeO4RdF77R8QfeiDvM49UV6P2yMNQ/fYLEZ2/e97H14AiIAIikCsCEhi5Iqt+RUAEckJgcNkz6Pzh5eh/fQ28waGcjDFWpxXz56HmuBNQ846PjHWZvgsJgfgffoj43X/FwKo1eZ+xW16GyrkzUP/xL6N8z/3zPr4GFAEREIFcEZDAyBVZ9SsCIpB9AkOD6H/yYbR+6/NI9g3Az7NLiy0oUh1D1ZsOQ9Pnv5P99anHvBNo+8Zn0PvYI0j29OV9bIcud5FYBZov/QYqDzwcKCvP+xw0oAiIgAjkgoAERi6oqk8REIGcEEhuWou++/6K1p//ICf9p9OpwxoYlXsvwZTLvg23roGKQ8G56XAL3DXJBLyuDmy+/LPof+E5+KyFUajW/KGPIfaWExCZNrtQU9C4IiACIpBVAhIYWcWpzkRABHJJYOCxe5lO9CrEH3k0l8OM23c5s/80/ssHUHHQmxmcWzfu9bogeAT8eBcGnrgf7f/zKwyuyl8tldFI1Bx2CGrOuAAVbzp6tK/1mQiIgAiEjoAERui2TBMWgdIl0HvL1ei66lcY2NBaUAiRulpU77s36j78OUSmzynoXDR4ZgSSG9eg62ffRM+zLyDZlf9kAcNnXTGjGXUXfABVp54//GO9FgEREIHQEpDACO3WaeIiUFoELD1t9zVXovPq3xUkuHs4bTcaRVlzA6Z8/SeIztt1+Fd6HRICiVUrsPkLF2GotQNeIlHQWVuwd/3570Htee9m0b3qgs5Fg4uACIhANghIYGSDovoQARHIOYGhZU+j64arEb/rjpyPNe4ADkMvyisYh/EfqNjnADhVNePeoguCQ8DvjWPg+acYf/FvSA4OAIULv3gDSs1bT0TdWeezJoaySb0BRS9EQARCS0ACI7Rbp4mLQGkR6PnzrxG/81b0v7oiEAt3GNzdcP47UXXcabRi7BaIOWkS6RFIrF6OvntuQftV/wu/wNaLbTOu3G1X1Bx/CqrPVZX4bUz0LAIiEF4CEhjh3TvNXARKikDH9y5DzwP3INGd/3Sio4JmNqmq3eah9l8+isrDjhv1En0YTAIW3N39x5+j5/llYPnuQEwyWhtD9VHHouFfLw/EfDQJERABEZgMAQmMydDTvSIgAnkj0PLVT6Pv4fvgJ4NxILSFR6sq0fjRS1F1/Bl546CBJk+g756b0fHTb2OwI073qAD4R3FJTsRF7JAjMeUL34RTVskP6IenJgIiIAIhJSCBEdKN07RFoFQI+IP9SPz9abT96sfoX/ZCoJZtNTEa338xqk85mzUxGgM1N01mdAJeewt6br8eHVf+nMHdwRGrNtuKRXug6d3vR9l+R8CpiI2+AH0qAiIgAiEgIIERgk3SFEWglAl4Xe3oueqn6L7vPgxt2hQ4FHUnnYaaU89B2Z4HBG5umtCOBAaffxTxW65D950BSBYwYnplU6eg9sgjUf2uj8Gtl2AdgUdvRUAEQkRAAiNEm6WpikApEkhu3oj2b3wK/ctfQ7KPGX8C1mK7Mzj3lHNQdfo7AzYzTWc0Ar03/QHxW69D3yvBSBYwfI6RWAUqF+6Cxs9/F5Ep04d/pdciIAIiECoCEhih2i5NVgRKj0Bi43ps+OR7kWxjcb2A+MsP34VoVQUFxtmo//Alwz/W64AS6PzZFRQY1yPRGzyxanEXkaZmzPiv3yI6fWZACWpaIiACIjA+AQmM8RnpChEQgQIR8DatQ//Dd6H1t7+E18OA3AA2x3VQ/Za3ouH9H2NV79kKzg3gHqWmRHGa3LgWHb/+AXruuwu+F4zg7pG43OoaNL/3g6g8/K1wp80a+bXei4AIiEAoCEhghGKbNEkRKE0CQwzujl/9c3Q//hT8wcHAQqjcax/Un3UeKo8+FXAjgZ1nSU/MS6L/3lvQecM16H/x+cCicMrLUXvwAag5/0OM61HRvcBulCYmAiIwJgEJjDHx6EsREIFCEuhfei/af3A5hjZ38i/Owcr4M5xL2dRmVB92OOou+nc40bLhX+l1QAj4iSF0/eRr6HnkYQy10N0uoM1xXZRNqUfjxy5D5aFHB3SWmpYIiIAIjE1AAmNsPvpWBESgUARYYbnnb7dj8xVfLNQM0h7XjUZQuWgxpnzrZ1vSi6qGQdrs8nIh3aP8gT5svvTD6H/5JaanTeZl2MkMMuWSr6L6mJNYbCU6mW50rwiIgAgUhIAERkGwa1AREIHxCAy9+AR6brsBnbfdPN6lhf+eNdHK5szD1Eu+guj83eBUVhV+TprBGwT8/l4kVr6Kliu+hKE1q5gs4I2vAvui/uTTUH3yWSjb66DAzlETEwEREIGdEZDA2BkZfS4CIlBQAn23X4PuG/8PfS8vL+g80h082tiE+tPPQOyk8xBRcG662PJyXZLJAuz31HnTjUi0t+VlzMkOElu0ELVn/FPq9zTZvnS/CIiACOSbgARGvolrPBEQgbQIdP+exfWu+wOGunrSur7QF7mVFYgtXID6j16GsoV7Fno6Gn8YgaHlf0fnDy9H3/LX4fUHMD3tsLluexmtrUbtue9E3bv+37aP9CwCIiACoSEggRGardJERaB0CPi9Pej87Q/R/Zc/wQtoOtGRu2HpaqMVUTR/5fuoWEK3loh850cyKsj7ZAIDzz2B1i99AomBRGDT047Gpva0c9Hw3otY1btptK/1mQiIgAgEloAERmC3RhMTgdIlMPT8Y+i85vfoeej+0EGYesmXEDvkzXDqGkM392KcsN/Vjr5H72f8xVdCt7zYPvug7tSzUHn8uaGbuyYsAiJQ2gQkMEp7/7V6EQgkge4r/4sZpO7GwJq1gZzfWJOqO+44VJ/2dpQvOWSsy/RdnggMPvcoem7+E7ruvjtPI2ZvmPJpTH985FtS6Y+z16t6EgEREIHcE5DAyD1jjSACIjBBAm1f/SR6n3wMyd7+Cd5Z+Mtju8xF7QUfROzY0ws/Gc0AfffchO6rfom+11aHjkakshyxAw6m290PQjd3TVgERKC0CUhglPb+a/UiECwCLIbmdbSi5fJLMLDsRfisXxC2Fq2Jof6fP4yaM85n7trysE2/uOY7NIj4jVej839/hkS8L3Rrc1hPpWKPvTD1sivgNjSzJoaKOIZuEzVhEShRAhIYJbrxWrYIBJGA192BwaX3oO33v8PQ2vD9xXkb0/rzmP3nnHfAnTpr20d6LgABr2Uduq77I+N5/lCA0bMzZNnsuWh613tQfuixcGsbstOpehEBERCBHBOQwMgxYHUvAiKQPoHkupXo/PHl6H3xZSTj4UhPO9rqqvbfD7Unn4nK484e7Wt9licC/Xdfj+7b/oLep5/J04jZHyZSU42qvRah/iOXITJrfvYHUI8iIAIikAMCEhg5gKouRUAEMiMw9Nor2PyFizDU0QU/kcyskwDcVT6dwbnHnYy6930qALMp3Sl0/ea76Ln7NgxubA0tBCcaQVlDHaZ8/Sco22X30K5DExcBESgtAhIYpbXfWq0IBJaAH+/CwLOPoeUbX4A3OBTYeaYzMbeijNl/jkHjJy6DU1kF0JdeLY8EGLvj9/ei/fuXo+fBv8EbCPnvqbwMUz//dVTs+yY4NXV5BKmhREAERCAzAhIYmXHTXSIgAlkmkHjtJfTe+Re0X/snwAuv9WIblth+B6Lpgx9FZOFecBScuw1LXp59JgtILn8Rbb/8IfqeeTIvY+Z0EDeCxre9HVXHn4noLotzOpQ6FwEREIFsEJDAyAZF9SECIjBpAv0P3Ymu/+GBcMUaMH3UpPsrdAfls2ai9thjUX3eh+BU1xZ6OiU1vt/TjZ5rfo7ue+7B4Lr14V87LWCxXeag7t0fReURx4d/PVqBCIhA0ROQwCj6LdYCRSAcBMx60fnTKzDYFb50oqMRjlTHENtjMRov/Q7celX1Ho1Rrj7zOtvR/q3PoG/ZS0j2FMfvKcqaGA0X/xuqT1LigFz9btSvCIhA9ghIYGSPpXoSARHIkIDVvojfdh06r/wZvISXYS/Bus2JuCibNRvTvvkjRKbMAOjmopYHAnSvS27egE2fuxhD69bCTxbJ74lWjPp3vBc1p5yDyPTZeQCpIURABEQgcwISGJmz050iIAJZIjD43KOI38qUonfenqUeg9FNpKERUz7+WZQzONetawrGpIp8Fl5XGwaZLGDzf38byY72olpt9RFHofaUs1HBmhhqIiACIhBkAhIYQd4dzU0ESoRAzw1XUmDcgP4VrxfVit1YDHVHHYHqt70f0V33KKq1BXUxiRXL0HPtr9H1wEPw+orDPWob6/JZM1Bz8lmoveBD2z7SswiIgAgEkoAERiC3RZMSgdIi0Pmjb9BF6gYkBhJFtXCrYVA5vQkNn/gyyvc/rKjWFtTFDD79CDq+/2X0b2wLdS2V0fi6EQc1J52Fxk9eNtrX+kwEREAEAkNAAiMwW6GJiEAJEvA9JNevRvuvfoBe1ivwvfBnj9puF+k375ZFMeWyKxA79C3bfaU3uSHQt/Q+bL78EnhDFKtFkI1sO0osp5Kqr/LBjyMycy7rq7jbfa03IiACIhAUAhIYQdkJzUMESpFAIoG+e25A11/+jP6XlhUtgaZ3fxBVx52CyKwFRbvGICwsue519N59K9qu/GUQppOTOVQu3gN1Z56L2LFnAdFoTsZQpyIgAiIwWQISGJMlqPtFQAQyJuAPDqDrR19Fz6NLMdRaXAG5w6HUHHwQak5/OyqOOGH4x3qdZQIDD/0V8Zv+hPjjT2S55+B0V9bciOpDDkXdxV+EU14RnIlpJiIgAiIwjIAExjAYeikCIpBHAnSP8uLdaP3CReh/9ZWiSU87GsHyqY2oPe9fUHPOe0b7Wp9liUD8ut+h+5r/wWBL8YpVN+qicrfd0fz1n8CtYQFHuUll6dejbkRABLJJQAIjmzTVlwiIQNoE/L4eDDHjz+Zvf5X1Cli9u4ib47qou+B9aHjvR4p4lYVfWsdvf4yuq37DWJ7iqH2xM6Jls+Zgyme/iDJmJnNi1Tu7TJ+LgAiIQMEISGAUDL0GFoHSJpDcsBq9t1yFzttuY72CjqKHUX3kW1B/zgUo2/fQol9rIRY49OxSdF53FXoevK8Qw+d1zEhDA+pPPhlVp16AyAwGe6uJgAiIQMAISGAEbEM0HREoFQJDr7yAzv/+CvpeXw1vYLDol12xYB5qjzsJ1Rf8v6JfayEW2HPVT9F99+0YeH1VIYbP65huRTliC+ai/uNfQtnue+d1bA0mAiIgAukQkMBIh5KuEQERyC4BL4kBq7b8xU8iOZgovvS0o9CK1FQhtt/+qHvXRaN8q48mS6Dr9z9B3zNPIxnvnWxXgb/fcR1EyqNovvTrqDjwcDiVVYGfsyYoAiJQWgQkMEprv7VaEQgGgf4u9D/xAFq+wYJh5i5fZOUvdgY5UleL2O4LS2W5O8OQk8/7X1mOZFd3TvoOXKeshwGWwGi84J8RO/o0ROYtCtwUNSEREIHSJiCBUdr7r9WLQEEI+GueRPLZ6zD0wh3AGiqM4veQSnFODDnoi5dhsL/4asAV5IfEQVnLEBGWg6ipH0K0vESUajkXPsdFdNcjETnw7XB3ObxQ+DWuCIiACIxKQAJjVCz6UAREIJcEvGU3w3v6Svi99JffRIHRxsdALkcMRt/JIaC3w0dPuw96iallgYAbAarqHVQ1OhQYWegw6F1Y6Ysmmi+mucwgNRvu/u+Fu+fpQZ+15icCIlBiBCQwSmzDtVwRKDiBxAC8F65G8pnfcCr8U34f/+psIqOTzzyAF3Nj6Q8M9ftoX+fDxIba5AlEyugqNMtBWaVT/CUhuFZQTJm4QMz8pCoR2e99cPc+n1W9VXRv8r8m9SACIpAtAhIY2SKpfkRABNIj0L4KyWX/B+/Va/9xPf+ij9atIoMvi7mZyNi80sOQWWyKfK0530eesct4rp4yn3/N55m7qJvpCRMXzVworTXbmrvb2xDZ45/42bxtH+lZBERABApOQAKj4FugCYhAaRHwnv0zvBU3w+9+8R8L56Eb7fxnHR9F7iplAqN9rYfBPsa3y03qH7+BDF6Ze1R5jGfr2SUgMMxAMcvEBR/DxJRTuxfcXU+Du++5GRDULSIgAiKQGwISGLnhql5FQAR2QiD5wHfhrbyTp+v27a8Y4J/zGZ8AHr5TmaW2/7Zo3vlcYh/dwSwOY4geYmqZEyirBKr51/wY/7Jvwd5F20xQUEShgYusGLFQtxHu/OMROepTRbt8LUwERCB8BCQwwrdnmrEIhJOAnawHe5B88Bvw1t7PNSS2Xwd1BUxkbObDgr6LOEYhyaxZnZt89HdzrWoZE6isdVA/zWpCZNxF8G+0uAsL6p6yVVwMs15smXwU7uw3I3Lk52nOqd6SViv4q9IMRUAEipyABEaRb7CWJwKBIcBTtb/uOSSf+xn81udGn9Y2kWFWjDgP3yM0yOg3hfPTzg1+KqOU6S61iRMwi0UV/6JfP2PEX/Qn3lVw72D6XdRwfWa9MMvFDuJiy9Sd5iWILPkwnFlLmLO3mNVWcLdKMxMBEdiegATG9jz0TgREIFcEWFwv+fDP4bfcD39g09ijtPLUvXmryCjSA3iclppeukolSqQGyNgbPvFvLSWtpaetsb/sF2OzZZm4mEJV0Tz2Gp2KaXCm0opx+IeYWKquGGloTSIgAiEjIIERsg3TdEUgrAT83lYkb72EtS+WcwnjRHKbJaOF/7RQXTCtazG2wV6Lw2A8Rldxri/Xexarcxh/Qa+gqrEP37meR876Z9pdTLUHBcZOLBf/GLsCTtVCRE65gs/N//hYr0RABESgQAQkMAoEXsOKQEkRYNEHv4Ppae/+DPx+s16YghinWTxGGx8beW0RukpZBqleBnp3mYhSmzCBOh6+rbieZZIqumauUdOpKpooMEYGdY+6WGbRqpyGyHHfgdMwj25SFrihJgIiIAKFIyCBUTj2GlkESodA90Z4r92H5N9/wUDv7vTWbeduK8JnlgxzmUpDk6TXcXCuMhepro2q6j3RHTFRUTedAsPqQhRbM2uFuUSZ5cKK6aW7xPJaRPa8EO4ubwFqpxcbFa1HBEQgZAQkMEK2YZquCISRgL/heSQf/SVrXzxFoTCBoAMTFSYyVvMFXYqKTWQMMJA9TvE00BvGXS3cnMuZntZiLyyLVFE1Exfm8jV3q7iw9+k2txxO7QGIHPJBODP2SfcuXScCIiACOSEggZETrOpUBERgOAFv1UNI3vNV+pKb9WKCpgi7vIP/MOtSSmQM7zjkry3Au58xGHKTmthGVtNyYe5RZSyyV1TNxIVlxWqgspiIuEhB4A0erRjHfhHuvCOKCosWIwIiED4CEhjh2zPNWARCR8BbdS8Fxhd4aMqwdLXdZrEYVh+jiIrTWRzGYI+PtnUUT/xPLQ0CPH83znRQUc34C4tVKJZGq0yq3oXFXmQaV+JFKDC+ToFxdLFQ0TpEQARCSkACI6Qbp2mLQFgI+JuXw1t+K7yXfp++P/loizMXKUtda4HfxRL0zaUMUjC1rWYchsc3/E9tDAIUF67roGmuA3OTSjs+YYwuA/GVCSUL6LaUtJPJisXfj7v4XXAXngJnysJALE2TEAERKE0CEhilue9atQjkjYD30u3wll0Lv2snxfXSnYkdvq3ytYkMZl8qlsO4uUl1rmfh8n6PIiNdGKV5ncvzd1mli/qZgNXBKIpGXQG6e6XEhcWU2PtJNKduCdw93kahcdIketGtIiACIjA5AhIYk+Onu0VABMYhkHzqd/Ce/wOv6hrnyjS+tgN4nI9V9C2yNLYmOkLePFpj+phNKk7RxGy+amMQsOyrNTyMxxiDURTuUSYmLA3tPPpE1fA1BdTkWx3cfd6JyAHvmXxX6kEEREAEMiQggZEhON0mAiKQHoHkkz+hwLhy0n+ZfWM0c48yS8ZqC2B449PQvvC5FG+IcRhrfVoxQruMvEy8jG5RTbMpLsocOJP8S39eJjzeIGaFmUtxYZaLbMWT8Pfk7vNuRA68aLzR9b0IiIAI5IyABEbO0KpjERABb8UD8F65Bv6mpdmDwQNUKgZjA80ZHXxjloyQNxMZbauplxhn4tsbtR0IOFQUVrW7aS61ajGIC7NcNPAxg2YLExdZXJMz7VC4u58Hd9ejduCoD0RABEQgHwQkMPJBWWOIQIkSSD70Y3hr7qIIWJddAnYGt6DvTRQZdC8qhqDvro1MkEXLTILWDLUdCURptbC6F3XFUEPOCm1bkUArpmdB3VkUFylyFbPgznkrIkd8ZEeQ+kQEREAE8kBAAiMPkDWECJQqgcRfL4W/wawXOfL9sWBvC/o2lymLzwhxG+Aa4syQpaJ7o29iRRXDFJhpqSLsxfUszsLERTNfmAUjJ62SxfYORfSEb+Wkd3UqAiIgAuMRkMAYj5C+FwERmDgBn6f9wV4k7vkM3aOeyf5faLfNyP7Yb7Ux1vORIw2zbahcP3sJH90tQI+5fantQKCah/HaqYwviObqUL7DkLn5wNLrzqS4aOIjV0vhT8iZth+ix34H9CvjG1M1aiIgAiKQPwISGPljrZFEoHQI9HUg+cJN8FdeB783y+5RIymaS5EdyleG3ITBdaUEBq0YqZoYI9dZwu+t9kU1rRcmMELd7Jw/j/+YBYMuX7lsTtUsOPPPQWTv04FYQy6HUt8iIAIisAMBCYwdkOgDERCByRLwu9Yhed93WPvieSDZPdnuxr7f/uDfz38sHsOERohTvfZ10oJBt6/BPluU2jYC5TEKjFR62m2fhPDZ4i6s3sU0CgwL8M6tvmA18Bo4NXsicsylcOpmhRCYpiwCIhBmAhIYYd49zV0EAkrA71iJxG2f5GF/M2eYh7LbZrywQ7m5SsX5nIchc4F+iEKJxp9UTYxc9B/WPlO1L/hH+LLKXJ/Kc0TIskTVcO7mGkWxlJ16F+PNlelvo82InvJ9OA0LxrtY34uACIhAVglIYGQVpzoTARFAYgB+y4tI3P0pBl7nOTCilQJjMwWGiQz+F7ZmoStWdK9zo6WrDdvsczNfS0lbP31Lcb1QhhKYJjJxMYUPC+zOZ3MrET3mCsZj7EN1FsvnyBpLBESgxAlIYJT4D0DLF4FsE/A71sBbfhe8Zb+yCnLZ7n78/qw+RgsfA+NfGsQr+ulR1rmBnmUJrkENkaiL+hlgitqQwqjgvC0drdW7yHdzy+AueDvcxafCmbIw36NrPBEQgRImIIFRwpuvpYtALgj4Kx9B8olfMbj7RVoRCnBIturerfzz/zpW+g6hFWCoj3EYDPTuY9raUrdimPUixrS0FuAdyj/Am/ViFl2VmvnCqnbnvblwqhYjcvCFDPg+PO+ja0AREIHSJSCBUbp7r5WLQE4IeK/egeTD32bfPXwU4IRvQ1oRPnOVMpepAmicyYD1GD8yQBevDnOTCtncJ7Pu0e41l6gGukdV0MXItTiGMDUzWJhLlLlG5aKYXlosTOFUI3L4Z+HudmJad+giERABEcgGAQmMbFBUHyIgAlsI9HbAe/VGJJ/6CQNZCyAutu0DjRcpkbGWJ3QL/rb3IWlmtUgM+GhbbW5SBWQYAF4R1rxomstYZWZdMmtGaBqNFqlg7tkUGCYu7H2hmucgcsBFFBhncC5KV1uobdC4IlBqBCQwSm3HtV4RyCEBf/UT8F75C7y1d+RwlDS7NlFhRfhaeEg3kRGis3qSoSvta5mEi0LD90I08TS3Jp3LHNa+KKOwaJzN87mleA1LMyFkmaKm8mHF9AopLrYyc2efCHf3M+HMPSgsFDVPERCBkBOQwAj5Bmr6IhAkAt7jv6PAuAF+Yn0wpmVnc0tda0IjzwmtJgPAozjqZRxJb5ePRAHi5Ccz92zdG6WoqKpzUMX4BTcAh/S012WVuk1YWEpaExsBaE50JgXGWXAPfk8AZqMpiIAIlAIBCYxS2GWtUQTyRCD58PcoMK7nwcoirQPSaAXAJj42U2SExFUq5SbFmhiWrnaQQd+l2MqZVdXS00ZZ+yI07lEmhKZQWEyjsrBiekFpfjkFxtmMxfjXoMxI8xABEShyAhIYRb7BWp4I5IUAT8R+x2p4T/8U3up7AvOX29TaqS3AjEypgG9mZwqLq5RPMdS+3mfAN6dcYumkHCqKihoWvp5JcREW64XpCWa7SgV2M/NVUKwX2/4fcOceC3f//8eie3M5twCJn9QE9Y8IiECxEZDAKLYd1XpEoBAEmO7Ie56xF6/RPapzWSFmMPaYZrkwkWHuUhaPwacwtK6NnC7dpEot2NuCu2N0j6qbHoZd4hxptEjFXZhblImLAIoip34PuLvQTWqfMykwbMJqIiACIpA7AhIYuWOrnkWgdAgwt2ryji/Ca32Ch/euYK57iMKiY6vIsLgGvgx662dV754Opq21tLsl1CqYeamaCY8q60Pwl3abotW4sEJ6DXxTFtA5u7Vwmw9G5MSvUhCFLedvCf34tVQRKBICEhhFspFahggUlAAFRuLmi+G3s7iew0IOQWx2RrepWQE+HtwRoDCRneFKDvqIt7GiSHtpCYzqRgc1TTQElAf0sD58wyzWwlyjplFg2Lk9qFP2WXSvYQ9ET/8pBUaY0nINh63XIiACYSEggRGWndI8RSCoBFh62m9dgeQjX4PfvZKzDPBh2KbG4OmUq5SJDHOdCnCz0Is4CwZ2W9HAEmq1LE5Xw0fgQwXMFcqsFuYaZUIjqOLCfjv8CTm1c1nV+1I40xfT6lJdQr8oLVUERCDfBCQw8k1c44lAkRHwuzfAe+EGeKtupC9PazhWZ65SLQzEYHxDkPWQwexhYHqcKWuTATUMZXvDI7QC1DA1bbVZBYLcbHrmwmVZo0xkhKGVN8GdfTLcfc+DUzczDDPWHEVABEJKQAIjpBunaYtAUAj4m19B8u6vwx9cycN6SIpNWJC3ZZTawBdm0Qhw64+zHgZdpPqZTaoUWiWzR1XRRaqyJuCHdqbPTVkuTAgFfKpv/G6cSjjl8xE57gtwpuz+xsd6IQIiIALZJiCBkW2i6k8ESoyAv/F5JG5hfv1ILw9aIUnPZHtkMRgdnO9qPgKsMayqt2WS6rJaHiXQ6lhDwjJIBbp6twmKuWa54MMCvMPSGIeBZBWip36PblL7hGXWmqcIiEAICUhghHDTNGURCBKB0AoMO69bET66H6WK8AW0YrbFYQzQitG2xiZc/K1pjtXACHD8hcVHm1sU3bgCH3cx8ucigTGSiN6LgAjkiIAERo7AqlsRKBUCoRUYtkFmcDGRsZYveIhPZZkK4MYNMk1txwbGYdDqUqw19yygO0JrQMMMB+VMUxvIZlmizHVrNgWGBXXzKVRNAiNU26XJikCYCUhghHn3NHcRCAABf+MLSNz6KR62eugiFfC0TDvjZfEYm7eKDBMdAWsJCouedg99ndREIUU8HlKXGZli9UB1o4toEN2OTEyYuDDrRdAD0HcG2ydkrxrRU75LF6m9d3aVPhcBERCBSROQwJg0QnUgAqVNwG9ZhsQd/86DyyaCCKif0XhbZN5Hm6gsTGT0jXdx/r83UTHEYPSO9bRihBTxeNQs5qJhpoMyBk+b2Ahci3FGJi6s3kVADSzjMyNkdxqiJ34NztQ9xr9cV4iACIhAhgQkMDIEp9tEQAS2EPA7VsNb+ht4bQ/SxSigVbzT2SwWtUvFY6ynyAigFcNExubXPZg1oxibWS2mLHCDKS7MemG1LizuIgzF/3b2A4nWwW06Eu6h72PRvbk7u0qfi4AIiMCkCUhgTBqhOhCBEicwEIe/8e9IPv5t+PHV4f3rrlkxera6Slngt70PUPMpejoofgboiVZsblJmsahg3bcGHuIdO8wHqZm1woSFWS+q+Wzvw9j4e3ZqrNDeZ+ketSeBMx+wmgiIgAjkiIAERo7AqlsRKBkCdtod7EHyiV/AX/8A/L4N4V26FbMzkbGRp3l75tKC0iy4u48FAnv4GApJuZF02ZVV8uzOYnUxPgJVvdtctUxUTN8qLizIO6TNic2AM/MoRA66cEsV70D6oYUUrqYtAiKwAwEJjB2Q6AMREIEJE+Dp11/7DLzlf4G3YSkzM7WF9y+9Jio6t4oMZm8KjCWDU0kMsR7GxuIrumfF9eqmO4iWBchCYJYUy2ZlMRdWsTuIcSHp/I/K3w0qWMF7xqFwF54JZ/Z+/H+T61ETAREQgRwSkMDIIVx1LQKlRsB7/WH4y29lvPfDPA3Tlycwp/MMdmI1lQYraKcK8mVwe65u6VjHyt4svBdmtCPZVPEA3zArYIdeq9Rt2aJmmdIIa+P8o9WM6z4czsJT4C44PKwL0bxFQARCRkACI2QbpumKQKAJJAbgd62Hv2Ypks/8kofgkFX3Hg7XsjVZwHcLH/ZX4IC0+GYKDFpYiiXYO0K3oxgFhlXwDkyzqZjlYgYfTLwUymY1L5wqRPb7IJw5h8Kpm0mxURHKpWjSIiAC4SMggRG+PdOMRSDYBHjy9fva4Le9DP/vf+Hz8/CTLOAQxmaWAktda3UyAtL6uykwGIfRHw/IhCY5DQvutviLyroACYwpnIsFdVvdixA2J1IPp2kfOHvSJappEZxYE8VFEIuLhBCupiwCIpAWAQmMtDDpIhEQgUwI+K/dD2/tI/A3P0PLxvLwxWVY0DcP9KkaGRb0Ta1R6GZ1MHrouhW3TFdF0GqYoam60YHVwSh4o6ZIBXWb5cLERdjiLviTcOoWwpmyH9zZh8HZ5c0FR6oJiIAIlCYBCYzS3HetWgTyRsDfvBz+qgfgrbmbImMV3Y0GOHaIDsfmKtVFZWHuUgGZugkMC/a2zFJhbhZrbMHdJjAK3mwK5kFk9S7q+AiC4EkbCifvVFBczIM75zg4846iyFiY9t26UAREQASyTUACI9tE1Z8IiMCOBBL9dJV6Hcn7vkn3KYqMoJzUd5zp6J9YZqk1/MeySwWg0F0fXbe6W8Ifh2FeO7VTmZ42CO5RJi5M6Myk2SJUlostysiJzUPkLZ+jS9QCukMx76+aCIiACBSQgARGAeFraBEoGQL2p/YkA8C7N8J74c/w17FexsC68CzfLAUD/MesGCYyzHWqgG2o3+IwtrhKFXAakx7aLBdVDTQWWMamQjarb2GpaC1jlFXqLvB0JoLCqZgFZ9ZRcPc+F07tdIojKiWloZ0IQl0rAiKQAwISGDmAqi5FQAR2TsBvYfD3hqfgrX+MhflYM8M184Cd4APebIomLizo254LOGWrbTjAmJD2tQWcRBa2q3G2wwreDgpa883EhIkLC+q251CIC07Si7BwHmtbzHwTnBkHwJm6KAs7oi5EQAREIDsEJDCyw1G9iIAITICAH98Mf+Nz8FfezZoZTwND/HN8oc0C6czfLBcdFBhMFYt4YQ/3Vs27dZUHj9MppNhJB9sO1/B87PI83zzPpfVih2/z+4EFc1vWqAZOKAyVuh0Gh5Q1wp26L5z5jLeYvgROzZT8MtNoIiACIjAOAQmMcQDpaxEQgRwRsHRIFBrJJ37N+Ixn4Q+20I2qL0eDZbFbC/o2kbGWjwIaX1hyBJ0bPAxSaPgmMkLUHPNEorCoZ7amgpVmoKZIxVrM5mRMXIQhqDsSYyz3dDjN+yFy4HuY8YrCIhDpt0L049NURUAE8kJAAiMvmDWICIjAqATsZEyh4b16D7zltzCd7WP80/aoVwbrQ8ZAYBMfbZx/geIxzE3KamJ005piWi1Mzc7EtbQaVNYW0D3KrBVN/LFZgb9Cx4Cks3n8qTlT3gR34alwdzt2i7AwpaYmAiIgAgEkIIERwE3RlESg5Aj0ttOKsTxVM8N76Voun3+edwrrgjTmHpjFwIK+zYphrlIFEBkWN+9TZLSu9mDuUmFq5hbVPNeFw2xNBYlHNnFhrlFmvajgc5DP6VaR24/B3eMc1rZgRe4mpp+tagzTdmuuIiACJUhAAqMEN11LFoFAEhjqg9+5NhX47b12L/z4Clo3egI51dSkTP9YsPfGrSLD3hegWRzGID3LwuImlXKPim2JvygAri1B3CYupvPgHvSg7kg14yt2hbuAsRazGMxdP4uuXISnJgIiIAIBJyCBEfAN0vREoBQJeM9fz1S2D1FwMONU38Yth8IggjBRsYkCw4K++wqjMLroqtXPuhiJkLhJRWg9MNeo+hk85BeixTiuBXVPo8Ao0BTGXTZ/Sk6MsRb1iygsjoC7z9nj3qILREAERCBIBCQwgrQbmosIiMAbBPz1zzMu43ZWAL+DWabMkmER1QFsQzwNtvKxjkKD/+W7WbraOMcfCLCxZzgTC+6uamD9i0JU7zZXKKt10UxlURZUdWGF/mrgzjuR8RYnMhXtPsPx6bUIiIAIhIKABEYotkmTFIESJJBkyew+xma0LENi6Q9ZQdssGQH8M70ZLnpNZFBdsLp2vlPGJgd9dHHcvq5w/EZidUAdq3dHrKBdPpsNx3HRTIFRxec8D5/WUn1Gv5dPR/TQj7KuxR5AjLEWEZY7VxMBERCBkBGQwAjZhmm6IlBSBCxV0mCctTJehP/Kbcwy9dSWdLZBg2DGFRMZVumbFoV8Glss9qKbAqOHpUR8j2MHuDmug+oGZpDiQT+vCZBoFAAL+mHmVnFh74PUuG1O+VSKChbM2/1kuNP2otCoYfB50CYaJGiaiwiIQJAJSGAEeXc0NxEQgTcI+KsfhbfuUVo0nmbGqWU8kQXMZcqmY/UxLH2txWPwZb5aTxv1TbuPIVozgtzKaLUw16jqpjzO0tyiLO7C0tFavYugndl9VuRu3IPiYn9miToEztxD8ghHQ4mACIhAbghIYOSGq3oVARHIAQG/cx38NRQay29mlqlVW7NMBUho2PneYjHa+chj6thBWk16acHoZbB3kFtVHQUGLRjlZk3IV7MaF018mPUij8OOvzwqnVSWqHmMtTgNzhyKC8sSpSYCIiACRUBAAqMINlFLEIGSIpBgbEbXOiQf+hG8rucoMiz4IEAHa6uPwQrbqcDvPFkxvCRjMCgwOs16EuBWTytCjALDjeTppG/Wi6n8Z5Yd5oPEhuuP1MGtW4LIERczKIXCIqpYiwD/dDU1ERCBCRKQwJggMF0uAiJQYAJWYY6lq/2eTfBX3Atv9T3wO14Izl+n7RxrcRiWWaolTwqDQ1mQd+dGHyY2gthMVNRPp8BgkHfeLAkmLixjlFlM8qRpxmXP7XEa9oY791g4ux4Np3oaxQaDuwtScXDc2eoCERABEciIgARGRth0kwiIQBAI+B1r4G96njUzlsJbeQ8Pacwy5eTpUD8WAPPa6uZJ0iwZJjb4X67bINPUxlmPY4DxH6bBgtTs7FzBOIga1p8or87DzExMmKiYQYHBmhuBiLtIVeQugzufwmIWK3JP24dCY04eYGgIERABEcg/AQmM/DPXiCIgAtkkMBBndqlX4a34K8XGk/D7NzDAOo8BEDtbCz250EmBQasCzG0qx4f+VFZfxmB0U2QEUWDUUlzEGIOR86yrJi4q+A+tJainwAiC55FbCadyBkXFgXB3PQHOlN04R2aJUhMBERCBIiUggVGkG6tliUApEvAe/RW89Q/C7121pTifHTYL2RIc3IK+LbuUCY4cNktXO9Tvo22NuUnlcKAMurZsq01zHJQx4Drn6WlNUFi2KCuox6rhBW0mKsuq4VQxkHvmkXAP+UBBp6PBRUAERCBfBCQw8kVa44iACOSeQGKAWaaehPfqLawAflcwAntNZKzmib+Dp80cH/wt/r1ttYWomBUjxyaTNHfToX9UhFWzm+bmIY6ZQgasEo65fFFocWF8kg7cOW+Fu9upzBJ1IOdUkSY1XSYCIiAC4SYggRHu/dPsRUAERhLo74LftRb+xmeQfO4PPOS18wo75Reo2Tk/zn820cTAWhW5bB6XaUX3+jlesoBLHr7GCA/6lTVOqriem+tDP2tsYBotFxyvsEHdXGikEZEl74QzfT84dbMJwaLb1URABESgNAhIYJTGPmuVIlBaBOyk3dPKwO8H4K26j7EQL8Ef6izcodMsF1Ybg/ERKbGRo90wNymridFFkTE0kKNBJthtGf9oX8fK3Vb7IqfuUSYqGOeBRgoMs2QUonF7nbJ6xn4shjvvLQzoPorB5s3My5trZVWIxWpMERABEdg5AQmMnbPRNyIgAkVAwHv5DrpNMS6j/UWmtl1XuCxTFuhtblKWWcqsC3yZ9cY+LU1tO5c50Ms3uRhjIpPmeb+iykEjyzykal/wfdab9Wnnd8sYZe5RFuBdiMYsUU71LFbl3ovuUIy3WHRiIWahMUVABEQgEAQkMAKxDZqECIhALgn4ra/De+0eeC9fyxM4C0b4uTrhj7MKBmGnBIYJDZtCjloHBUY/0+R6XmEVhus6qGSa2AYKjJw1ExfmGjWdAsOqdue9cUyHdSyscN7u58LdhWlomxfkfRYaUAREQASCREACI0i7obmIgAjkhgAL86G/E37rq0g++TtaMl6h0GDhiHw3Gi8wyEP/Kr6w+hg5CvrubfPRS4+wQRM0BWzlPPBX0WOoqilHB39zhbJ6FwsoLhhIXpC4C5dZoqoXMUPUh1nXYh4cSz9rhfPUREAERKCECUhglPDma+kiUFIEUgEKvayZ8TLjMh6Av34p/PiK/B9KTWRYEb6NfGHPOdAAQyy2F6fIsOrehWxWtbuG4qKMRfay3qxLK6JnlgvW18i7uOC+OTW7wpl5KOMt3swaF3vQVauSH+ZgrVmHpw5FQAREILcEJDByy1e9i4AIBJCAv4lB3+seg7fhUWabepoBAnl2mTKRYQHfm/nCYiWy3ExL3GgQUgAAGQRJREFUWcG9njbqlwKlq7X0tNVN1AAMvM5JcDdjOzCF4sICu/mUv8bxvCjc2azGPf1gPvanuFicv+E1kgiIgAiEgIAERgg2SVMUARHIAYHeDvgbnkPyxT8xs9MKhmXQpygVm5GDsUbr0rI8tVIJWPraHMRj9DA7b0+rjwRrYhSiRemyVN3MR2MORre4C0tH28xHPktLOFE4Ufp80XIROfADcKZSWJTRaqEmAiIgAiKwHQEJjO1w6I0IiEDJEeCf+72/fRveRmaaGtrM5efxQG5xGJv4MKGR5TbAWhjUUOgzN6wCtBjdl6oaeP639LHZbNZdE4XFNL6w+Iu8NVpiyqbAnc4MUcd8lq5QeTWb5G2VGkgEREAEskFAAiMbFNWHCIhAuAl0rWflb7pMrbyHLlNLGaSbp0O56QoTGWv4gnETyKLOsGrerDmIThMwBWj1FABWW86qeGetWVC3uUbN5uHenvN1xmdFbmfOMaxrcSwFxj6M+ZiZtSWpIxEQAREoRgISGMW4q1qTCIjAhAn48U2MiXiFcRkUGq/eRkNGnH3kKM3T8NmZe5RZGdZTXVjWpyyJDAu9MCuGpazNd7paS09rqWnNepG1mGcTExYsPpMvLLg7L8X0OIhTA3e3kxlzcTjTzy6isMmFz9fwH4Rei4AIiED4CUhghH8PtQIREIFsEUgOwjdrxt9vgL/pSfi9axgfwXS2PM/mtJmRwQrwtfHRl72RBnuBro1W1dtnsHf2+h2rJxMUZSx2Vzed1burxrpygt/FeL25RllBvXzsR1kt088y7eyUfeHueRYcs1pEyic4aV0uAiIgAqVJQAKjNPddqxYBERiHgPf0/9Ft6m/wu5dTZHTz6hyf0K0+xgY+LB4jS4YT6iXGYTCbFB9elvocBxtcnv+rWVE7xuJ30Wydxy2o2wK6KVpQnmt1wf6jFBcNezL97PFw9z59vCXrexEQAREQgREEJDBGANFbERABEUgRSAzAb2HNjOV30mXqev71msX6ci0yzFXKUtcy+1M2mqWrHaLbVftaH8kcZKoabY4uxUA9hUAFYyTsdVYas1GlUtKaa1ROG/tPltEl6my4C09g+lm6RMlqkVPi6lwERKA4CUhgFOe+alUiIALZIEAfI797PQO/n6Xb1PXw+1ZTY2TRh2nkHM3K0EVVQLemVPD3ZHUG7zdhsXmlBytmno9mRayb57mpYtaTjr8wPWGZosxyUUcLRi7jLpwYnKr5cA/4FziNu/H1FFpLsunjlQ/6GkMEREAEgkFAAiMY+6BZiIAIBJWAxxN6X2cqy5S/9mH4bc8xNmN97uIAzFWqkw+LyaCL02SNJuYa1c4sVYP97Ipd5rJZ5tZyloVonOPCnawYMHFhLlYWc1HPN7lyjSJqp2omnKYlcGYfQcvF0VsqcucSlPoWAREQgSInIIFR5Bus5YmACGSPgL/6CXir72cA+GMMBl/Jk6md2HlCzXYzdybLKtW+VWRMon8TFXG6XPV1seieCZYcNou5iNU5qKFL06TLRFgBPcZyYCaVSrZcrbZbO/v23S3WiqkHMUvUEXDmHrTdFXojAiIgAiKQGQEJjMy46S4REIFSJRDfDG/VUiSf/hXzv7Jctm8luXMgMlh7Aa/T/NBJhcD/Mm2WPcriMLpZD2OAWaVy2SroUVTL+hdllZNMT0ujRUpcLKC4sNdZb2TrUMG4jYge8Wk4sw6QO1TWGatDERCBUiYggVHKu6+1i4AITJyA+Rwl+ukm1Qpv6c/oMvUU/ASFRrabaRYL+m6humifnIAxkWGB3v05rupdySDsxtmTFBfGkRmoMJXKgtaQXDQn2kiXqAPgHvphpqKdSgsJxcakTS65mKn6FAEREIFwEpDACOe+adYiIAKFJkDfI3/ji/DXPgpvncVmvMC/iE9OCOywJHOVMjepzezXKn5PonXRgtHH2I5cZZOK0I0pxliJOlowJtVMVEzhw4K6s+0a5VH8TDsQ7iwWzZu+Hx97SVhMarN0swiIgAiMTkACY3Qu+lQEREAE0iLgt6+Cv4FWjHWPUGg8ynsYTT0Zn6aRo1p1b9axwCYKjUlkyrUYDKuJMcC6gbloFdUscm31LzK1OpguYQaqVKXurAd1m59VJYXFIYyzOBrOjP1ZOG9GLjCoTxEQAREQARKQwNDPQAREQAQmS8BqZrStQPKJ3zCi+lX4g23UGBabkaVmIoMWiFSlb7NqZNASzE7VQ0+unjb2k4NW3eSgupFGh0yyPZm4MGtFI4WAWUAYw5G15lbCKW8CahYictD76Bq16xaXqKwNoI5EQAREQARGEpDAGElE70VABERgEgS8pb9mEPhfWS7jdf4JZxIdDb/VNIEJi+WM/+jlmwyDvuMUF11WYyMHrY61KmooMjJqltK2hvdaULcJjQy72WFsLtWpXgh3/slwD/7nHb7WByIgAiIgArkhIIGRG67qVQREoFQJxFvgbXwe/sq/MaXtPYzLMGWQhUO9iQoL0rb6GHE+Z9CluUnFGc8xlEXjim1zGWOkaxg3kZF7lIkJq9Bt9S5MZJg306Qb+/GicOceC2f+MXBnLGHBPhbOUxMBERABEcgLAQmMvGDWICIgAiVFoK+DLlOvwVv/BPwVtGYMbtyaznaSFGjAwGYKDHNzyiDo29LVWhyGuUpls5lrlMVfWHraCTer1G2WjylUFmbJmGxj+lmnYjrcRacxoJuB3A3zGX3eMNledb8IiIAIiMAECEhgTACWLhUBERCBtAkwna3f2w5/2c3wNj0Ov3s5MMCTfQZn8O3G7KO4MIFhQsOCvifQLMNuP60fHet4fxZbwywHlbQ+TLh6dwVhsChfKi1tbJJguCSnspnWELpETWPhvH3OBSpqsrhKdSUCIiACIpAuAQmMdEnpOhEQARHIkID36r10mboTfiuzTfWbyDB/p0k0c5Gy+hgmNCaoFQb7gNZVTLE7ySlsm71jGmG+i/LYtk/SfDY9YbUuLCVt1WTFBStyV7K2xdQ3wV1wApxdjkhzErpMBERABEQgFwQkMHJBVX2KgAiIwHACSZoa+trhrWEF8Ie/T1cgnvInIzJMVFiw92s0SQzy9QTEAhNeoXOjBxMakxUZJi6iTC3bMNule9TwBY/z2uIsyvnYhT5RJi4moy98dpaMIXL4J+DOOWyLO1TE8t2qiYAIiIAIFIqABEahyGtcERCB0iKQ8k/qgNfyd/jPXQ2/6yX4ye7MGVg8RpyPNeb3lL4lwwrt9aXiMCZfdM+K61nshT3SPtObmLBYjbkUBhZ/MYm4CydSy3oWi+EsOR/u1D3ZL2MtJuynlfkW6E4REAEREIHRCUhgjM5Fn4qACIhAbgh4CfivPci4DLpLtfDR/nLmmZPMcmFZpcxVykRGGs2sFlYTo32tz+c0bhjjkiitEI2znVTtC8esEuk0ExcW1D2TN/Apo8Y1OI2L6BJ1AOMtDoCzy5FkmO2y3xnNTDeJgAiIgAiQgASGfgYiIAIiUAACfttK+KspNCw2o3M5Z5BhmW4TFi18tPPUnaZg8Hl560oPQyw6bq8zaeYeZW5RFn9hr9Nq5hZlxfSm8oZMMk6lFEkZnHqrbXE8q3IfycJ589MaWheJgAiIgAjkj4AERv5YayQREAER2J7AUB/8jS8g8cB/Mo6ghaf9DAMjLGWtZZVijYu0gr55Wcd6jxmlGL5hrlYZNPNEqmSSpoZ0LREmQiyg29LRmmvURJuZSBxGkkemInrUp+FM35sKZ6KR5RMdVNeLgAiIgAhkQkACIxNqukcEREAEskHAzAfJAaazbYX33J/hr7ufGmM1D9IT7JzaAiyil3KXMrHB/8ZrVnSvh65VFuydSbOsUdV0dUqruJ6tx4rpTadIsGc+TahxPU5sLpxZb4a75Fw4VUxHG2F1v7RNJxMaTReLgAiIgAhMkoAExiQB6nYREAERyAYBv3UFBcaT8NY+SKvG4zyEWwXwCTTzsOqi0qBlIp3MUhbs3bXRhwmNTJoJi7rpDO4eL/TBxIS5Rs0yccHHRBM8sSK3M+swuLOPoNWChfOad81kurpHBERABEQgjwQkMPIIW0OJgAiIwFgE/O5NDPx+gULjEfhrHoaf6KA1wpRDms0u3USfJwv6Zjra8ZoJjB5mlJpoulrzVqpm5igTGOM2GhpSQd3T6FM1EXHhMNYi2gBnzuF8vJkB3XvCqablQk0EREAERCDwBCQwAr9FmqAIiEDJEWDNjOTSXzDD1DN0mdpAN6re9BCYMYIZorCWVgyzTIxjBDEXqV4KjKE0xMjwCZRRNFhqWnORGrOZoKClI2W9KOfzOJe/0Ve0moXzZjBT1L6IHHoha1s0vvGVXoiACIiACASfgARG8PdIMxQBEShFAozP8F68Gd6KGyk0nk3/cG6sOikuNlFk2PMYbajPLBis2UeRMZGWEhcsOVEWG0cxmACZQXPHRCp1cypO80GILDwTzuITFGcxkY3RtSIgAiIQEAISGAHZCE1DBERABHYgQEuG37UO/tpHkHz29wxsZl7ZdCK4LTOUiQbLLNW9c/FgrlEmLjrpKjWRVk/XKBMZY9a+sGBuyxjVyGc+jd94XbISkX3ftcUtqnY2LRf149+mK0RABERABAJHQAIjcFuiCYmACIjAMALJIfjdFBmrHqY14w74PSuZWzYNlymriWG1MawQn7lK7URDWJB35wZaS9JMV+u4DhpmMHvUzs7+1AkwdyiLz2igsrAA7/FapAZOza5wdzmWtS0Yc1E7i2LK/KvUREAEREAEwkhAAiOMu6Y5i4AIlB6BxABdpugu1fIk/I6XKDTWje82RReolKtUO593Eo8x2OsjzvoZ/aZZdiJChsMuq2Bw9zQHFayBMWqzrFJmubCaF+MV0+N4TvUsxlrsBWfGIXAXn0RhkY4iGXVkfSgCIiACIhAQAhIYAdkITUMEREAE0iHgb3oJ3nJaMlbezgRT7byFFoqdNRMMlllqBc0TFBKjXUoDCfrpRtW1idmkxhEYVnbCskeZe1SUVbx3aEwUlYq32GVrxiheP3qzL1gBvLwRzrwT4S48Ec60xaNfqk9FQAREQARCR0ACI3RbpgmLgAiUNAGPpoi+jlTNjMRD3+M5vZs4xvBvMv1hcRhWHyO+o4LweatZMdrWpicwGmfTesGgbcfExMhmcRdzaL2woO6digu7ie5PTjOih10MZ+b+jLVgxLg7XkGNkYPpvQiIgAiIQFAJSGAEdWc0LxEQARHYGQELmBjogt/6CryXb9viNjWwceeHenOPsniMVgqMkSKDH1ma2rbVFoexc5Fh1gs34qBprgNLU7uDgKjhBc32oMDgf6M2juVUTGdNi4PgLjqFGmMhUFFnHY96uT4UAREQAREIJwEJjHDum2YtAiIgAikC/hpW/163FP6Gxxib8TJP8DuxZgzwdG8CwzJLWQD4sGZuUl0stzHQ5+002Ns0QEXMRd2MUeKvTXBY3IWlpWWMxqjNj8CZsgTu9DexIvf+zBR14KiX6UMREAEREIHwE5DACP8eagUiIAIlTsBvX81Uto/CW/031sx4aWthvlGEhlkvTGBYpW8+bWtmEOlnzYw4g8ETI8THtmuijL2uYcrZynpne4ODWSssoNssF9WjiQsqk0gVA7kXM9biVLiz3sSOpmzrVs8iIAIiIAJFSEACowg3VUsSAREoTQJ+90Yk7/kmM0zRkpHsYlaoESKDuiIV7L2Kn/fx9TaRwc+TCR/tjMMYtM9HaeUxlrRg/EUkShGxTUeYuODnmEcRMVrchQVqROvgVC1C5NjPMf3s9FF61kciIAIiIALFRkACo9h2VOsRAREoXQIMAPd7NjMug1mmVt/FIn3mMjUCh8Vj9FBZrOFjeN0+ioy2tXST6mEchmdK5B/Nal9U0DrRxNp3b/Rn/Voa2gUUEZZRik/bNXbhNO0Ldz4zRC04kuloabVQIPd2iPRGBERABIqVgARGse6s1iUCIlCyBPyO1VQLr6ZiM7zlt/Fgb35PW0WDPZlho5UCw2IyLH3t1hZv4VsW3ksM/uMz+yrKwnlVdQ5qpm67ks9msTDXKIu9MEvGG42f+bFU6ll39uF0nVosy8UbbPRCBERABEqDgARGaeyzVikCIlBqBFiYz2+lyHjlVgaAPwp/YBNdopgualuzly0UGRaPsVVQDDBGo4dxGP3xbRdtea5kUb1qxl9UWKYoa1ap2wK6p1JZWID3tubG4MRmsmjem+DuRstF00Kqk+EXbLtQzyIgAiIgAsVMQAKjmHdXaxMBERCBwR54T1wJbzMrgPesophgbMZWnZCqj8Eq3qkUttQaHuMwujfTg6qDn20zYvBaK65Xm/Jw4huzVjTyH7NeWN2LVONzOWMtahbAnXYo3P3PZ6mLqq3f6UkEREAERKDUCEhglNqOa70iIAKlR8D3WJjvWXgvXQ9v1R2Ml9imHoiC2aOwjurCXKX4X5wCI06rhtXEsGa1L2porUglfjI9Ya5RsygwmE3qjeaVwZ17AtzFZ8CZtS8FjKkQNREQAREQgVIlIIFRqjuvdYuACJQWgcFeBn2vgb/mUSSf+R8qhx6un8EYFvRtlb5f52v+108Dh7lJDWyNzbCq3eYeVVnP61iAG3MZzW2Wi1Thbf7jNCCy5B1wZrO+RR2jwMtluSAlNREQAREoaQISGCW9/Vq8CIhASRFgRT0/vokiYyktGQ/A71xGl6n2LSLD4jFYIyNBsdHXSc1hAeBstazOHaO4iDLIOxVzYfUuTFyUN1Jb7Al33ltYNI/iopoR4BFTIGoiIAIiIAKlTkACo9R/AVq/CIhA6RGgy5T36r10m3qIgeDPwu9eQ5FB8wVdpXwL8qaLVMf6LVgaZjILLV2kHFoxUq5RUVbkrpvPqtz7Mpib8Ra7HS2XqNL7BWnFIiACIjAmAQmMMfHoSxEQAREoXgJ++yp4r90Nf/mNzDLF4ItOprNtSWKABfc6twqMegqMChbYw1S6RtWXw6mYAnfR2+AsOBaOfakmAiIgAiIgAiMISGCMAKK3IiACIlAyBDyLu2A62/bXkLz3O/D7X2dtjF4kVnvoXbPFRapqjoPoXLpFNVfBqVyAyNGfoTVjV7pDlVsEeMmg0kJFQAREQATSJyCBkT4rXSkCIiACxUlgqB9+y0vwV94Hb+XD8F5fjuRKxmSwRea7cHddBHfBUYy1OAzO1MUM9rbS3WoiIAIiIAIiMDoBCYzRuehTERABESg5Av6ml+FveobxGY/Ae+qh1PrdA46Au/uRjLfYH04zLRdqIiACIiACIjAOAQmMcQDpaxEQAREoKQJDffBWP4XkU9eklh054DzWuDiAVotYSWHQYkVABERABDInIIGROTvdKQIiIAIiIAIiIAIiIAIiMIKABMYIIHorAiIgAiIgAiIgAiIgAiKQOQEJjMzZ6U4REAEREAEREAEREAEREIERBCQwRgDRWxEQAREQAREQAREQAREQgcwJSGBkzk53ioAIiIAIiIAIiIAIiIAIjCAggTECiN6KgAiIgAiIgAiIgAiIgAhkTkACI3N2ulMEREAEREAEREAEREAERGAEAQmMEUD0VgREQAREQAREQAREQAREIHMCEhiZs9OdIiACIiACIiACIiACIiACIwhIYIwAorciIAIiIAIiIAIiIAIiIAKZE5DAyJyd7hQBERABERABERABERABERhBQAJjBBC9FQEREAEREAEREAEREAERyJyABEbm7HSnCIiACIiACIiACIiACIjACAISGCOA6K0IiIAIiIAIiIAIiIAIiEDmBCQwMmenO0VABERABERABERABERABEYQkMAYAURvRUAEREAEREAEREAEREAEMicggZE5O90pAiIgAiIgAiIgAiIgAiIwgoAExgggeisCIiACIiACIiACIiACIpA5AQmMzNnpThEQAREQAREQAREQAREQgREEJDBGANFbERABERABERABERABERCBzAlIYGTOTneKgAiIgAiIgAiIgAiIgAiMICCBMQKI3oqACIiACIiACIiACIiACGROQAIjc3a6UwREQAREQAREQAREQAREYAQBCYwRQPRWBERABERABERABERABEQgcwISGJmz050iIAIiIAIiIAIiIAIiIAIjCEhgjACityIgAiIgAiIgAiIgAiIgApkTkMDInJ3uFAEREAEREAEREAEREAERGEFAAmMEEL0VAREQAREQAREQAREQARHInIAERubsdKcIiIAIiIAIiIAIiIAIiMAIAhIYI4DorQiIgAiIgAiIgAiIgAiIQOYEJDAyZ6c7RUAEREAEREAEREAEREAERhCQwBgBRG9FQAREQAREQAREQAREQAQyJyCBkTk73SkCIiACIiACIiACIiACIjCCgATGCCB6KwIiIAIiIAIiIAIiIAIikDkBCYzM2elOERABERABERABERABERCBEQQkMEYA0VsREAEREAEREAEREAEREIHMCUhgZM5Od4qACIiACIiACIiACIiACIwgIIExAojeioAIiIAIiIAIiIAIiIAIZE5AAiNzdrpTBERABERABERABERABERgBIH/DwAA//9GoAeTAABAAElEQVTsvdd3HFme5/cjvPeGBECQBAiAIEBviyyW66rq6u7pGc3ozIw0e/YcSU86R9oHSX+H9KJ90Yv2QbtnNbszveqp7mpTvui9NzAkQZCE9x4EwNLve8FkAYlIZGRkRGZk5veyUJkZGebez43MvN97f2bLj1qEhQRIgARIgARIgARIgARIgARcILCFAsMFijwFCURAYHl5RebnF8wRy8vL8kr/VnRbuLJlyxZJT0+TnOxswfOsrEzJzs4KdxjfJwESIAESIAESIIGYEqDAiCluXixVCGBhcEmFw9LSskBE4HFlZUVWXr+WhflFmZyaNigWFhdlYWFRFl8thUWTlpYmWZmZUliQJ3iel5crBfo8PS1dMjLwlyGZmat/2I+FBEiABEiABEiABOJBgAIjHtR5zaQkAFGxanD4o7xSwTA2PikjY+PmcWh4VGZm5mRubl7FxCvX2p+Rni75+XlSWlIoJcXFUl5eItWV5VKlf1jlwB9K4NG1C0dxoteAtAoqwrOgPd60ZbVKrx1VK1AnPzEOBTZwj+Ix4gL2ehDELQsJ2CGA++z1awf3Gk6uN1s67zU7mLkPCfiSAAWGL7uFlUo0AjOzczI8PCb9g8MyNjEhk5MzRkjA9GlZVy6WsYKhqxev9c/R4C4EEAxq09JgOpVu/iA4YDqVk5Mt5aUlUllZpoKjQirKS83qRojTxGQz2j41PSud3T0yMTkZ8TUL8vNlx/Yaqa2pjvjYcAeMjk3I3fsd8vzlQLhdN7xfVFgguxt3SNue3Rve89uG4ZEx6Xr8TB4/7Y24algVq6golRNHD0iBiloWEghHAPfbH786G243y/dhDvqLT97XyZMiy/e5kQRIwN8EKDD83T+snU8JwOwJg2WsTIxPTMrU1Ky+npGZ2VnjX4FVCsczd1G2OTDLnJubo6sbuWpSlS/FRUVvVjcqpLi4ULJVhMS6rKy8lhEdcFy6dtsIsUivX1ZaLPvbWmRPc0Okh4bdf3BoRC5eueVo4F1aUiz72prl2OF9Ya8T7x36+odUSHXKvYedEVcF/j7btlbKxx+c0vupMOLjeUDqEcD99h//6XeOGo7Jkn/4u19LZUWZo+N5EAmQQHwJUGDElz+vnkAEIBgWFhZkfHJKJiamBLPeAzowHVdTqHn1o4CPhR9Lmq5yZKqgwAB9a1Wl+cEuKyuW0uIiXenIMSsgsag3+AwOjcrZC1flRd9gxJfEKszhg22yb29zxMeGO4ACIxwhMQEFKDDCc+IePxGgwPiJBZ+RQKoRoMBItR5neyMmgJn3paUlmZufNwNkmJj0DwzpasVcxOfywwEwb9m2tUqa1Kynuqpc8vPyjPmU17b1FBjx732uYMS/D1KpBhQYqdTbbCsJrCdAgbGeB1+RwAYCE7pi8ay3Tx51PTEmUQgzu+os69B5ccMVYrsBfhv4Q+QpOIO3tzbLjvoaz+3qKTBi289WV6PAsKLCbV4RoMDwiizPSwL+J0CB4f8+Yg3jQAAOyfNqDoXViufP+2V4dFxm5+bMSoaTADxxaELYS6rG0JULhL3Nl63VldKwo0527dxuhIcXEZEoMMJ2iec7UGB4jpgXWEOAAmMNDD4lgRQjQIGRYh3O5oYnMDurplDDI/L8Rb+8VF+BMXXiXlx0L7Rs+BrEfg/k1KhSZ8ramq2ys77W+GsgGpWbhQLDTZrOzkWB4Ywbj3JGgALDGTceRQLJQIACIxl6kW1whcBqGNUZ44CMMJ7Pnr00IWbdDCvrSkU9Ogl8MJAlvKV5lxEZCG+LKFRuFQoMt0g6Pw8FhnN2PDJyAhQYkTPjESSQLAQoMJKlJ9kOxwRg8gRxgSR4dx90mDwNiBCVyqW+rkb2tu6WpoYdxgHcDZMpCoz431EUGPHvg1SqAQVGKvU220oC6wlQYKznwVcpSGBJk+Ah6/alq7c07OywzM8tmKR4KYjibZMzMjJMgqsG9ck4fKDNJO5DQr9oCgVGNPTcOZYCwx2OPIs9AhQY9jhxLxJIRgIUGMnYq2yTbQLz8wuCH8E7mnxsYHBIFtTXAqsZLGIygm9T5+/PPj4j8NGINowtBUb87yoKjPj3QSrVgAIjlXqbbSWB9QQoMNbz4KsUIjCtmbefvxzQSFE90qP+FisqLFLF38JONyNfxk6NLPX+6WMmyVq0ZlIUGHaoe7sPBYa3fHn29QQoMNbz4CsSSCUCFBip1NtsqyEAEbGgmbe71ZH74aNuIzJihSY9Pd34NGToIwbsmZkZZmUAz5GXAo/4t7a81vpicI6VFdR9WZ//qFnFkY9jaXlJVvQR+7hZsFpRpxGljh5ulx3ba6JevUDdKDDc7CFn56LAcMaNRzkjQIHhjBuPIoFkIECBkQy9yDZERODVqyV50tMrV67fleGRsYiOdbJzYOZftYMUFRVKRVmplBQXmhwUFeWlkpuTbcyRSoqLzGNg/8C14CMypastcEKHyBjXxH+Li0uCBIAjo2MyMTFt8nMERIYbqzCoU1trk7z/7vFANaJ+pMCIGmHUJ6DAiBohTxABAQqMCGBxVxJIMgIUGEnWoWzO5gQgLoaGx+Tbs5eMY/fy8vLmB0TxLlYrkMSuuqrc/FUh7Kv6MmClAu8FVi3StqS9fR4sLnB5CIaVlddvfUMCKxgYsC+vLJuVjFkVH0ZwjIybHB6DQ6NR1FyktaVRDrS3mLwYUZ1ozcEUGGtgxOkpBUacwKfoZSkwUrTj2WwSUAIUGLwNUoYAkuX1DQzJXXXofvrsuRmYu914iIdVUVEhWJ3AqgR8GfL1D49434uCVY4FzTwOoTEzMyeTU9MyPjFlVmiQKBAmYXZLYWG+HDu8X0VGg8mLYfe4cPtBKM2pU32/9sHM7Fy43Te8n6OrKpXlZVJeVrLhvWg3DA6NyMUrtwT5TyItpSXFsq+tWZnti/TQmO9PgRFz5Cl9QQqMlO5+Nj7FCVBgpPgNkCrNh2kRxMXDR4/lgfpdYBXAzZKdnWWERVlpiVmt2La10phC5ebmuHkZW+daXfFYMSs0g8OjMqSrGcjrMT45KfPzi8YXYrMTwTQKqxfbtlZttltSvUeBEb47cY/jvv74g1NSrKZ+LCQQjgAFRjhCfJ8EkpcABUby9i1btoYAZvVv3X0g91Vc4LlbBc7Q8FeoqCgz2a93adQlL2bYo6nvvK5eDOkMfUd3jwxqno+p6VmBqVhwOF7kucjKypJf/fx9qd1WbXxEorluIh1LgRG+tygwwjPiHusJUGCs58FXJJBKBCgwUqm3U7itt+8+kvsPuzSR3ohroWghLvJ0heLYkX0CYVFYWCDpus3KjyKe6LGiEfDjgFN7Z/dT6X7yTM2oZtZVC7kumhp3qqlPe8rNUFNgrLsVLF9QYFhi4cZNCFBgbAKHb5FAkhOgwEjyDk715sE3YVgjLV24fNPY/mPm3o2CwXhdTbW07202vhYQGnDc9nt5tbQks7Pz6ug+Kl26ovG094VZzYBYqqool48/PCVlpcUmfK7f2+Jm/SgwwtOkwAjPiHusJ0CBsZ4HX5FAKhGgwEil3k6xtmLWHs7O127ek+7Hz4wDtBsI4Li9o75WZ/t3GJGRCMIiuN1w+oZ/xrPePv17acyldu2sk9MnD7/NyxF8TDK/psAI37sUGOEZcY/1BCgw1vPgKxJIJQIUGKnU2ynW1nmNWIRM3d/+cMlELwr2OYgUB4REaUmRyW7drKZEcHhN5AIBBn+UR11PTESt7XVbTXK9RG6T07pTYIQnR4ERnhH3WE+AAmM9D74igVQiQIGRSr2dQm3F4Ll/YFhu33skDzseR+13AROiIvWxOHF0v/G3QNjZZCmruUBWM4knS5sibQcFRnhiFBjhGXGP9QQoMNbz4CsSSCUCFBip1Nsp1NaFxUXj1A3fCzf8LqoqyzV06x5jFpWdna1mRJqWO0kKxJimxFHn9CRpkINmUGCEh0aBEZ4R91hPgAJjPQ++IoFUIkCBkUq9nUJt7VG/grv3OzRiUk/UrYbPRfPunXJwf6tJlue3KFFRN5An0PC9TLQX7jagwAhHKLL3kYtnUX2hkAAUEh8FYh8rigu6LUcnMjIzM1bfePN/hMTGBEd6etq67X59EW+BgYkmBLXYrGRmZCjTLPO32X58jwRIIDICFBiR8eLeCUBgSSMlXblx1yTUmwoKxRpp9REdqnn3Ls1q3Sg121In8VyknBJ9fwqM8D1IgRGekdUeWEGdX1iQuTn9m583AgKiwvzpe69erRcYK8sqPHQ7eGdkrI9Ml6PbkKsGg+LcvBwjQnJzciRPn+PRb8IjVgID/nXI9zM7O2f87ebm5s3KteGuvniblQz1rTMCQ7kiMWqOijgIOUQKxPc/zGM5qbQZQb5HAtYEKDCsuXBrghLADCBCsJ6/fEOe9ryIqhVpajO0a+d2OXxgr9Rvr4nqXDxYZ2cVworOzs7qQGvV7yMyKhg8YRCFwYDbJRqBUVRUIHD6R8hirwoGmhjwYDAUzWAHA7679zvl3sPOiKtKgREeGb5/lvQeh6iAcECY7GkNpDAxMSVjExMyPj5pBsIzOhCGwHBacD+UlhQbv7CS4kITWrpEX+frPZKtA2X0VfDqh9NrRXOclwJjdbVnxYg2CIrRsUkZHhlVzsp6fMIIuki+Z/B9X6ohuovU1w5M8byspETy85Wp8gTXrKzMaHDwWBJIKQIUGCnV3cnf2BU1O7h45ZZmrX5qftSdthg/NpmZmfKLT9+T7bVbzayh03PxuFUCmGUcG5+SO+p4j9wkkZbiokKzmtSg4XTdLtEIjAydTcbArrAw3+1qvT1fWWmJHNzXqgPJoqjyrVBgvEXq+hO4MmH1dGR0XF70DchL/RscGjWCItoIdnYqC9FRV6OR4PT7CmG0q9VvLBoxauea4fbxUmAgpw+E290HndL7vE+wWg2zM7cLeILrDp1kqtXcR/Fm6nb7eD4S8IoABYZXZHnemBPAjBaWyb/403cmghR+gJwWDBhbW3bLgX0tJqs1f1SckvzpuJWV12Z16YKuLvUNDP30hs1n5TrIPqB+MG17dts8wv5u0QgM3Bswo/DSPKW6skLefeeIINhAsNmM/VaKUGBEQsvevsgpMzI2btgOaOS6Cc29g234/sEKxo8qrAM+FvbO6Gwv3IdZOimCWXZEuYPAaGyol9pt1XGbefdCYMDs6WXfoFmhftk/aL7zX+lq0Ao4Q+W5XMATXLGCWFFeKruVKQQHzKlYSIAEQhOgwAjNhu8kGAGYHAwMDsvX31+Sickpxz82q6YgVXLmnaO6TF5k7J0TDIUvq4vVJczonr1wVWd4ByOuI37cDx9sk30emCJFIzAiboiDA7ZWV8oH7x6X6ioIjPWOv5GcjgIjElqb7zuqomJkdELNcsbM39T0jJpDzRrzKC8GupvXZv27AXNCfGa2Vlfo7HutVFSUqc+G++aF66+8/pWbAgNibUCDMWC1ol8nKEbVDAp5fGJVMIkAfuVlpcqy1Kxsb9taZQJ/xKoOvA4JJBIBCoxE6i3WdVMCE5PTcvvuA7n/6LEgyZ7TUqk/xHv3NMrRQ/ucnoLHWRCgwLCAYnMTBYZNUB7vBpv+WbX3xwRG7/N+M+AdG9OBrvpU+LHoooYx39tRXycN6k+G5KCFBd6Z8gUzcENgYEA/OzdnJo+6n/TK8xf9pg9iYXYW3J7Aazja12rQj1076sxqRllZcVSmi4Hz8pEEkokABUYy9WYKtwUzhkis96evz8qk2uJiMOukYOYPDrvHjx4wy+FOzsFjrAlQYFhzsbOVAsMOJe/2wWAWjtsQFlh961QfL6xewOciEQqCA+Ae2tu623y/ZarZD/zMvC7RCoz/9u9+LXka0enpsxfG12JgcMTxyrQXbYVYa9xVL/vbW4xjeEZGpvpoeHElnpMEEo8ABUbi9RlrbEFgUSO29OiP0O//9H1UP0ClJUX6Y7HHmOLE4gfYoilJu4kCw3nXUmA4ZxftkZi8wKpFR+cT6XrcI0NqEgV/onjOoDtpE0x8EB3phE6eYOY9Fj4E0QiMdBVFf/fXv9AViz550PFYxd2075jD7wUhg8vLS+TksYNSX1cTlY+Uk37lMSTgVwIUGH7tGdYrIgKjaqbwsPOxXL56O6Ljgndu39ukNv4tzHkRDMaF1xQYziFSYDhnF82Rc2pqCZOc7ifPjJ9FwMcimnPG81gECEDi0EP798rOHbUmJKuX9YlGYGDw3tS4w6wajWl432XND+LHghUL+EXVaYSpvRqAYnfDTooMP3YU6xRzAhQYMUfOC3pB4EnPc7l5+4Egg7fTgmghiNTT2txoki05PQ+PsyZAgWHNxc5WCgw7lNzbB6sTmLSAQ/ETXRkd0uAEWCWNt/O2Wy1EuNX9bXvUvGe7J3llAvWMRmDgHLm52WqGtuIob06gDrF6RHAQiAwkZd3dsIMJ+mIFntfxLQEKDN92DStmlwB+9G9rbgWsXjh1tkxL26IhQCvk9MnDslNjyLO4T4ACwzlTCgzn7CI5Et8lSJQ3MjIuT572Srf+QWgkY2lp2mVERl1ttRkMe9HGaAWGF3Xy8pwQGYjadUwDhFTrI5LzYSWGhQRSkQAFRir2epK1Gc6XV2/clUtXbzluGUwHjh3eL3uaG0xWXMcn4oEhCVBghEQT9g0KjLCIXNkBuRTGNRnkRc3V8kxXL7BqkawFg+EmNed57/RRs2LrxUA41QQG7hVkUIcv34fvndRcJBW+yKierPcw2+VvAhQY/u4f1s4GgaHhUbl554Hce9BlY2/rXZBI6Zc/f9+EHMQPL4v7BCgwnDOlwHDOLpIjAwLj2x8uyfOX/UljEmXFAIICiRsP7tsjLTqxAmdlt0sqCgxwhYM6VogOaMAQhAZmIYFUJECBkYq9nmRtRmSXO/c6HPtfrDo+Fsqvfv6hWb1AtBUW9wlQYDhnSoHhnF0kR8JECiuil67dli4NRYuQ114VzHTnaTZoDEatyvz8ollB8TJaVY6GgEWm748/OKXZv3NdN+dJRYER6MsCDWF7aH+r7GlqkKKigsBmPpJAyhCgwEiZrk7ehl6/dV8ePOzW8JGjjhqZl5erfhc1cubUMWZldUTQ3kHJKjCw+oUBBMwivCqI/NPe2iTF+ohcLU4LBnx373fKvYedEZ8CK3uYjcVgtLioMOLjE+kAOHdj0qJLo0dFM8CHiMjNyTEmSMgCDYbZ2dkmyhDuGwzwQwmMhQUVGIuvjMhA4tC5+XmZmp4VbI+mTmv7AbPtyOXw4ZkTUlu7VeuavfbtqJ/HU2CAd4bytyqqI9V5fNk4j7vF0uo625Vp+95mY3rLiSsrQtyWzAQoMJK5d1Okbd+fuyKPNEa9Uwfv0pJiOXRgr0b/aJAc/fFn8YZAsgqMosIC2a3hNPdq9BivSqYORjEQxGpbNLbyFBj2egghUe/e7zC+XQhNa7dgEAlTo6xsFQ/6XYJZbAjPEhVkhYX5pg9xv0Bo2BlwYvA7r4JibHxC/yZlQJOJwukc33XIzeHG4BjR85o0uejRQ+2uJxeNlcCAkINgg6AAf3xOipR5KMH0+vWPsmBE24IRcBAbr9TfBqtXYKr6w5UC8dikEaUQPKRYc5BE89l1pUI8CQnEkAAFRgxh81LeEPiXL77WBFjPHJ98a1WFfHDmuFTrI+KZs3hDIFkFBgTqvrZmDRKwzxtwLp6VAsM+TGTshsh48Kjb9kEweYJfQ/32GtlVXyelpVhxsjaBsn3SoB0nJqY0k3iPXL91TxZ0hSNakYEIevl5efLZx2dMvYMuF9XLWAkMrKzBjBBO1eAP7sheHq5AWCA7e78Kt+d9A/JCc54g90m0TNdet7ysxOTHOHKwParVx7Xn5HMSSAQCFBiJ0EusY0gC4/pj+/X3F+VZr/P8F/V12+SvfvWxifbBGaaQqKN+gwIjaoRRn4ACwz5CzGYjktRX313Y1CypID9PE3NWqy9DlVRWlKkvQ56GJ800qxQQF25/pyyvrAhMpiY1szVM3Xp1UDytplPRFJjdffT+OyaqFHJPuFW8EhhYdSkrLTGCCNyxuodVIaxeYDXDLnf43ICnWcFQsYZVoRcvBwR5lfoGhlzBgEmrahU9n31yxtTTbcHpSiV5EhLwgAAFhgdQecrYEcAP2LmL1zTiy4Cji+KHCsmmfvnpB46O50H2CVBg2Gfl1Z4UGJGRHZ+YlBuawBMmmPB9WFswM42cB9VVlVJZXmr8cPJyc415ztr9vHgOHwLMsg8OjehqxlMzIMZkSzQFM+zIRF1VWRbNadYd66bAgFBLVxO0OvVrqHkj5uCbBH+gaE0HA5VeWXmtfi4zMjA4bMTl4ye98moJq0TRGU1BhGKFs1kjS+E5CwmkAgEKjFTo5SRuY4f+8F9TJ2/8IDgpcM5t2b1LY8Efc3I4j4mAAAVGBLA82pUCIzKwWMUY1uAR3569or4P48ZvorCgQErUnh6DXAx2K8pKBRMV8Sr9+t33sOOxMeVCfTEr76Ts2lEnBzRkbeOueieHWx7jlsDA6gSEBFg36IQQ2GPVwqsCjiOj44bps+cvZXpmTvD95bRgVaWqolxNcU+oIC13fVXLab14HAl4SYACw0u6PLfnBM5fumFm8OAA6aTAXhezdkcOtjk5nMdEQIACIwJYHu1KgRE5WDh8n71w1aySwnEbA9zm3TvVbyHXdf+KyGu3esTL/kE5f/G6mvUMOx4Iwxn9iDp6I3eDWyVagYFVC4g3+FaAOfJ1wPzMbbMzq/aarO7qo3H+0nV5rBndEcHLqXgLnP8vPvtQIOTiKUgDdeEjCXhNgALDa8I8v6cEvjt7Wb/8nxtHPScXqq2pln17W6StdbeTw3lMBAQoMCKA5dGuFBiRg8WgcmhkTObnFgT+CWVqGgUH4lgMcu3WFpGm4Dvw5bfnjX+G3ePW7of2nDx2QE6dOLx2c1TPoxUYiJ6G6Gyt+ocgHPAViSV3LAYhPPDFyzflvjr7Ly8vR8XjsE5ktRkztPKozsODSSARCFBgJEIvsY4hCfyX331p7JBnZ+dD7rPZG80anhFf+hAaLN4SoMDwlq+ds1Ng2KG0cR84ASPLN3wAYO7itwJ/DJjxmJWWN5GQnNTxoCaGO3n0oEm65+T44GOiERgI43vqxCHNUVSroX6L4zbrD/+L58oUDvXwxYmmINrV0UPqi6GrMSwkkOwEKDCSvYeTvH3/+JsvTFx4RFVxUjA7dlSd7xD9hcVbAhQY3vK1c3YKDDuUEnOfV0tLJuHorXuPZFT9B5yUNk3mCGdkOLC7UaIRGIi29Ld//ZkgjHi8Iy/Bwb9bzaSuXr8rcPx3aiqFxIrHj+yXg/tafSlU3ehznoMEAgQoMAIk+JiQBP6f//e3Mjk1bTLeOmnA/rYW84WPJEixKFhih02330sg1KOb9aTAcJOms3NRYDjjlghHIQLSyOiYIPGo06h6LRrlCCu6NVurXGlyNAIDZmj/8He/9s3kz7CKtnsPOuX23UeO/VwAFeLi8MG9ZlXGFcg8CQn4lAAFhk87htWyR+Df/l//XpZ00O40MRJsjk+fPGLvYi7shYy80YaTdKEaYU9RoWE3EbXFzUKB4SZNZ+eiwHDGLZGO+vwP35jEo05m2XdogkBEkkJmbzdKMgkMmMkNDA3L5198YxIcOuELpnDy3t/eIrs1wzcLCSQzAQqMZO7dFGjb//Fv/53j5WrgibXAuHL9jty689D3PXP65GF1fG9ytZ4UGK7idHQyCgxH2BLqoB804tWjjifqkxF58j2E3cWqLpyq3SjJJDAgKMD0nEbrQgLGOU3K56SUlRZLqzp6nzx6wMnhPIYEEoYABUbCdBUrakXgf/8//2+rzba3xVpg4Mfp8rXbtusXrx2R1feQOny6WSgw3KTp7FwUGM64JdJRSAx4/2GXDA2PRlztupqtsq+t2YTujvhgiwOSSWCgeYua7buj66lcv3VPnIZGR2Sslqad8vOfnbEgxk0kkDwEKDCSpy9TsiXRCAzEIofD3YkYziRRYIyaSDcv+gYjvl9htgX78H17myM+NtwByIh88cotE+8+3L7B7yPCDQZlcI71e6HA8HsPRV+/BxpO9a76CiBsbaSFAmNzYpgkgYnr199dFOQecWom1bBzu3z28RkNe5yz+QX5LgkkMAEKjATuPFZdJBqBUVJSKEcPamIpdbqLVaHAoMCI1b1mdR0KDCsqybUNM+x37ndIr5rxRFq2VVdKmwr4A+oj4EZJthWMAJMv/vS9PO7pFWT8dlJginbmnaMmI7mT43kMCSQCAQqMROgl1jEkgWgEhpcz4qEqTIFBgRHq3ojFdgqMWFCO7zWiERhFhQXSrOY7758+7kojklVgXLh8w+TEcBqwA0kDYYLqtp+bK53Gk5CASwQoMFwCydPEhwAFhjfc6YNhnytNpOyz4p7eE4haYGgSuPffpcDYrKcedDyWu7pK5MQMDectLys1jvQnju7f7DJ8jwQSmgAFRkJ3HytPgeHNPUCBYZ8rBYZ9VtzTewIUGN4zhrCAM33X4x5HFyssyBeYSf3y0/cdHc+DSCARCFBgJEIvsY4hCVBghEQT1RsUGPbxUWDYZ8U9vSdAgeE944nJaUHIcaxiOClw7ka29L//m186OZzHkEBCEKDASIhuYiVDEaDACEUmuu0UGPb5pYzAyMqS6uoK+fSj064nYbRPO7n3RFSi169/tB2dKC0tTdLStqyDQoGxDocnL5Y1ueuFyzfl6o27js6fk50tJSVF8q80UzkLCSQrAQqMZO3ZFGkXBYY3HU2BYZ9rqgiMjIx0FRZF8le/+kjQZhb3CSAq0eTUjCwtLdkSGcXFhZKbky3p6elvK0OB8RaFp0/OXdKcRled5TTasmWL4O9/+Z/+O0/ryJOTQDwJUGDEkz6vHTWBaAQG7GCPHm6Xwwfaoq6H3RMwihSjSNm9V7zYL5ooUhgQYeb17//rXxrzDi/ql6znXNIZ7/n5BZmdndNs0HOysLAoC4uLZtuMvl5aWZYfdeXi9evXsrS8os9f20KRkZkh6bqKgb7BakaJCo7xySkZHh6TqekZW+dYu5OJIkUn77VIQj6/eeeBXLtxzxHnwEn/t3/zPwSe8pEEko4ABUbSdWlqNSgagZGpP87HjxwQZPOOVaHAoMCI1b1mdZ1oBAbOh8/MP/ztrwUhnlmsCcDE6dWrV2bgOTs3b0TFzOy8zM3NybwKC/xhpQL74BGvkcDNadK2QC3SVGTk5+fJsp4LKyDLKlQiLRQY9okhmeGNW/dlZHTc/kFBe1JgBAHhy6QiQIGRVN2Zeo2JRmCAFsTF6ZNHYgaOAoMCI2Y3m8WFKDAsoLiw6bX6TmCFAisTcyoqYOY0MjpmVhMmNPMzVile6aDf74UCw34PUWDYZ8U9U5MABUZq9nvStDrRBAYcA6/ddOYYGEmnYTZ0ZeW141lR+mDYp50qPhggwhWM9fcFVitg1rSo5k5Pn72Ql32D8rJ/UJwmYFt/9ti/osCwz5wCwz4r7pmaBCgwUrPfk6bV0QqMY4f3yakThyQjIyMmTIaGR2VkxPmSup1KwkRiUu2vHzzq1pnTWTuHbNiHAmMDkpAbKDBCokn6NwYGR+RJz3PpfdEnU7pqgVUKRBiCuE/EQoFhv9coMOyz4p6pSYACIzX7PWla/e/+/T9HZX6wv61F/TD2C6KxxKJgALK0tOzppZb1/JhB/e7cZRkdm3B0LQoM+9goMOyzSoY94bA9Pj4pPc9eSv/gsPmMQchje6IXCgz7PUiBYZ8V90xNAhQYqdnvSdPqf/zNF+YHHvbPTsqe5gY5eqhdqqsqnBzuy2NW1GRjbm5Bfvv7r2RwaMRRHSkw7GOjwLDPKpH3hCnUjEaBwqoFVix6n/fJ9PSscapO5HatrTsFxloamz+nwNicD98lAQoM3gMJTeCffvsnGR4ZM46VThqyu2GHhqndK9vrtjk53NfH/Md/+p3AqddJocCwT40Cwz6rRN0Ton1aTaCeqah41PlE/SwG1L8pUVsTut4UGKHZBL9DgRFMhK9JYD0BCoz1PPgqwQj88auz8vxFv+NY5HU1W2Wfmknt3dOYYC0PX10KjPCMAntgpefilVvy+GlvYJPtRwoM26gSckcETED+iuu370tnV4/msZhJSnGBzqHAsH+LUmDYZ8U9U5MABUZq9nvStPrshWvS9fiZ+hxMOmpTVWW5tLU2mVUMRyfw8UEUGPY7hwLDHqtUiyIFh+2JiWm5fO229A0MyazmskhUB247PUyBYYfS6j4UGPZZcc/UJECBkZr9njStvnH7gdzThEcwk3JSiosKpaV5l5x556iTw319DAWG/e6hwLDHKpUEBnwuECzh7v0ONYt6KnPz847DPtujG/+9KDDs9wEFhn1W3DM1CVBgpGa/J02rO7ueal6Jeyaai5NGZWdnScPO7fLZx2ckLS3NySl8ewwFhv2uocCwxyqVBMbE5JR0P+mVm2oahUzcEBxulvT0NMnKzJTs7GzJysqUTA2VnZGRLun6l5GeIZqY21ZBVDoTwUpNuRCienHxlQnysKC5OSItFBj2iVFg2GfFPVOTAAVGavZ70rS6X52Yz168Js9fDjhu0/barfIXn30oOTk5KjJs/qo7vlrsDqTAsM+aAsMeq1QRGDCNQh6Z67fuy5iGpHWjbFHFkK6TGMi5AyGRm5sjJRoeu6KsTMNkF0hBfp7ZlpeXK3m5uba/i6Y15w0yhQeyiQ9rBnGE0IVJV6SFAsM+sTu6smXuD4ehwHE//K//839v/4LckwQSjAAFRoJ1GKu7ngDsoX/3x291pvHZ+jcieAU/jPdOHZWabdUmU3EEh/p6VwoM+91DgWGPVaoIjJ7el3LnXodx+ndr5QKrFRUVpbJje63U1lRLaUmRWcHAyikmNjDgXPtnr0fEmG0hozgKHNJHRsfl9t2Hcu9hl91TvN2PAuMtirBPruvK+dUbd9UvZz7svsE7oM8z0tPl3/yP/zr4Lb4mgaQhQIGRNF2Zug356rsL0qGmUgsLkZsEgFpJcZHsb2+R9r3NkpuTnTQgKTDsdyUFhj1WyS4wEHp2ZWVZzl28Lp3diBg1aw/MJnsVFuRLna6S7tpRJ8VFBYIVilxdLYVZFASF2wUC46b6pmGGPdJCgWGf2MUrN9X5/47eLyv2D3qzJ0xz4f/3r/+bv4r4WB5AAolCgAIjUXqK9QxJ4NLVW8acAQ6ZTgp+7GEm9cF7JwSDgWQpFBj2e5ICwx6rZBcYy8srmkhvWM5fvmFyyDhdvYBwgE/F1uoKXa3Yqnl2tkp1ZYURFfZIO9+LAsM5O7tH4r44f+mGXLl+x+4h6/aDeVx5WYn8/d/8ct12viCBZCJAgZFMvZmibYEpACJJvewbdEQAzpaFBQXyl7/8yHzpJ4uzNwWG/duBAsMeq2QXGFgFvayDRgSPmFLfBicF4gIroVurKmVva6Mg106++lfEqlBgeE96fn5BLurEFlaKnBTcD9uqK+WvfvUzJ4fzGBJICAIUGAnRTazkZgReqIP3LbU5hpmU05Kp9tGIJIWM3sliJkWBYf9uoMCwxyqZBQb8F2AS9S9ffCOj6rgLR28nBYy2125Tv65jUqJ+FpjAiGWhwPCe9tDwqIle+LDjsaOLlZWWSEvTLjl14pCj43kQCSQCAQqMROgl1nFTAoiigmge+HNa0tXhDhm997c1S2VFmdPT+Oo4Cgz73UGBYY9VMgsM5Lnofd4v3569LJihhuBwUuq318g+9edqatyhztvptsPNOrmW1TEUGFZU3N32pOe53LrzUJ4+e+HoxBQYjrDxoAQjQIGRYB3G6m4kALvpm3ceyKWrt+XVq1cbd7CxBWYN5TqrdOb0UZMXw8Yhvt+FAsN+F1Fg2GOVzAID4Wjvq7klVkNfvVqyByRoL4SdRbCIttYmE3Y26O2YvKTA8B4z7pO799Ust9+ZWS58c44cbJc9zQ3eV5ZXIIE4EaDAiBN4XtZdAo86nsiVG3ccZ/RGbRA28PQ7R2RvS6OJ9OJuDWN/NgoM+8wpMOyxSmaB0T8wrJMUt6T3RZ+aR0UeGQgE2/c2GYFRqyGv41UoMLwnf1knsx52PjamdE6uBlPc908fk+qqCieH8xgSSAgCFBgJ0U2sZDgCLzXh3l0Ny4iZpWhKy+5dairVLDvqa6M5jS+OpcCw3w0UGPZYJbPAQO6LrzXkNZy7A3kl7FERYwYFM8tPP3pXGnfVxyRaVKi6UWCEIuPOdpjO/fmbc/JYs7zPOwiNjtVyhCz+5KNTusqVPFEL3aHLsyQTAQqMZOrNFG4Lkh3hC//Lb89HRSFPwwce2NeaFM53FBj2bwUKDHuskllgIO/F53/4xh6IoL3gyI3EeT/74JSJGhX0dkxfUmB4hxviYmlpSX77+2/MSpeTK2GlvGn3Tvnlp+87OZzHkEDCEKDASJiuYkU3I4C45Igm9fs/fS8Li4s6A/l6s91DvocQtY27tsvRQ/s0s3dVyP0S4Q0KDPu9RIFhj1WyCoyZmTlj8vLD+av2QATtlZWVpVGBdqpdfZuGui4Neje2LykwvOONyGL4rvj27BXz6ORKxeqns7e5UU6dPOzkcB5DAglDgAIjYbqKFQ1HAD+sSH7U+6LfsbM3roEMq4gAc1p/AGD2gCXtRCwUGPZ7jQLDHqtkFRgTk1Py8NFjuaDZmZ0UrHy+c/yQ7G6ol4I4J+ukwHDSg/aOQZ4U5Fy6fa9DcM84Kdu2Vkp7a7Psb29xcjiPIYGEIUCBkTBdxYqGIzA7Oy/dT58ZR03MSDotWMWoKC+Vj947aULWZmVlOj1VXI+jwLCPnwLDHqtkFRjDI2Pqv9Wtoa7v2QMRtBcSp338wTvGPCpHk+zFs1BgeEMf5lHwz/lOVy9e9A0IxIaT0tS4Uw6071E/vxonh/MYEkgYAhQYCdNVrGg4AisrK+YH4Hd//FZGRiccm0nhOrk6I9m4s16OHm43ttWJmN2bAiPcHfPT+9EJjCKTQ+XY4X0/ndCnz/pMMIROufew01ENk1VgPFMH7zsadrSz21myTgoM69sJ9xu+h5wU+Cr8w9/92jd5iWAeNTQ8Zvx05tTn77WDPClYDT98oM2Y0hUW0sHbyX3BYxKHAAVG4vQVa2qDwJL+CFxQM6mux89kcmraxhHWu+CHICMjXc68c1Qa1eyhqLDAekcfb6XAsN850QiMIh0oIEnjyWMH7V8wTntSYFiDp8BY5YLvuWZ1QH7/3ePWoCLcmkwCY2pqRrqe9Bgz3KUlh1neMzI0gMhhOXKoLWFNbyO8Bbh7ChOgwEjhzk/GpiO85HP1wbhy/bbxxYi2jYhTfujAXmNbna2OnIlUKDDs91Y0AgNCdL8KjA/VpM7vhQLDuocoMFa5UGBY3x/Y2vu8z/joIF+K0yAiW/X35KiudLY07Qp9Ib5DAklCgAIjSTqSzfiJwNz8gly8fFMedT1xbCcbOFs6okrpCsbePbtlZ32dOn2nBd7y/SMFhv0uwmrXuQvXzT1j/6if9kRG3g901hemMn4uFBjWvUOBscqFAsP6/piZnZNHHY/loiZidJrlHWdGjiVkeq/ZmtgRCq0pcSsJrCdAgbGeB18lCYEHj7rlrkb7QOjaaAv8MXZq4r1D+1vVHrj8TWSpaM/q/fHRCAyYSBzU9sIO2q0CH5nBoVE5e+GqOkkORnxaON4f1jCg+/QH2u0C++pvfrikyRqd+SbUb6+R4zoziUc/Rx2jwLC+c6IWGHm5xqxoh/Z/nj6PZ6GTt7v04dz95Olz83vy+Gmvo5PjOwF+fJiEwIRVYZwjjTlqBA8igQgJUGBECIy7JwaB+YUFM1g8f+l6xFl5rVqYnZ1lZp1gBgObe4Sv9XuJRmAcP7JfEw7ucdX3xM8CA3359XcXNfzkQ3Hgu6m5D0qktWW3HNOgAH4OCECBYf2pfabmL3fvd0hHlzMnb0SOgvPu3j2NJsy19VVis5UCw13OiBaF8Of3HnYJJiKcFKx8I2v3r37+gSBMLQsJpAIBCoxU6OUUbCMifDx/3q9hJ+9LT+8LHTT+GBUFzEDlqMjYpsn3Thw5IPDN8Lu5VDQCAysFCKVYVlocFbe1B/tdYFzUHAi37z0ShDuOtORkZ8v2um06gHjf1+KTAsO6Z4dGRuWBCVN733qHMFszMzNl145aOXH0gFRVlofZ29u3KTDc5Xv1xl15qOZR4Or0dyRXBWhzU4OJHoWM7ywkkAoEKDBSoZdTtI2wm33a80Ljll8WRJdy+uMQwAeRkZ2dKbXbtppEfDCH8fNSd1QCQx3bjcDQmXm3it8Fxo3b9+WOJtAaHZuIuMlYtYAYQ+6U6qpyQWZnP5ax8Ul51PlEIKaclGQNUzs+MSkwq7x09bYTLGbVKl9Noz56/6TmN6iVTI0WFOuC7zeIY5iGItwuBsSRFvpg/EQMvhbDo2Nm9QJBIKLxvSgqKjDfDbXbqiXeeVJ+aiGfkYC3BCgwvOXLs8eRACJKYeCA5e3nL/ujdvgONAXmUduqK40tLWyuMbD0o8kUBUagx+w9Gr8dNZNx4h+CK2Dg0NSwQ0NQtpt7wo++GNPTs9L95JnxN7FHZf1eySowpmdmjRPvDxeurW9whK+QCwVmUhXlZREeGd3uKyuvZVZzM3R19xihNDI27ijSEQXGaj8sLr7SnBejcl9FJ/wvYHLrtCD6IFa+P/3otECE+tmE0mkbeRwJWBGgwLCiwm1JQ+DV0pI6Fo/IuYvXZUgdjJfV0ditgh/j3Y07ZI8ufSNpEkyoMuIwcxmqPRQYochYb0cYSsz+YobfSYGgwMz1h++dUHOZOuPs6zeRQYFh3bOLr14Z/4uvvr0Q1UpnZUWprvy1SquKjCw1m4pFwXcccjTA/O2SRjmC0HAaRpUCQwQ5LgaGhlVwPtHkix1RdSE+/whO0dbaZIJmICohCwmkCgEKjFTp6RRuJ0wHLl+7bQaOTsxfQqHbom+k6WpGgYYmRVxzJKiCb4ZfCgVGZD0xpbP791RgODUfClytvKxYba3bZU9zo2DG30+FAiN0b2Bl5w9//iEqc0oMKHdrlKCD+1pNRLHQV3PvnV7N+4P7tlMd1CEsovE2o8AQeakR7uDw/7DzcdQBQhCFr3n3Ljn9zmFjTuu3CQf37kKeiQQ2EqDA2MiEW5KQAGzP4cDbobkxnDjxboYE5lF5GsoWdrZVGsa2Ydd2jThVGTc7fAwysKT/xy/Pmh9L+J9EWg6noA8GfEQeqDPnN99fchwtBpyReA+OvhCd+/a2mFUtHXf6olBghO4GhLT+QUMowzQGJkdOCxx6t6oJJaKKNep3QVaW+ysZy8srxvyz63GPmn8OyJj6DSH/T7QlVQUGJqEQLer+oy7pefZSfS/GZU5XgqIt8LnA6gXM5vxoRhtt+3g8CWxGgAJjMzp8L2kIYNAN2/qHHd3690QHEO6ZSgUgIapUXm6u5sooVRv8EinRaCHFRYVSUlxoHr2cvUJ7YEc+OTkt45NTMjIyLj3PX8qMbnMyWEpFgYF+RFCAcxraeHhkLCpTmSxduSgrK5WGnXVSX1djzCQQ6jjeJVqBgRnZD9WRubiwMN5Niej6EH1YaSzQ/AOhor/BKfqOTkLc02hSS2p2FE1BX0NkwlSuRu3vy0qKBfl0oi0IXDE2PqEiaMwIoUE1/8TnHmY9bhQ/CQwMyP/2v/pMxRoi9nkTFhzfjeCHz/vLvgHjqzeh36HROHQH+gHCEitZSNKKMNYsJJBqBCgwUq3HU7i9sFXGLOUNDV3bNzCks9QrUQ0iN0OJgVixCotyHWTixwV/cAKGnwZ+ePCDiX0Q3hKDHzviAyIi8MO3qBFOMAhCG9CueZ29hEM7TMAwUIrWFCxVBQYGGvcedJnVrmhFaJouW6DPG3bVS11NtRGd+fm5GolM7wHtdzt9vtk95uS9aAVGWtoWI5jguJpIBYP7eg0jjMhvoYQeZqyRDwMJFzGbHW1B/+I7oK5mq1nRLNVgELk5OW+/A+Cvtdk9gJXHJf2c4/O9oE7H+IxDXAwMjujfsEyq30W0kfGC2+gngQFn6GNH9pn8QxCH2RoKGt+f+M7Efei04HO9sKA8dZUXvitDEBf9g+a3Ae+5wRT9ur12mwlLu6O+xjOB5JQBjyOBWBCgwIgFZV7DNwQwMB/SWb/vz1/VH+vJqGcqI2lYmYoMOPyVFhepA3COWe0oVrMqDH7szNBh0DOudUYZUzEBn4GZ2Vn9kZyWickZV1dlUlVgIHoMbLD/8OUPAsdfNwYb6C+YzWzbWmUGuBUqOjHwhH8GBiL6n6SnrZ+h/VEt6X/UKGi4PmzqIVawv537BNcLVaIVGKHO6/ftGDjva2uR/W3NITNtY5VzfGJKfvMvfzaz2m71PdhAaCLa3LbqqtXvAF3dRMZvBAUwg2XcBCja38jhg8epmTmzIjkxOWkmDfr6h1VkzMuK1tOr4ieBEWgjJmfg24bvTkTnKtHvzCwVGvhMmM+Pig38C1XMZwmfI/08oY9n5xZ0xWJU+geGBf4rU9PufneiThCxH545ITs1ZHG8M7uH4sLtJOA1AQoMrwnz/L4igEEDzAkG1c76kuYCeKmRV6KdqbbbQMzIwTwjbUuabMGPov4Qvf2RDAwwNjkZ6h4YXOCHEmF4f/xx9RGv3SypKjDAGGZmf/72vIk6BpHhRkFfB1at0nAPaP+XQGiquMSMLAZPawv6c1KFI1assFJVqAPkNjW1wAALK15OCwVGaIEBpljF+Fbz5iCimBs+DYF+Mp/1N59/RBLCdwG2oS9XxabOyutr9DcmDpaWl+S1mu9AbJjPuj7H95QRH4GTevDoR4ER+N6ECDefHeUEfzfUNVtXg4uLisz3aSgc4Ie+RN9ilXdahRvYgieiCrr93YnVFgR4OLh/j6kj+pmFBFKRAAVGKvZ6irc5IDJgDoHcB0+fvYiZyEgU9KkqMNA/C4uLJp/AtZv3zCqXV30GM6l0HWBiYAnzj3WTsDqwhGlMYJBZWVEmp08cNkn8ogmFTIGxucCAmOt+0ivXNHszTGe8Lhh8wl8Hg2gsZWGwiwmQaAe9uEcwmYEVuUiKHwWGVf2xmmdWf7SNJhzwZoN4/SzBlBRi4pVOGOC5VwWJV3dqRvejmgunSP3vYAbLQgKpSoACI1V7nu02dtYQGYh33vuyz/ywQ3ywiKSywMAqEZzjz56/ZmzyITjiXRCV6IN3j1NgOOwIDJzDmUjh1BjYz+gM9/nLN9ThHwnW4t/3TpoMB3O0GZMnr3VgbfdbLVEEhhMmXh+D1ZQd9XUaOa7ZiAyvr8fzk4DfCVBg+L2HWD9PCcCvAba4CGGL8JRYSo+VyZSnDYvy5KksMALoEAv//sMuDQgwbHwhAtvj8UiBER11uwIjcJV7Dzvlvjr7w4Qy0SYd4O+xV0PkVleVy3lNMDqjpkF2V0QoMAJ3QGSPWFHZpqHJ2/Y0mbwX0ZgxRnZl7k0C/iVAgeHfvmHNYkQAP77z84uajO+WPNEZP0QWSbRBhduoKDBWM/pevX5Hbtx+YBy+3WYcyfkoMCKhtXHfSAXGnDpT37rzUCPOxb/vN7Ym9BaYXDXurJf97S3qt5Mv5y5eM3kyAtHnQh+5+g4FRjhCG9+HbxWSa546flhXMGqj8pHaeHZuIYHEJUCBkbh9x5q7SAAiA06AT5+9lC5NXoVwtk4S1LlYpbieigIDgXx+NOF+H3U+MaGNYcMdL+FJgRHdxyFSgYHvg8GhUU282G2ERnRXj83R8OMoUlHx7jtHNP/GduNLdFczfN+512E7aRwFRmR9la+RwLZrnpt9e5ukUs3SEEaXTt2RMeTeyUuAAiN5+5Ytc0AgkHTphSZd6n7cqxFHZjx1CnRQxZgcQoGxihkic0gHmkjA1qXOv9EmYHPaeRQYTsmtHhepwMBRiCAGkXFPB+lP1B8jUofp6Goc2dEwyUFCzwOa2A0rGFi9gP8IJkq+06hYCMVqp1Bg2KG0ug8ivyGR4u6GHSYKXCDstP0zcE8SSG4CFBjJ3b9snQMCiDIyNT0tj58+l35NaDWsWXMhPFLFNwODkwPtezTUYoPJQO4AoeUh4IcB29kLV01WdcudNtmIH/TDB9uME+Umu7n+Fvx0BoZGNAP8YzNgw70Q65UMCozoutWJwMAVISrgm3Xr7kNzz2KV028FORfw2WjYuV3aW5tMXh3MouPzhmR8n3/xjYxqgj479ywFxua9C64B3rvUoXunCoyqyrLND+K7JJCiBCgwUrTj2Wx7BAZ1YNmpJlPPn2tCJl3NWFxcMj/cdn6s7V0h/nvBtAKzb8jOjEdkoG1s2C4Y1OYgfKpLJVEFBpqPnCOYBUb40p7elzI7O2fCXrqEJuxpKDDCItp0B6cCAyeFuRRWAhAI4rkmZkNWbT98/jHYhUlOlSaha27cIa3q2I2VjLUmOsu6AvdfPv/SBLKwY/LpusAYGJJ//OcvbDuZb9qJcXwTTME2LzdXTaFKZV9ri2zbVmUSaMaxWrw0CfiaAAWGr7uHlYs3AQwkMMCY0ORrT3p6pbO7x+RGsOs0Ge/627k+7LbrarZKw656qa2pNkIDjosmw7CdE9jcJ5EFBpqIe2FGhQXuAZjNjIyO22x59LtRYETHMBqBgSsjwd2grmbe17w5Dx49jpupXIACBrzIA9GqyRdbWxo0Q3jlai6NwA5vHvGZ+/7cFel+quaemsAvXHFbYAzqBM1vf/+18QEJJAkNVwc/vo98Fsgmvrd1t7Ts3mUmYkzuEj9WlnUiAZ8QoMDwSUewGv4mALOp+YXVbLDDI+Nq6jNizGZGdZAZT+dfJ9RgAlVRViIlJcWCBG7FmhUX2Wdzc3LM8r9XP5yJLjDAGoOkeTWTGRmbkGe6kgHbfGRexkyxl4UCIzq60QoMXB2JDzFIH1Ch0dH1VMMXD8XFL6NAk7lt1wmBlqZdUlpabD67WZqDwargfr2rTt5w9oapV7jitsDARMzw6JiKsxGTuHBYkxeOjU96/nkJ10477+N7MFdD/m6v26YTL1ulCt+V6ueSl5uzbpXIzrm4DwmkIgEKjFTsdbY5KgJzcwvGXGZickomJqZkbGLS+GggvC1MZ/w0U4eY+BAPBfn5UlCAxzxBtlk8z8/T5yo2YFOcjkzCHpeVlddm1v/qjTs6SBuJ+GoYTMHGHAOreBdkW0b/D6l/ztDwiBEcU1PTavM+rSsd7tfOLYGB+7Ont08uXrnpfiV9fEbc7y1NDbJH751cHSA6LVjFMrlz9P7tV4GBbN+YZEC/e1WwWoEVxTK9/+FrgYEuzKK26l+wSVRwHbDyAvOuy9duS68mFQ1X3BYYgevBvBDiDP5L+J6cVB83JDTEiiD+/OLbAs74fiwpKZIynYApLS3SELQlUqrPISy8mnwJcOIjCSQTAQqMZOpNtiWmBDDYwAzd6Ni4jKsJ1bjOzI2r4JjXZH2IQIP3MLMN22evItDAjCkzM9PMqGEWM0ufYzkf2zKzMqRQhQVm3RBhprioyDyGmu30Gh78GDCYeNb7QgcY9qLarK1Tvto/16jdM0wV/FQwIzs8MmrEE2ZokawR/b2o/Y+oUxAjuFeiKW4JDNyXo2OTxtwvmvok2rHwVcB9g0E5PhtuFNzLWBVAMr4hXdFE1KYFXeVcWHhl+h2DeyfFmD+98YmC+MckAQa9qDvufwiNLPWXslNWzfrm1ayr26y8hDsG4qtWr9GmQt6rgpVMmJzibxKTNCrOIDrwOTGfF/2+xPcmPkNgiOeYnHCzqGYzog33AjJww/8sW/3NcnOzDd/KinKzuovvTRYSIAFnBCgwnHHjUSRgSQA/hvjhHNZZTaxuYMYOf5jlhC8HfjADg80fdcAdeG55sjUbMejYomIiUNLwWv8gForUxAn22Jhlg5jAKkVx0aqoyNDtLLEhgL7EIKl/ya4Q9QAANg5JREFUUAecurIxppF7Jt8MpDCowvsYcppH7fuQRbvZ9Df6GP+036sry+XUiUM6g13GRF4hwcXnDXyuIS76VWjAbAqiA98BGCyjr99+5jfrcu3jQJ9jggAD2/Ky0tUVi6py42MRn9bF5qqrfm66sjE1ZVY2sOIxohM3+D7Fygcc6xXm+tVh5Wk+S7p906Kfp8DKg/k8vREXcNguLi5QQVEiFboqVKm88f2Znu79au6m9eWbJJAkBCgwkqQj2Qx/EMBvnRESEBOBPwwydAYOKxkzKjbgy4HZfJhVYJYb+4UrSOiEP5hEoBQWFBhTD7zGjyekBx7Ncx2spG158xxvsMSMAAY8mG2FoHjb/9rX8NNAv7/SgRKyRM/qKkeofodYzMvLMRFrMMNqTNzUxAez8DDhYPEfAfQ7fLFW1FcLJpJYvZydm1N/nQWzWodVTbwfqsA0Cfb++IxjwIuVyTTta5guYsCbCv2+9vMCUfYaolyB/ag89aX5/hzRFcJVmS4qPlbMaiHMq7B/qILPU6WaluFLMj1dP1u6SoMVIQh3TNSkgW+astbHgBAJdS5uJwESsE+AAsM+K+5JAlERgKjAjJwZaOgPIpxGITxC/zT+dDkICcxsbnnjK4Fwsua1/kCy+J8AVjYgOjD4xMBoRe+DUP2OmexAf2PAg1WogLD0f0tZQxAwggOfde1r9H24QBD4PENE4DMNsyiWjQTw/bm4uPj2cwPhAa5gvFmBWIP5EwoEBTiDNwsJkIC3BCgwvOXLs5MACZAACZAACZAACZBAShGgwEip7mZjSYAESIAESIAESIAESMBbAhQY3vLl2UmABEiABEiABEiABEggpQhQYKRUd7OxJEACJEACJEACJEACJOAtAQoMb/ny7CRAAiRAAiRAAiRAAiSQUgQoMFKqu9lYEiABEiABEiABEiABEvCWAAWGt3x5dhIgARIgARIgARIgARJIKQIUGCnV3WwsCZAACZAACZAACZAACXhLgALDW748OwmQAAmQAAmQAAmQAAmkFAEKjJTqbjaWBEiABEiABEiABEiABLwlQIHhLV+enQRIgARIgARIgARIgARSigAFRkp1NxtLAiRAAiRAAiRAAiRAAt4SoMDwli/PTgIkQAIkQAIkQAIkQAIpRYACI6W6m40lARIgARIgARIgARIgAW8JUGB4y5dnJwESIAESIAESIAESIIGUIkCBkVLdzcaSAAmQAAmQAAmQAAmQgLcEKDC85cuzkwAJkAAJkAAJkAAJkEBKEaDASKnuZmNJgARIgARIgARIgARIwFsCFBje8uXZSYAESIAESIAESIAESCClCFBgpFR3s7EkQAIkQAIkQAIkQAIk4C0BCgxv+fLsJEACJEACJEACJEACJJBSBCgwUqq72VgSIAESIAESIAESIAES8JYABYa3fHl2EiABEiABEiABEiABEkgpAhQYKdXdbCwJkAAJkAAJkAAJkAAJeEuAAsNbvjw7CZAACZAACZAACZAACaQUAQqMlOpuNpYESIAESIAESIAESIAEvCVAgeEtX56dBEiABEiABEiABEiABFKKAAVGSnU3G0sCJEACJEACJEACJEAC3hKgwPCWL89OAiRAAiRAAiRAAiRAAilFgAIjpbqbjSUBEiABEiABEiABEiABbwlQYHjLl2cnARIgARIgARIgARIggZQiQIGRUt3NxpIACZAACZAACZAACZCAtwQoMLzly7OTAAmQAAmQAAmQAAmQQEoRoMBIqe5mY0mABEiABEiABEiABEjAWwIUGN7y5dlJgARIgARIgARIgARIIKUIUGCkVHezsSRAAiRAAiRAAiRAAiTgLQEKDG/58uwkQAIkQAIkQAIkQAIkkFIEKDBSqrvZWBIgARIgARIgARIgARLwlgAFhrd8eXYSIAESIAESIAESIAESSCkCFBgp1d1srJ8I/Pjjj7K0tCwrr197Wq20LVskPT397TXS0rZIWlra29duPkGblldWZHl5JeRpszIzzPW3aL1iVVCvlZXXsrS8HPKSmVqvjDWcQu4Y4o3X2o+vXi3JjyHeR2vT09MkMzMzxB7ub0a7X7/W+2xZ62VRMXQB7o3MjAxHF8e9u5SAbUY/ZzhsM0CB66ulJcPWETgPDkJfZmdlid3PlflMoP/0O8jLsnrfp7+tV+Ce8/KaPDcJkED8CVBgxL8PWIMUJIAf97m5eTl36Ya8eDngKYGysmJp3Ln97TWqqyoEf16Uyalp6ex6Knfud4Y8/emTh2SX1geDoViV6ZlZedLzXK7duBfykqe0Xq3NjSHf3+wNDNIGh0bkq+8uGCFjtW9WVqbUb98m758+bvW2J9sWF19J/+CwXLh8U+bnFzZcIycnS5p375Jjh/dteC/cBrR5QM+NNkPEWJWs7EzZUVcj750+ZvW2J9sWFhdlYOBNmxcWN1wjJydbWpp2ydFD7Rves7MBogqf3W++vygjoxN2DonJPvl5ufKXv/xI8vTRTsG98fhpr1y8csvO7o73gaBobdkt+Xk55hzZ2dnS1LjDs0kOxxXlgSRAAq4SoMBwFSdPRgL2CEBgzMzOyZffnJenz17YO8jhXjnZWVJUVPD26NzcXCkqzJeC/DypKC+Vmq1VUlCQ//b9aJ6Mj0/K3QedcvXG3ZCn+fjDU2aAl6MDjVgVCJ+Ozqdy9uK1kJf8+INTcmDfnpDvb/YGVi5e9g/Kb3//tQoM69UbrF5sraqUd985YgQeVky8LvMLC0bAfv3dRZnVQXFwyc3Nkfa9zfLeqaPBb4V9jTa/6BswbcbqjVUxba7WNp/UNldXOF4psTp3qG0QUhDtX2mb5+at27yvrUXOaD84KehffHY//8M3KipHnZzCk2Pwef5Xf/+X5nNt5wILKr4edj5WoXTJzu5R7VNaWqx9v7qKihWz4qJCyc/PldKSYqmuLJeteo+wkAAJJBcBCozk6k+2JkEIxFJgWCGBiQhmOsv0hz+wolFVUSbFxYVWu9veRoERWmAAYr4OAht31suJo/ulUEWeXXMW2x0QtGO8BQaqg4Fv4656OY42q5D1vM0UGEF3gfXLWAoMqxpA3BbrxEdFeZkKjAoV3xUqOIokK4Yrm1b14jYSIAF3CFBguMORZyGBiAjEW2AEVxYio7W5wZguYRCYobONTgaCFBibCwz4w2Bg9dkn75mVI5hNeVn8IDDQZojZzz5+T7ZtrdQBpMdtpsCwdUvFW2CsrST8ktr27DZCtKqyzHxGnHz/rD0nn5MACcSXAAVGfPnz6ilKwG8CA90AnwjMJJ5RcxmYTq11DLfbTRQYmwsMcATXg/tbpb21yXC2y9bJfn4QGKg3VszQ5rZYtJkCw9at4ieBEahwpX7vwHytfW9TTIMhBK7PRxIgAfcIUGC4x5JnIgHbBPwoMDBjmKUziVVV5XJo/15p2FkXscigwAgvMMA5T1cxTp08bHxRvHR294vAMG1WJ9/T6ovRvHunpw7+9MHIs/U95EeBgcheJWqmiSAQ7xw7YCJ9cSXDVndyJxLwHQEKDN91CSuUCgT8KDAC3OF8vLO+dtVkoWFHYLOtRwqM8AIjAHKPRqza19Ys9XXbAptcf/SLwAg0rLVF26xO5du9bDNXMAK4N330o8BAhbHCV1JSKHv184EABHajYm3aWL5JAiQQcwIUGDFHzguSwGoc/XBRpDCbV1FWYpyBncTsX9acD/Pzixqv/5UJnTo5NWMiHEHchCsI5bm7Ac7IB0zEF7uziBQY9gUGIunsVbvzwwf2Cnh7UfwmMBBEoG1Pk66QtXrXZh8IDKxKleOzq/5MaRo9LBYFUdkQatludDY7AgOrCcXFRWbFLdI2ILLYokYam5ubM4fOzs7LvEauChVxbO35ITIQ6e6DMyekZlu1til2Ia3X1oPPSYAEnBOgwHDOjkeSgGMCdlYwEDr2xJH9JmY8og9FWhCic2h4TKY0RCtCinY/6TXhNV+9emUSzm2WDA/Xgh8GbOYRutVuIjYKDPsCA4yxUoQcFJjRtyvicJzd4jeBgXrv3FEnxzQHRf32GrvNiGg/P5hIlZeVmn7d3VjvqTlYRGCCdrYjMOAn1K6rbLU6yI+0IBEhvnv6+ofMoS/7hmRweERwXeRQQdLLzSY7kBAUAnx/2x7jG+bF5yPSNnF/EiAB+wQoMOyz4p4k4BqBWAgMXAMJ0PCIf8hkPTo6Lr3P++Rp70vpH1j94Q/VKKyaIEb9X3z2oZop5NhKjEWBEZnAQHK0Xerr8ulH76aMwED+gwa1sUebvSgUGPaoei0wUAusVgSSMOL5zOysJkEckW5N8IccKuirzQp8ld5956gm6ms0ke0225fvkQAJ+IsABYa/+oO1SRECsRAYViixkoEf9bGJSXmmIuP+w25B5mOrghlD5DB458QhMyDEYDhcocCwFhhghwzQGNStLelpaVKmpjRIvodZ4myXTUHiuYIRss1qMoQZfiTfq9lW5X6bfWAixRWMtXf5T8+RpHBBM4gj6eOLF/3S0f307QrHT3v99CxNPx+IKAW/HSbj+4kLn5FAIhCgwEiEXmIdk45AvARGAOSSmi+Mjk3I9Vv35bn+0Ftleca+yFmwS01aTh47aCukKgWGtcDAjD1M0/oHRzZk+obNPMyF3jl+UBMfluhK0ZZAN0X9GE+B0bBruyzqYHIgRJt3BNqsAstN8xeuYNi7bWKxgrFZTaamZ6Sj84lmE38iwyNjIXdF7pT9JnRtc8h9+AYJkID/CFBg+K9PWKMUIBBvgQHEMJnqfdEnN28/MOYKsIsOLphBLCzIk59rkrS6muqwA0EKDGuBAT8LmIg86Xku4xNT6zBjcA0fl08+PC076mtMkrF1O0TxIp4C4/iRfeYe27TNH6HNtZLropM7BYa9GybeAgO1HFGTzUddT+T2nUfqEP7K0icDZlKIJoUQx26Kb3uUuBcJkIBTAhQYTsnxOBKIgoAfBEag+ldv3FVTqS6zohHYFvz46198ZPJihItmRYERWmCUlRbL4NCo3L73yHIghUEUTEEwY+vWjH48BcYxFRhlJcUyMDQid+51hG6zOhFvq3axzTSRCv74Wr72g8BAxeALdu7idenTx1CBJ+Ds/dF7J103p7MEw40kQAKuEKDAcAUjT0ICkRHwk8Do7O6Ruw86pOfZy5CN+FDDRSJBGiJbbVYoMKwFBsKytjQ1aMjgJfnzN+c1dOe8WdFYyxL+F8c1ahjMQdwKWxtPgYFkjS1Nu8zM9Jffos0Llm1GKGQIK9faTIGx9rYK+dwvAmNsfFIF6CO596DL3CtWFW7cVa8rGIeNmaZb4tvqOtxGAiTgHgEKDPdY8kwkYJuAnwQGQtliVh0/8qHKiSMHpHVPo4ntH2ofbKfAsBYYWJ2As2peTo7xe4FzKwZ4waWpcYfsb2/R8LV1wW85eh1PgQHRgHZDOMDXp1NNYeDgG1yaVLhCVCFkrxuFJlL2KPpFYEBs92hku+/PXpY5FYdWBckoj6qZIe4RCgwrQtxGAv4jQIHhvz5hjVKAgJ8EBgYaN+88lAuXb4Qkf/hAm+bE2C1VGrZ2s0KBYS0w9jQ3aNbuFhP2FyZD3+pgCqyCk44h+R5Wio5ongjYnkc7mIqnwGh9k6kc98zA4PBqm9X/ZEObNZlby+5dcuRgm/E/ibrNXMHY7CP69j2/CAyYRSHgxP/3uy9Nnp63FVzzpFb9v/AdBAEe7f2x5rR8SgIk4CEBCgwP4fLUJBCKgJ8EBuoIR+9vfrgUqrrmx50CIyQek8jwZf+g/Pb31gJjd8PqygQiciHBGMykep+/NGZDwWeFDwacwhF5ChmNoynxFBhmNQYrE2izBhD48zfnTA4Wq1nqmq1Vps3ICRJ1mykwbN0yfhEYqOzs7Jz8h//8uUxPz1rWnQLDEgs3koCvCVBg+Lp7WLlkJUCBsUsQnjVWZVIzCnd0PpWzF6+FvOTHH5wyWctD7rDJG8gvspnAgGkHMqJDaGAGv+vxM7mhZkNwbA0uOeqLgQHVLz55P2qn1ngKjJ070OZW2a3284hY1q1tvn77vmWCR5hRIUrZZ5+8F3Xma5pIBd9R1q8pMKy5cCsJkIA7BCgw3OHIs5BARAQoMFJLYNTVbJWDxtF7l0ZTEpPc8LxGzkGITuSKWFsQirNQnelPnTiiNuc1mkU9fILDtcevfR5PgbG+zT8a/4tzKvA6up5atrmosEDbfFiQHyOqNnMFY+0tEPI5BUZINHyDBEjABQIUGC5A5ClIIFICfhIYSLoHH4yzF0LP7sNkB6EiK8pLN20qfTCsTaS2VlXIoQN7DcMAwIedj+Xu/U6T6DCwLfCYmZmhA+1aE1Wquqpc4/+nBd6K6DGeAsOyzR3aZo1Y9vzFwIZ2ZGVmmoSDJ47uN74+jttMgbGBrdUGvwgMZLifUN+cf/rtn2RmxtpEanstnLzbTdJP+mBY9Sa3kYD/CFBg+K9PWKMUIOAngQHzoVt3H8k1zYcRqrz7zhETZrVEHXI3KxQY1gKjXLNVH1YnZkRLCpSJyWl52NFt/F/mgyJKYRAFs6HTOqPf2FAvBfl5gcMieoynwECb4bgN5/ZAmZickgePuuWWCtpQbX5XE6ohC7jjNlNgBHBv+ugXgYEVvP7BIfnjl2dlViNKWRX4Lp04dkDgq0OBYUWI20jAfwQoMPzXJ6xRChDwk8B42TdoQtQ+0NnlUOXTj95V/4H6sFmmKTCsBUZxUYGJDIXcEGvLs96XgkSHvS/6LRPRmRCuGuoV2a6dDKziKTDQ5qMaDetgUJt7nr3QNt8zWeTXsgg8RxQtiBKYSjlqMwVGAOWmj34RGNO6agH/nItXbm4QnYEGNGuUsTOnjgqirKn2ZiEBEkgAAhQYCdBJrGLyEfCTwLj/qEvuqanOCxUaocrf/OWntmLQU2BYC4z8/FwdbO8zA+61jKemZ8zg6rtzVywFRoZGkYJpFcxD8nIj98WIp8BAm2Fad+Rg+9omy9SUtvnJMxO2dt0bb16YNh/UNisvhOqNtNDJ2x4xvwiM4dExE/Cgs6vHJKK0qj1yqnzy0WlHgtPqfNxGAiTgPQEKDO8Z8woksIGAHwQG6rCwuCjn1NkYP+54HlwQMrSspMj8uG9T84RwhQLDWmDAaRmDbczory3LKysyPDwqX39/UZDRGOFcgwtm8pF8D7O4kZZ4CgzT5iPa5iCBgbwHQ2/ajPsFYXuDC1ZsDmibmxp3Br8V9jUFRlhEZgc/CAxktn+qK1rfIcmeyW6vERCCCgIewLTw5PGDQe/wJQmQgJ8JUGD4uXdYt6QlEG+BgesjtGpH9xO5fbfDDPisYCNkaktTg/EfKCstttpl3TYKDGuBkakOzMd1sH3y2MZBEgZWiCaFsLWTOrsfXOCLgPwQ7xw7JFgViMT5OZ4CA22Gw/aJoweCm2QGk486n5gM31jFCS5oM/wwTh49GHmbaSIVjNPydbwFBkIX92nuGKyg3n/YbVlHbKyvq1GTuWZBskoWEiCBxCFAgZE4fcWaJhGBeAoM5GFAsrPBwRG5cuOOjIyMW5omwP4ds4ewfa5H6FAb5ioUGNYCA7cuBtpwlg8u6A84PH+pyfdevByQxVfrw9ZifzhMYwVkt2Yyzs7KCj5FyNfxFBio1El1zD2tTtvBJdBmJN9DmyF2gwsilmHFB6sYWVmZwW+HfM0VjJBo1r0RL4GB7z6Ii5GxcXnwsEs6H/dooj1r526I6QPtewQmUpWVZevqzxckQAL+JkCB4e/+Ye2SlEC8BEZAXPS+6JMr1+4Iovrgx96qZGRkSFVFmfz6Fx9pXoIcWzPnFBiRC4wAe4Ssvfug0zIRHQbYlRWl8tnH771xdLXn6epXgfFTmztMqN7+weHAprePaHOVDirRZuTIsOvw7QeBUVaqUcPUdwarMJGIo7eND/Nki2zRjOdp5jNpl0vwKeMhMPC9BzNArFpdvnY7ZGb3QF1zc3LMBEdrS6NkZESX1T5wTj6SAAnEhgAFRmw48yoksI5AvARGj0YteqT5F54975P5+UUVFyvr6rX2RXlZqbS17jYJ4jJVbNgpFBjOBcbMzJwZdN3TWd3lIL8EDCJhrvbO8UMmbC0G3HaK3wUG2nzp6i01k+m2brOG6j2FNms28MLCfDtN1vt6wayKfPXdRV2p2zgznqsrcYhSdcZiNcnOBfCZmZmdk8//8I0MDo1aHgLfJYQZztJ8Jk4FgOWJ32zEwHtPS4PJDO80nG88BMb4xKTJYg+TqFlluLS8pJntN/pdoJlIONnastusYGytrvCE42aM+R4JkEB0BCgwouPHo0nAEYFYCIyxsQmZUft+DLgQChKvsWIxpkmt8OO+WcEAdnfDDiMukPvC7iCJAsO5wMDqEvwS7tzrkJdqmx5cYC5SV7tVjqupVJ0mHsMMdrjid4GBNj9E8j1dvbFqM9pYq1nQjx/ZL9u17Xb8T/wgMML1S7Tvw4EemeHbNPmlXbEZfE2vBQZyWkzq982C5rmAIBvX7x18P5jvIH3Ed2CoglWfivIyY2K3bWuliuvsULtyOwmQgE8JUGD4tGNYreQmYEdgZOuM9U6NplNVWe7IzAKzhXNzC2alYvUHflJnC63NodbSxnV364wxMnfD9yKSQoHhXGCAMyJJYYXp2s37akqy3i8BIg99A78EOLwiJ0C44neBEWgzRMZ1dXIP1Wb4n7Q07bLXZh+sYITrl2jfj5XAQGK7mm1VUhwmwaZVeyD0kMQTifRm9XsIwgLbwhWYQmH1FKtMyImSqytBLCRAAolHgAIj8fqMNU4CAnYERqybiQFsppp0YEBxsL3VJHeL1O6ZAiM6gYE+R9I9hA4eHBqxFITIatyuTq9IfBhuRj8RBAbaDJO985fQ5tGQbUYkIZhKhW0zBQaQhi12VjDCnsTlHfB9U1pSbPoZUdfgB2Z39dTlqvB0JEACURKgwIgSIA8nAScE/CgwEJ0Its6IdATzhEjFBThQYEQvMBC2Fhm+v/7+kmVEqSwN/4rVpRMaoSmc/X2iCAyY0zx7pm3+4aJlRCm0ua21yYS9zdcQtpsVmkhtRuen9/woMCo1cli7Csn21mZHq7Y/tY7PSIAE4k2AAiPePcDrpyQBvwkMhASFOQL+YNPtdOaQAiN6gQEztonJaZN8D6sYMDFZWzCjC7t0hO7ESsZmBcciQtMfvzpr6XcDh2ec4z0NRRxpQWjZF30D8tvff2256oDzhQpTG3wttBk2+t9owkGsYgSH6kWbsbKGurar0NisoM19A8Pyp69+UNOc+Dh5b1Y/N96LlYmUG3W1cw4EkUAI5hZNJolJDrSPKxd2yHEfEvAvAQoM//YNa5bEBPwgMPADDnOE6qpyqVNH2tqaapNvIRrsFBjRCwzwx+C9+8kzuXrjroyMjm/oEtilb6/bZkJ4IlcJohZZFfg0DI2Mye/+8K1xtA3exy8CA/WCqDBtvn5PRjVHQnBBXeHojbwsm7UZ2aGHhrXNf/w2pKjyOopUvg6Q0T8Q7hkh+ia4fZG8zlBTxqqKcvN5dRoG1w8rGPl5eVJeXiLbqqvUJLPGhGKmQ3ckdwL3JQH/EqDA8G/fsGZJTCBeAgM+FghxCTOTIg37WamDlLo3wgJhNaMtFBjuCAzcHxgA/nD+qjzueW7pHFtcVCBH1fm5WWd9QyVBXNJwt6MqUH77xTcyo5HEgoufBEagzd+fvyJPel6EaHOhSTjYpCttm7UZouxfdGUFwQ2CC9rstcCAk/JqYsT6iBIjBtfVy9fxEBiICgZTTKxQFKgwLtd8IVurK6VWV6fwnYTQtCwkQALJQYACIzn6ka1IMAJ2BEaarjBkadQgmA9ssfHD+1oT5mH21iorcgBPhc4WYrViR32d1OsMKwSHm6YIFBjuCIxAf3V2P9WwtZ3q+N23IawnZq4rNRHih2dOmplfK+fnRBIYgTZ3dD3VsLUdxtkdn5O1BW1GVLUPz5wwqwOh2kyBsZaa9XM7AiNTfV+QyyPdRpI79NXK8orJSh/cb4EaQFjABGrn9lrZuaPWmGOGWn0LHMNHEiCBxCRAgZGY/cZaJzgBOwIDM3qH9++VXTvrBCYX4Qps2B9owrI7OjgLVfZr6MfWPY1m1jBd8yq4KS5wTQoMdwUGBoHXb96T67cfWIZwxQD75NED0qwhXMtKizd0eyIKjPk3bb5xG2Frl9e1CfcrZsFPHD2oYWt3GhO/dTvoC7SZAiOYysbXdgTGnqYGTejXqCZMFRtPELQF+S76B4bkhwvXNDz2Rt8X7I7VioP79pgcOxAvXLEIgsiXJJBEBCgwkqgz2ZTEIWBHYMCE4IQmGGtS58dwkXPQcqxedD/plWtqtz+sdvdWBbO/SNDV2tzoKEqU1TnXbqPAcFdgIMvxk55eua3J93qevViL+u1zOHwfPbRPQ3tu3+CLkYgCw7T5Kdr8SJB53qps0/wMxw63S8NO6zZTYFhRW7/NjsCAQz2iOtVuq15/sMWrFV1BnZmdle/PXTXO/1Y5LxD1bKeGWUZQAZhkuj3BYVEtbiIBEogTAQqMOIHnZVObgBcCA0RHNVv3g45uuXr97gaTGrwPE5M9Ki4wiwjzGrcLBYa7AgP9MzU9I92Pn8mFKzeN+Vuw+Qn69ED7HhPGtbysZF2XJqLACLS5q7tHLl69FbLNB/etZrIus2gzBca628DyhdsCAxdZXlkR9NsNTZo4oBHQggvMoUpLioyjPqKC0aE7mBBfk0DyEKDASJ6+ZEsSiIBXAgMDygEN0WnCks7NCWYVgwtWMVrV7AErGelp6TqLGLyH89d2BMbP3n9HWpp3GWdz51eK7EhkFO7ofCpnL16zPBADn4/ePykwIXNS4Pfysn/QhGxd0UGWVTmhpkzIMeKkIHQr6t6n1wg2G8L5EAEMuQOQH2Ot2Qnqgozuv/mXL2Xa507ewVwwQEXCwZd9g7Ks93VwgS9R+94mvZc3thkZ0X/z+Z/VsZ1O3sHcAq+9EBj4XoOJ21k1k+p63LMhxDKujWz0uzVh4mHNSF+h4tDKjyZQRz6SAAkkLgEKjMTtO9Y8gQl4JTCABAPJa2q3D2fZWYsoOtgHA9Kf/+xdKSoqVJGRhk2uFDsC4/13j+sqSkPYJHGuVOjNSSY1r8SjridmwGp13oKCPDXbOGaEl9X74bZ5LTAWFhdVXAzJ199d1P6d0dWp9TVC3pI96ocBttnZMD356X3Yw/+H//y5TE3N/LTxzTM/RZEKrhwGwGjzV99dMKY3lm3W++j908eMuc3a43Hfo83T09aRsxhFSkyUsoedjzX3yKW16NY9j8REau2B9x91yb37nWoqNbh287rnP//4XTXr26ETDdFHr1t3Yr4gARLwBQEKDF90AyuRagS8FBiYtZ7SgdWfNLkaZoGtZtSRTK9FHTiPqh17qHCfTvoE1733oFMuqjlPqHL65GEzkC9WcROrgrwID3TQc11NN6yK3wUG7pe5+QWTiO75y4ENIVxhyw5fjMMH2owDLRyhAyVRBYZps4qjrzX53ouXgzozvhBoknlEm2vUF+PQgb3GT2ntTDgFxjpUli+8WMEIXAj876jf0FWd6EAuFqvS2FCvppqtsrO+1uptbiMBEkhwAhQYCd6BrH5iEvBSYGCmF5mRL1+7rasYTwTmIsEFM94lxYUm3CfCRmZpbHo3CiLJQGB8f+5KyNMdOdiu/gK7PfEBCXXRPo1uc+9Blwl/arUPEqKdOnFIB6o7rd4Ou83rFQxUAOZuPb0v5Mr1O2ZmP7hScJpFTpMP3ztpggIEVqYgTP7TP39hTKVeBy0D+HkFY7XNK/JUndvhU4Q+DC6Y/a7V5HsIWwsH4oDIQAbv//SbL2RCI6tZtZkrGN6uYMBRH0EJbt55ENJRH5Hx4Du0T53IEdCChQRIILkIUGAkV3+yNQlCwEuBEUDQPzhsnC2RHXlZ49MHlwyNbb9vb4vsa2+WynJ3HL4hbO4/7DKmPCv63Kq07UFkmiaTj8PqfS+29T7vM+F7YTYWXGBOtL12mxzTiF1OZ1NjITBwzyDb9cXLN1fN3yxCgWKQfeb0UdOOvNzV0MaI5vObz7+UEY0sBifctcXvAiPQ5gtv2mwV/hRZvdHmHZpbIbAah/3QZiQZtGozBYa3AgP3GIITPNaoducuXTd+Q+jL4IJcPOgLmEyykAAJJBcBCozk6k+2JkEIxEJgAAVyCdy681Bnr6c2kIGJCQaYCBmJmXtEI3KjPOp8Yuy6g01aAuduVAfP/e0tJsRoYJvXj3A4vakcnr/o33ApcGjWzNCHNOcIfFOclFgIjEC9ujSiFFaJMLMfPGjL0twC23XQ9s7xgyYhHdqGfvj8D9/I4OCoCWUcOA8e/S4wAnVF/91Vm36Erd3QZr1vV9t8SKo0MhrajFUb02Z1jg820UGbKTC8FxjoO0Tz+vM358yjVXACrJwivDJWoBi2NnC385EEkoMABUZy9CNbkWAEYiUw4CR7VwejGJCGKpg9hJlCfV1NqF0i2o4VE0SRgagJHgziRDUaUx+2160tsZu1RE4F5AeZUGfv4IIBKcL2tu9tNoPy4PftvI6lwMCAGdm9L1y+sUEwoK5oz2efnJHGnfUmYg9s7b/48ntjVrWoJmxrS6IIDOR4uXO3w/j24HlwQZt/8cl7RrQiShFWbf6ANmtENas2U2DERmDAVA1ha6/oZ29aVzSsSrmaJ+Lzt1ejgbk1yWF1HW4jARKILQEKjNjy5tVIwBCIlcDAwPexJi07r2YKcMC2GvDDxAThWeHwDd+MaMszNUe6pPkLEF7U6now3YFj7lENUwkzLa8LzMPgt3D1xh1LUzEMTuF/0aJRmEpLNmbDtlO/WAoMMIWj9+27D6VTB29WBT4uMH/DigwiUH397QXp1dUbzOyvLYkiMEybtf637j4y4U/XtiHwvE2TwkEoIykcRBWiT6HNwQnfuIKxSsxLJ+9An8Bkcm5uQb789rwJ4xws9rAfREV1ZYV8iqh2hflv/WgC5+AjCZBAYhKgwEjMfmOtE5wABkwzGmnly2/OG1MXq+ZEmsnb6hzYBjOFO/c7jImJVT4BOMbC9wCDfqc+CGuvDd8PmGXBVAoDjOCC67Vpvoajh/dJWamzAX3wOTd7jUhaSPz1sOOx5W4QGL/89H3ZoQychsyMpcBAIzAz/EzNhb49e1kT0b1Szuvt2xGh6/DBvWZV5kd9D073MKnCPbe2JIrACLQZjsPfaVss26xBC44cbDMJB3HfIaM02hwcqpkCY/UOiIXAwJXwXXdXv3/uqInboH4Wgws+f/CdQZ6Y3Q07pFBFBgsJkEDiE6DASPw+ZAsSkEAsBQZmDTHI/lpndLGKYRW2Fj/qjTu3ayK4o5KpM4pp+qPvtMA0Cs7UWMWwuhbOC+fOA2oW0bx7l9PL2D7uls70w/F8YHDj4AZJ6bLVDvyvf/2JVFdVOJ49jbXAQOORQO/781c1hOvABjMgvI+ke4dVNJZo5uQLl24KTNfgeLu2JJLAQL0REe2HC6HbjJUbCOWSoiI5ryZkaHNwLgwKjNU7IFYCA1eDaeKV64hq99RkZl+twU//R6JLRLODyEDAhVisbP50dT4jARLwggAFhhdUeU4SCEMglgIDVUFUHWRFfmIxoxuoarlm1f3Z+6d0oF0elS00BA1MeGADj4G3VSkpLjKO1adPHtFBvXMxY3XutdsgcJBHAdFsgs2DsB/MM6oqy+STD9+NajUlHgIDnJE9HP4uY2MTG8KxVqrDMzK2w2zIJF7UTOYTk+ud/RNNYMDcC6Z3ps0qNvA5WlvQZggrJIi7dvOuJld8KkiyuLZQYKzSiKXAwBXhpI+V1AFd4QxVTh0/JK3afwihzUICJJDYBCgwErv/WPsEJRBrgYEcCpjxhl06BmhWBVFcMHv4nob8hABwWtA2zDT/yx++1sHdjOUqBsykardVyS/UNAnx8AP5C5xe0+o4+F6MjI7Jd2pGBGff4MEojoH/CQbgcPpFiFenJR4CA+2BgPrmh0vytGej+VPA9A3ZvTu7nxoTseCcKIkmMNBm9Ou32mYrsWzavKPWZPeGf8oDNYtDdvm1hQJjlUasBcb0DJJwdpngBGv7Y+3zbdWVcnB/qxGJa7fzOQmQQOIRoMBIvD5jjZOAAAZKsfLBAK7AYBRmSx1dPRtmsrEPBmc5GoHn1InDJhpPNLbQaNtVdazGIC/Y7h/XQsH5ETkGJi0QGW4X2N6fvXhN7fBfmhUcq/Mjwd7HH54y4U0zNcSr0xIPgRGo6/OX/SYRHfwNggtmghGCODMzw/QF/HHWlkQTGKi7fnTULKxfIxPd0WRuL9c2xzyHOG5q3GHaDJOcUV3dWVsoMFZpxFpgYJLj2fOXcuXaHekfHNrgN4RaZeuK4m69XxFlDiZTLCRAAolLgAIjcfuONU9gArEWGAFUsNdHyFaEjgyVCK9B81Qc0llE+Ek4XVnAgPtF34AxZQke1AbqAjtrOCND0NRpNuZAkrTA+9E8QtTACRp2+LOz85bO5jCPQht//vEZNZXKisrvJJ4CA9e+fuuemR0O9rGAsCgqLBAIKTjfT00ltg9G4J5Am2ECdf9h9wa/krdtrtA292ubLfxOGKY2NmFqA/0VeJycmjZ+MRev3DLmk/geDC64V/c0N2qUuTbz/QMncBYSIIHEI0CBkXh9xhonAYF4CQyYlyCiC6IqTeiPvVXBDK+JxqMZtwsKnJkNIYrPvIYKRXjK58/7LfM14NoQMI0N9SaqFMKLwkwr2gJ/E4Qnhb03zMGsIlnhGhjItOpA5vjR/dFe0gyW4A/x299/bWkShgvAgfXdd45EfS2rEyA0MHKdYMUouL0YoGG1aGF+cUM/JOIKRqD9EJD31Hnfqs3w60EUNoSoDU7wxhWMVYKxXsHAVXFvjo9PvU2+Z5XTBAIR4ZU/ePeE8cWAAzgLCZBA4hGgwEi8PmONk4BAvAQG0PUNDJnZbgxIrWYQsU+DRpSCb0Ljrh2auA1bnBVkEn/wqFvDU45uegKEp2zf26RhcutUdGwxyeI2PcDiTbQFAxiYxSC5IFZrQhUMupG9+8SR/VJZWR5qN9vb47mCgUpCOKLdCEcLR+hQ/RrcoEQWGKbNGgoZkbQWNFv5xrnw4NauvqbAWOUQD4GBK5vrqm/MTQ1lDb8wq1JUVGBy8yD5pRfmk1bX5DYSIAF3CVBguMuTZyMBWwTiKTAQfQj2+t+fv2KSYAXPeKMBMB9CCFnMuMN0yamZwtj4hFy/uZqDYml5OSQbmChV6opCw67tah7RYAYVkcxcYpZ6dGzcODLDJwFhMYNnrtdevFRDtyK54MH9e10JiRlvgYH7CSIO5m/I9xEqPPBaBnieyAJjtc0jmnDwTZtVXNopFBirlOIlMPB9MzMzZ3K49L7os4w0l64rm3n5uSY7+9aqSuNPY6dvuQ8JkIB/CFBg+KcvWJMUIhBPgYFrwy/i5u0H0vm4xzKHAroCeSEOtO/RiC6NEslgf203IrEfTFgQohI+GZsViJrCggIpLys214Z/BvwHIAay1fl8rchBG5AhGDbdmAWFIy/ahEeYSC1rdKVQBdnK9+vqDMKZoo1ulHgLDLQBKxd9/UMmLC8c3OFUG64kssB42+a+1TbD78ZKLAcziIXAQLCEivIywUy8Uz+m4HqHe43PB667V3OBVJSVhtt9dSWh87F88/2lkPsi3G+7flZgvuhmwb0JMby6urkxPw2uBW6HdAIAuU0QfpiFBEggsQhQYCRWf7G2SUIgngIDCDEYhQPsd+cum9l+q4EZ/CEwsPhAw5zCht+pyIAA6Hr8zMw0z8zO6iAwvDELMnzDhr5YBQYSxYUSGFPTKjDUpntc8ztAWIQr6elpUlezVbNct5mQvLD3dqP4QWCgHRAW5y5dN2Frke07XEl0gYH2QVicj7DNXjt5h+PuxfswLczPz5dPPzqtpoa1YS8RrxWMQMUwIQBfsIdq5oaJiOACwYTvgWOH95kM3/gOYCEBEkgcAhQYidNXrGkSEYi3wABKDIqRFwMOwqEG57B/PnXikJou1UeVJwKDiVtqytKtKyZw/rYSNF53b4Y6ixbpqsg7xzVbcF2Nq7bdfhEYMEMb0JwfiJ6FhGbhVjGSQWDAFG5Aw56eu3RDzcRGbLWZAiM+UaSCP+MIxHBDV1JH9fshVIEfBlYct22tCrULt5MACfiQAAWGDzuFVUp+An4QGBjk9+tg9IIORhF1yapgxr9QVxE+01Cu0ZhJBEyakCANPhJWWbWtru/mNpiNIDpWkzp3uz0b6heBAV5gjUzXSK43GRSWNphnMgiMQJt/UGdvmOMFh6W1ajMFhj8ExsTElK5gPNbvoJvB3fT2dZ5OcsBf6vTJw2+38QkJkID/CVBg+L+PWMMkJOAHgQFDpSVdxUDyvUdqpoBMu8EFEaTS0tI1Jn27cb5GaFenBYIGA4rb9zrk8f/f3t28VNVFcQC+OKlJHxSZipZJYSAiFDUJ6u8uaNZIDEFLsA8NDSqIHDjKUXsdCKLuNW/ecC197uQl69XfeZbC/R3P3nt7p1s/8a+fa9j/b6addxFrLuZuTvfOt0XrY3FhI3xlKhhxWXEnf2X1VTfXwy7ztBSMYa9ZwchRMGInsN12cyMOxIwNIfr9xi3WYsR5NfeWFnqz7ZT2X9diHfa97e8IEDhZAQXjZP199TMqkKFg/KTfaY9IxaMKsc3poNdEWwwdJ27P35lrazHGBv2zI33885ev3ZuK2EHmYzunInY8Co9Rv+KNycW2dmTy+njv1ux0W3Mx0a3rGPXXic+XrWDEY0PrG5vdY2l7e/23Ao3cp6lgxDXH93HsKjVo+9Of16xg5CgYMY84/HHz7VY7mX29W3geH/v9daGtx4qtsx8/etDtKKVk/C7kzwTyCSgY+WYi0RkQyFQwvh8cdLu5LK+sdQtm+/HH+oWFtqPM0uLdkezoEgtzY8ej91s73Z3L+HMsPI87msd9xeNPsbVuvCmZmhxvdz1n2q46l0f+WNSvObMVjMj2qZ138rqdQRI7eA1a83KaCkZcc5zxstFO945zUA67ZgUjT8GIGwyxrfTT5y/aTnDf+m4vHTcLrly+1HvSNpyYnLj2X3+W4/vIiwCB4wsoGMc39BkIDC2QqWBE+FiDsdoOxXvX3vAPenUnX8/f7j28vzjonwz98XgTGG+Ctz/s9j63x3r29/98TGvYTzreDs6LRypuzEy1/04d+zcuR/n6GQtGlLVwjTducWJyv98SnbaCEde81a752V+uWcHIUzDi5ytuciy/XOttvol1Q/t9f+TOtbNy4mc61mJcbTcMvAgQyC2gYOSej3QECBAgQIAAAQIESgkoGKXGJSwBAgQIECBAgACB3AIKRu75SEeAAAECBAgQIECglICCUWpcwhIgQIAAAQIECBDILaBg5J6PdAQIECBAgAABAgRKCSgYpcYlLAECBAgQIECAAIHcAgpG7vlIR4AAAQIECBAgQKCUgIJRalzCEiBAgAABAgQIEMgtoGDkno90BAgQIECAAAECBEoJKBilxiUsAQIECBAgQIAAgdwCCkbu+UhHgAABAgQIECBAoJSAglFqXMISIECAAAECBAgQyC2gYOSej3QECBAgQIAAAQIESgkoGKXGJSwBAgQIECBAgACB3AIKRu75SEeAAAECBAgQIECglICCUWpcwhIgQIAAAQIECBDILaBg5J6PdAQIECBAgAABAgRKCSgYpcYlLAECBAgQIECAAIHcAgpG7vlIR4AAAQIECBAgQKCUgIJRalzCEiBAgAABAgQIEMgtoGDkno90BAgQIECAAAECBEoJKBilxiUsAQIECBAgQIAAgdwCCkbu+UhHgAABAgQIECBAoJSAglFqXMISIECAAAECBAgQyC2gYOSej3QECBAgQIAAAQIESgkoGKXGJSwBAgQIECBAgACB3AIKRu75SEeAAAECBAgQIECglICCUWpcwhIgQIAAAQIECBDILaBg5J6PdAQIECBAgAABAgRKCSgYpcYlLAECBAgQIECAAIHcAgpG7vlIR4AAAQIECBAgQKCUgIJRalzCEiBAgAABAgQIEMgtoGDkno90BAgQIECAAAECBEoJKBilxiUsAQIECBAgQIAAgdwCCkbu+UhHgAABAgQIECBAoJSAglFqXMISIECAAAECBAgQyC2gYOSej3QECBAgQIAAAQIESgkoGKXGJSwBAgQIECBAgACB3AIKRu75SEeAAAECBAgQIECglICCUWpcwhIgQIAAAQIECBDILaBg5J6PdAQIECBAgAABAgRKCSgYpcYlLAECBAgQIECAAIHcAgpG7vlIR4AAAQIECBAgQKCUgIJRalzCEiBAgAABAgQIEMgtoGDkno90BAgQIECAAAECBEoJKBilxiUsAQIECBAgQIAAgdwCCkbu+UhHgAABAgQIECBAoJSAglFqXMISIECAAAECBAgQyC2gYOSej3QECBAgQIAAAQIESgkoGKXGJSwBAgQIECBAgACB3AI/AIRDD6oGoWSmAAAAAElFTkSuQmCC;" parent="5" vertex="1">
                    <mxGeometry x="20" y="30" width="57.19" height="40" as="geometry"/>
                </mxCell>
                <mxCell id="8" value="" style="shape=image;verticalLabelPosition=bottom;labelBackgroundColor=#ffffff;verticalAlign=top;aspect=fixed;imageAspect=0;image=data:image/jpeg,/9j/4AAQSkZJRgABAQEASABIAAD/2wBDAAMCAgICAgMCAgIDAwMDBAYEBAQEBAgGBgUGCQgKCgkICQkKDA8MCgsOCwkJDRENDg8QEBEQCgwSExIQEw8QEBD/2wBDAQMDAwQDBAgEBAgQCwkLEBAQEBAQEBAQEBAQEBAQEBAQEBAQEBAQEBAQEBAQEBAQEBAQEBAQEBAQEBAQEBAQEBD/wAARCADwAQQDAREAAhEBAxEB/8QAHQABAQEAAgMBAQAAAAAAAAAAAAUGBAcCAwkIAf/EAFUQAAAEAwMIBgcEBAkJCQAAAAABAgMEBREGBxIVIURkgqLB4QgTMUFRkRQiNWFjcYEyM3KhFyNCUgkWJDRikpOx0RgnN1SjsrTC0jhDU3N0g4SUs//EABwBAQABBQEBAAAAAAAAAAAAAAACAQMEBQYHCP/EAEURAAIBAwEDCQIKCAYCAwAAAAABAgMEEQUSITEGQVFhcZGhscEygQcTIjNCYnKy0eEUIyU0NVKCwhUWJCZDorPwNoPD/9oADAMBAAIRAxEAPwD6pgAAJE+0fa4ACQAAA1wAACRPtH2uAAkAAANcAAAkT7R9rgAJAAADXAAAJE+0fa4ACQAAA1wAACRPtH2uAAkAAANcAAAkT7R9rgAJAAADXAAAAAAAAJE+0fa4ACQAAA1wAACRPtH2uAAkAAANcAAAkT7R9rgAJAAADXAAAJE+0fa4ACQAAA1wAACRPtH2uAAkAAANcAAAkT7R9rgAJAAADXAAAAAkZe1Pf5ABl7U9/kAHtv4PU7WKvl4ABkHXNzmAGQdc3OYAZe1Pf5ABl7U9/kAHtv4PU7WKvl4ABkHXNzmAGQdc3OYAZe1Pf5ABl7U9/kAHtv4PU7WKvl4ABkHXNzmAGQdc3OYAZe1Pf5ABl7U9/kAHtv4PU7WKvl4ABkHXNzmAGQdc3OYAZe1Pf5ABl7U9/kAHtv4PU7WKvl4ABkHXNzmAGQdc3OYAZe1Pf5ABl7U9/kAHtv4PU7WKvl4ABkHXNzmAGQdc3OYAZe1Pf5ABl7U9/kAGXtT3+QAkAAAK8h0jZ4gCuAAAyIAACvIdI2eIArgAAMiAAAryHSNniAK4AADIgAAK8h0jZ4gCuAAAyIAACvIdI2eIArgAAMiAAAryHSNniAK4AADIgAAAAAAAK8h0jZ4gCuAAAyIAACvIdI2eIArgAAMiAAAryHSNniAK4AADIgAAK8h0jZ4gCuAAAyIAACvIdI2eIArgAAMiAAAryHSNniAK4AADIgAAAA1wAACRPtH2uAAkAAANcAAAkT7R9rgAJAAADXAAAJE+0fa4ACQAAA1wAACRPtH2uAAkAAANcAAAkT7R9rgAJAAADXAAAJE+0fa4ACQAAA1wAAAAAAACRPtH2uAAkAAANcAAAkT7R9rgAJAAADXAAAJE+0fa4ACQAAA1wAACRPtH2uAAkAAANcAAAkT7R9rgAJAAADXAAAJE+0fa4ACQAAA1wAAAAJGXtT3+QAZe1Pf5AB7b+D1O1ir5eAAZB1zc5gBkHXNzmAGXtT3+QAZe1Pf5AB7b+D1O1ir5eAAZB1zc5gBkHXNzmAGXtT3+QAZe1Pf5AB7b+D1O1ir5eAAZB1zc5gBkHXNzmAGXtT3+QAZe1Pf5AB7b+D1O1ir5eAAZB1zc5gBkHXNzmAGXtT3+QAZe1Pf5AB7b+D1O1ir5eAAZB1zc5gBkHXNzmAGXtT3+QAZe1Pf5AB7b+D1O1ir5eAAZB1zc5gBkHXNzmAGXtT3+QAZe1Pf5ABl7U9/kAJAAACvIdI2eIArgAAMiAJlp7TSGxln4+1VqJozLpTLGVREXFvVwMtl2qOmegDgddQHTS6NkvW825eQw4tZINKW4N8zVUz8UEL/6NW/lMX9Nt+aaKrPTEuejzwyRc4mhn2ejQiCr/aLSLkbG4nwj4r8S1PU7WHtS8H+Byf8AKSVGFWR3TWpi0n2Ldipcyn/iTP8AIZEdHu5fR8UYk+UFhT4yfczOrvXvSfqUFdJLYcq5lR9pSSdPeTTDn94vR0O5lxaRjT5T2ceCk/d+Z6jt1fXEERlK7ES/xI34uLputDIjyfqfSmu4xpcq6X0ab70Upbbq92XpcUuOsi+pynqZMiWyKle/0g/HwFx8nt26fh+ZZXKx530t3b+RyDvfvjh61shY2Np2YZtFQ1fobDlPMWpcn6vNNF+PKug/apvwPa1fleehP8qukkyz1e1Kj/34VItPQblc68fwL65UWb4xl3L8SQq+O3jJl11zEW6Vc5ws9hF0/tDQLb0S7XBLvLi5S2L4tr3Hiq/mcsU9KuPtsXibDstdIvKKIzFuWkXcfo+KL0eUGny+n4P8DnSzpNyWXddlO6q8qGJVDqUiS+WatfuXVn3i09Nu19Bl+Os2EuFVFBHS6uqQrDMJTbyXn3+kWMmdC+qGVF+YtuyuY8YPuL0dSs5cKse9HsR0xOjtiwRVvnIFWapR0mj4anzNxkiIWnQqx4xfcX43NGXszT96JcL0m+jzFrS03fPZBC19iXpq00fksyFtxa4ouKUXwZp5defdrOCrKbw7Mxv/AKebQ7n+6sxQkbazMbBxaX1wkWy8k8NDbcJRH2+AAvAAAMiAAAryHSNniAK4AADIgAAAAAAAK8h0jZ4gCuAAAyIA6d6YqVK6Ll5yknQ27OxTpH+BOLgKp4eSMltJo6blKYKbyOXxj8Kw8mJhGXfXbJRHiQR95e8e7U9mrTjJrikfK1bao1pRTxhteJx4uw1iY8jKNsdI38WY+sl7Kq+aRSVpQn7UE/cicL+6p+xVkv6n+JLduguvdzpsLKGD/ehocmDL6t0MY8tKsp8aUe7Blw13U6fCvLvb8wV1lmGCIpbHWkltDqXoVo49mn0J6n5Cy9Fsnwi12Nr1MmPKbU48Zp9sYv0OQix09hCpKr2rfQfhim5RJF9H0LFp6Fbv2ZSXvz55L8eVV4vbhB/048mj2tQd70FmgL85s6XcUwk0BEfmltB/mLT0Jr2Kz96T9EZEeVefbt4+5yXqzkNz3pBQX3Vu7HzEiLsjLOOtGZ/NqJp+QtPRbiPs1U+2P5l+PKi0ft0JLsn+MTkNXk3+wdPS7IWDmhEef0eaxcIoy9xLZcL8xael30eDi/e16MyI8oNLnxU4+6L9Ucxu/C8GGURTa42OcT3rlk+hHyL6O9UYtOzvo8aWeyS9cGRDVtLnwr47Yv0ychrpHSdlBrnd2d4Msw/aM5KUURfWGccFmUbiHtUZd2fLJlQr2dR4p3EH78eaRzobpJ3NPKJuMtW9Kln+zNZZFwVPmbzaS/MWnXjH2012przRkRt5T+bal2Si/Jmpk15t3NoMJSK31no5SuxMPM2Vq8iVUVVelLhJFJW9aHtRfceU6vKu7s8lX8YLe2el+HtKJmbLZ+RqqDrUo8ZIRt6s/Zi+4wc76RvRtaxIjraySZq7DTCQTkcZ/wBk2sR24VOCb7E35Il8XUpe1JR7ZJebRgZ9ff0Uo/GS7p4ifGrtNuxGZR/ieQgS/Qp1eFvJ/wBP44If4nSoe1eQj/8AZ+DZio68jo/rVWR9FScIVT1XGzhJZT6tvkovIP8AL9arwte/ZXqR/wA22tDjf9ym/wC0nO3sx7BYbI3Wz+Rkk6pP9KEzZpss4iEv8oV6nGjGP9b9EQfwh2lHhcTl2U16tHpK/HpNM+pZ+8iNkiO4np7GzUyL/wCQVDElyEnP2pxj2bT/AAIS+FSjT9inOXbsryybO42/vpInfNYKyFsb2itHKrRTV2DjIVySwrJ9UmFedqlxCcZUNtPeNNr/ACXholtGv8btNvGMY5m+lnRck+XFTlPeztviVCMY7Wc5fFLoXSfQsceeiFeQ6Rs8QBXAAAZEAAAAGuAAASJ9o+1wAEgAABrgB1J0uIT07ovXrQuA147IzQ8JHStIdZ8AB+Tbo43KV1dj481VN+RQKjOvf1CB7hps9uzpS+rHyPl7WafxWo14dE5ebNaM01oAAAAB4PPNw7LkQ8okttJNa1H3JIqmYo2orLJRi5NRXFmagbzbCzBbLTFoG0LiDSlpLzTjJrNRkSSLGku2pU+YxY31CWMS49Ka8zZVdFv6KblTeFxxh8Oxs1AyzVgAAAP1ioecveAJcys1ZuYoWuY2elkUZEZ1ehG1nmL3kLU6FKftxT9xkUrqvSf6ubXY2j8b2HdkEHYSWz2Il0K1ibwqW3DJNalG6aCLMVTMzoQjosaK06lV2Ut3QunBf5Qq7r61XtYTb3vc5PGMZ53jci+i0bSZlBytyVR8Ocb1hMrdQlCTNCcRlTFiLN7ht1WSkoYayaSWnSdGddVIy2MZSbb3vHRjxPFU0nMXMo2XyuDgsMEptC3Yh5Wc1IJWZKU9xH4ijnOUnGKW7pKq1tqVCnWrylmeXhJczxxb9Ccu0kziLLSuZtGxDxcyjGYU1JQa0IJbpoMyIzz5iqVRb+OlKlGS3NtLxM2OnUKd/VoSzKEIylxw3iOcNrrPPrZzLrWymWxE9ei2I2HinHW1stoKrZIwmWFJH+0feK5nCrGLlnOejqI7NtcafWrQpKMouCTzJ8c54vHN0ElWOPktqJ1Fx8epcHFxrUMlEW4hDaWyIkkSUmRZjqLPtwqTbe5vG98xsFihc2ltThHEowcvkpt53ve03wO37gVKPpX3LQWPOcfMnTrnM8Eud/6u0cby/ni2oQ+s/BHY/BPBSvrqp0RXjL8j6yDy49yJE+0fa4ACQAAA1wAAAAAAACRPtH2uAAkAAANcAOv+kFL0Ta4e8aWuKwpiLKTVBn4VhHAB+FujbFem3C2EiKUrJYdFK1+yWHgPaNDltadRf1UfNXKeGxrNyvrs7JG1NCAAAHW9rLyLQSS08ZJpZASx6HhEMmZxCnCWpS0YjzpzEWcu4YbqV51ZQp4wscc8+86Ky0m3uLWNarKScs8MY3PHOZ+Z3zziLs3NyfspDFSHi2CWzMDOhpJacVFNl3lXtGNUubidvOWwt20t0ujK6DYUuTtGnc00qz4xe+PTh8zZjpVGxbj8mg35XGM9ZGy9vEZoUj79os5pUdOzwEalafxEKcoNb4LO7HFdDNzXpQXx1SM0/kzfPng+o/TJ9o255oAAAAAeD33Ln4D/ALgfAquKPwRZWJxXNy91JmfVx6U1+UwGBocs6PTfX/edHrVPHKitF88X/wCI2doFUtZZgvF2ML/YGN5V+ep+/wAjl7BZ0+77IfePOQuVmtpXK/YjkJ/qwzX+IrSfy5vr9ERvo4oWsfqvxnIzsMsv4lWLznR2YQR9nialDGj8zS7Ubion/id91Qn6ItTNVbxJA3Xsl8cr82iF+f7xDsfoay2X7HuH9en/AHECDdP9HVoHyPPETSNL+tFYRjxf+nm+lvzNtWj+2baP8tOn4Qyd29Gxn0rpr3TsYy/k0HPInD8oQ08Rw/wgy30I/a9Dt/gjhuuqn2F94+rw82PZyRPtH2uAAkAAANcAAAACRl7U9/kAGXtT3+QAe2/g9TtYq+XgAGQdc3OYAZB1zc5gBl7U9/kAMzedMsoXbWsgPRKekyOPZ+1X7UOsuymftAHz96I7xv8AR1sUZmR4INxvN/RecIexcnHnS6PZ6s+c+WUdnXLhda8kdvjdnMHHjo+BlcI5HzKLZhYZkquPPLJCElWmczzFnMhGc4047U3hFylSnWmqdNNt8y4nVV5NrYSYzqTQtnbU9Yz6LFOulLpiaaqxNEnF1aqnQjVSvvGBOpSua8YRnuw3ul1roZ1GkWM6NGrK4pb8xS2o9Us4yuw6+ah4qOm81iomcTRTpxLaMa3ycMyJlulcaVV7RC3tm6tVxnJYa50/orpTOgnUp0aNOKpxxh82PpPoaJL0PHlY+YPIm2JS24xRk7CpOtVud6TT4+AxdiurCclPd8riut9GDN26LvoRcN/yeD6l05LLsVOZPFSyISzL4wmZhCKw41s1wOJVTsX+6Mi5/SowhFqL+VHpXP7zDVO3uI1YpyjmMuh8V7juayd5C7RztMhipAuCfXDuRCXExKXmzJBoIy7EqI/XLu8RmQr1PjVSqQw2m+OeGPxOMvtIVnR+PhU2llLg09+e3o6TmXixsfDyFmXyyJXDRE4joeWFENnRTKHVfrFpPuUSCXQ+46Cl7KWwqcHhyaWejPHwI6Hb0692nVWYxTljpwty78ZPTIIr+Ls6esvFTBa4BcKUZALinjUtoiUSHGjWo6qIjUg0mZmfrGXcQrFK1qui38nGVnm5ms92DL1i0jUhG6pRw28SSW7pTwuHPk1yVJWkloUSkqzkZHUjGUnngc61jczxe+5c/Af9wo+AXFHz1se9W45Z1Iupmzia/KPI+I1HJ+WdGj1Sf3zsddh/ux9cP/yZ2HaNRla2ypZ878Z/+BjpK3z1P3+RxWnL9n3fZD7542fcMztU7nKkzfItllsuAUn84+t+SJX8cfokfqR8ZSIbRYbIWBbr2xsB3/DUYsL5mj2ryNpLfqOoP6tTzRbmBl+kmRl3lLI0/l67QvT/AHmHY/Q1lv8AwW4+3DykZyAqq601JP8AnU0UdfcuPGPD917X/cbmvu13D+jT8qR3r0WVKPpwWIdJnrEwNm5w+eeh+sjBxHAfCBL/AFFGP1X5ne/BHDFncz6ZRXcvzPqJl7U9/kPPj10e2/g9TtYq+XgAGQdc3OYAZB1zc5gBl7U9/kAGXtT3+QAZe1Pf5ACQAAAryHSNniAK4AADIgCZakjOzE3IjofoERQ/D9WoAfPbobrWvo62Wx1qk4tOf3RLg9e5MPOl0vf5s+eOW6xrtf8Ap+6jtG1UrtBN5U7A2etCmTPupNPpPovXLSR/u1UREfvzjfnMUZwhLanHK7TD21ZvIlNgIkpnFSScHLzYiXIv9ZDuLSy8hdVIopJ/ZzmRlmqYxrvZVFylwWH3NM2+kzou/h8Wmm8pLm3prj7zgwkJayMdfK8C6uRTRtS8TL8tNlxSU+BpdoZ/Mj+gyp21Kr85BP3I6KFxVpfNza97Ido4excmZceg7obXNvKPEZQCXGEmqnaZtuGXcXcYxnpttHfCLj2NryZkf4hcS3Tkn2pPzRx4GR3WTmRmyVs51IEOtKS7BzGIQhxo1Z1EfXoMzzmecjFp6XTdN0o1JKL5sp+aZcWozVRVJU4trnw15NHoYlNlrSzhMlkN70DFxcK4iIS2/AoMnDKuZK0KQSu3OSc4Tsq02sVs4ed8V6NCF3RgnmljKxuk/XJsZFYm3lm52mdwcws9GKTDOw2F1p9oqLUhRnUjV/4ZeYO1vPjVUzF4TXOuOO3oMS7hZ3dD4h7UVlPmfBNdXSX5hC25n8M3CTFNnYZDbzUQh5g33VoW2olJUkjwlWpePiJytrqrhT2Vhp7svh3GDa2NrZVfjacpN71hpLKfNznunE4lSnVtO2XmE4NpSmcUPLvSEErNiRiPMXdWpkVS9wu17mjtOMoOWOhZMmM403iVVQfHe8H8sFZ+ZQExmU7iJSmRQcahtuGlDbhHgwmZqecJJmhLiqkWFHYSSqZmebGtaUlUlV2diL4R9Xjdl9RpdbvqF0oUqT23HOZ4455lne0us2a/sK+RjOZoFxPnbZMz/QfOTzUanESZV7iKMSY0nJ7+DP7UvvHb64v920+uEf8Axs7HtGZHa2yR+L8X/wAOY6et89T9/kcPp38PvOyH3zjyBwillrnqUpM44z+jaS4CFJ/JqPrZdv4/r7OP1Kfi2SzLDZi7tBERVjIHN/7CzFr/AIqPavI2HG+1J/VqffRYmSkleVKVGeduTRiv9o2L8/3mP2X6Gttk3olbrqQ8pGflSf8ANNJCp9/Gwqj2o0jGPT/dIdq+8be6f+4K/VGfhTaO++iCwqK6bcM6RqpB2GjF07vWiUFxIec8vpZvqceiPqz0f4J4Y0qrLpqf2o+lA4U9SK8h0jZ4gCuAAAyIAAAAAAACvIdI2eIArgAAMiAJ9ocP8X5njOifQ3qmfcWAwB89Oh1/2ebNUViLHGZ610lwevcl/wCF0/f5s+eeXH8drf0/dR3SN+ckceYQMNNICJlsa3jh4tlbDqfFCkmRl5GIzgqkXCXBlylUlRnGpDinle4z938rttN4eKs1DyBUzmVn8DD/AFUYwh19ilGokkOKTVKyLOZGdFEou4aKfKKlpcla3kZZXOsNNdPHv6z06y0mWtUf0yzlHEuKfGL51+HUaSY2RvAl0ri4+Nso7KkoaUhqJjXWXWkvKIybNSGXTWpOKlaUzd4uU+UFLVNq2sW1UaeHJbsovT0Opp2zcXqTpprKT34J0S1DxZUiIZhZGlONGHEjFQsWHFnpWtK56UG/to1VRirhpzxvxwyaS4dJ1pOgmoZ3Z44IMfd9YaZnijrIyl1X73oqEq8yIjF5xTLO0ybG3R2IjGjYKEj4dBlTDDzKIQnyx0/IUcEV2mZ6YWPcseiEsxYO2FoGJjM1mUJBKiEPtMoI/wBY+snEGaG0kdToZVMyIs5jCurj4jFOnvnLgvNvqX5FxOEacq9bdCPHrfMl1v8AMv2TuwtTY2bnMYO8aMmcOtKkOQUwh6tqxKNRqSaVFhViMzrTvOtRKEFBYicrdX8bzfUhh9KOxk4sJYqVpnp2VEjXH8X9hXyMAj51WT/0GWlMj+zNY1WY69kQkxouTv8ABp/al5nc67/8uofYh91nY9oDNVrLHmVM7sWZ/wD1zHUVfnqfv8jh7Ddp972Q++cOWOdVZu2btT9WPmR+SBCDxTqvrkZNzHavbGP1KXmcaKQaZdd0yVa+lwxnm8IVZiMvZorrXkXqTTranL6svGojlzl3BeGTtSpC2binD91XU/8ASJVHi5z0RfmY9nDa0fZ/mrRX/V/iToNvqrrLKtn+0/KzPN4vIMW4rFrT/p80ZlaW1r12+qr4RaP0P0GoZ2M6YNrIytW5dYdpo/cpyKQfAx5hy5ntaol0RXqer/BdT2NDcumcvRH0WHGno5XkOkbPEAVwAAGRAAAABrgAAEifaPtcABIAAAa4ARbaqSixs+WojwplkUZ0Oh06pQA+a3RBYKH6O1kSIjInGohwiMqHniHB7ByaWNLpe/zZ87ctZbWu1+1fdR3GN6cqABwomDjG5jCWgkUzdlU7l1fRI5pJKMkn9ptxJ5nGlULEg/AjKhkRlrtS0uhqdLYq8VwfOjc6Lrlzodf42g8p8Yvg/wA+hm9hL+YSKlTsivYsjHQZPNm07MJQyuNg3P6eBNXmj76GlRF+8Y4SpoupaTXVeitrZeU16riesWvKnSNZoujWnsOSw1Ld3Pgdazy0d3svcU9LLw5DGQZn6qlRaWXkl4LacwrSf0HcWHKG3uoqNf8AVz51Lcvc2c7eaLWoPboNVIczi896RCdvHsI2eFNqpe+vuRDOdes/klupmNjLUrSP/In2b/IwP0K4W+UGu3d5nidoLSz4uoshZqIaQvNlGbtqhmEF+8lo/wBa4fuokj/eFqV7VrbraHvluXdxfh2mLVuLO0316ik/5Y7373wXj2FqzFkYWzpvxz8W7MZtHU9MmD5ETjtOxCSLMhsqnRBZi7c51MKFuqTc5Pak+Lf/ALuXUc3qGpVdQkk1swXCK4L8W+dsvjINaAB/D7DAHztsp69yFqzIyMjmUxOviXXlnGj5Pfwef2p+Z3Gu7uV1t9mn91nYM5oq11jk5zomMXUj+ARcR09T56l7/I4qz3afev7H3mTDX1NibcrpnKLmZ9vikWc4oVe2RnbO3qdgvq0vM5U0awTKwMHh+w8pVPDBCK/xE5r5VFf+8CxayzR1Gp0peNRHEtG91Vq7RxVf5pZQ/oaluH/yiFZ4qzfRD8TI06G1YW1P+a48lH8TkRLPo9hbKQpJ7ImUpptIPgJNYoU19ks05/Gardzf8tbyZ+n/AODchTiekze5M6HSEs9KoStM3rrNf/IPJeWctrV5roUfI9r+DeGxyfpPpcn4n0fHKneEifaPtcABIAAAa4AAAAAAABIn2j7XAASAAAGuAGdvGYj4m721ENKoZ2JjXZNGohmWiqtx02FkhKS7zM6EXzAHzfudnsoununsnYi8Yo2yc2lsuQzFMTuXREASHampREt5CUKzn2koyMeqaHq9hTsqVCVVKSW9Pd5ng3Kjk/q1bU691GhJwlLKa37vdvO1ZZOpNO2SiJNN4KPaMqkuFiEOpP6pMx00KsKqzCSa6jiqtCrQezVi4vrTXmc0TLQAAAet2HYf+/Ybc/Gglf3ijinxJKTjwZ/WmWWczLKG/wACSL+4EkuAcnLizzFSIAAAAB4PqwMuK/dQZ/kKPcisd7R87rGEargZ88Z1OIiZg5Wvi8NLydX7Ek+ly8ztdef+8aK6FTX/AFOwpiVbb2UbP9iCjV7jZcR0s/n6a6n6HG2+7S7x9MqfnJkeZEaLE23bI87kwi2/6xoLiLM/mKvazY22/VLB9EIPuyy1Nm624srDEWZiGjXflRCEcRfqL9fTXQn6GstZfsu7n/NKmvGT9DPWoWXX3ixp5yZk8PCl8zbWqm+Qx6731pdSXgzb6Yvk6bT6akpf9or0NBP2iRKbMQpFSkygEkX4UmfAZFVYhTXWjU2E83F3U+pU8d3qfrL+DFgCXeLfnOCXi/lUlhC92GHdUZfmQ8b5XPOsVvd5I99+D+Ljyet8/W+8z9/jmzsyRPtH2uAAkAAANcAAAACRl7U9/kAGXtT3+QAe2/g9TtYq+XgAGQdc3OYAZB1zc5gBl7U9/kAPYxNzfXgKEMtrkAPdHS6BnEOcPHwrMQyeY0OJJaVF8jzGAOrrW9E/o62xdOKm908iYjO6NljJy+JI/HrYY0Lr76i5TqzpPMJNPqeC1VoUq8dmrFSXWsnW096EjcCk3Lsr9bbWeWkzNELNVszqF9yaPpJ0i+TtRt7flDqVv7NVvt3+Zzt3yP0W83zoKL6Y/J8tx17PLnelfYxSlsS+wV4EEjOlUBHOyeNUX/lPkto1fJwiG8t+WteO6vST7Hj8Tlrz4NLWe+1rOPVJJrwwzBzO9+Mscs2b0bp7eWPNH24iJlCoyDL3lEQpuJp7zoN9b8rrCruqZg+tbvDJy138Hur2+XR2ai6nh9zx5lmy97F2dtUpOy1u5JMVK/7pqMQTpe421GSiP5kN5b6jaXSzRqJ+/wBOJy93o9/YPFzRlHtTx38DWd1e4xmGtAAAAAAA48wVgl8Uv91hw90xGe6LJ01maXWj582MZUjo6uV9U4n0hZbUSZENVoEXHQo9efvM63W5qXLP7Oz4QOwoxs1XgSXN9zKoxX1NbJDo5L/UR7H6HHUpY0iv11IeU2SJqyo7O2gY/wBYn6EFX+k8yQszX6ua6ZeqNjazSvLaf8tFvujMqzCIh2bxIR2KiWmWoaTvqNTiySRGt5Bdp/hMXZtK4Tb4RfmjAt6c56PONOLblUjw38Iv8TMzZaJlZu38fBmUS3FxiGGlM/rMaUNtJzUrXOZ9gxqny6daS35fojd2idve6dSqfJcYtvO7GXJ8/DmNHFzJmezCRw0sg45xuFjkvuurg3W20oS0siPEpJF2mQyZTVWUFFPc+h9DNNSt5WNK4nXlFOUWklKLbblHmTfNk/ZP8GsRS2Bvcm/oxLOOtYyxirTMzBNe7xcMeL8qXnV6/avJH0HyFWzyetux/eZ+0cvanv8AIc+daPbfwep2sVfLwADIOubnMAMg65ucwAy9qe/yADL2p7/IAMvanv8AIASAAAFeQ6Rs8QBXAAAZEAexlzqlkqqiLvoYAutPstQvXJKhK93aBRszU7th6GRk23XNmE1Eg5GFmlvo1xJlCuLRQqZz7RcUC05mYjbZThwjSpaiIz7s1RLZRHbbM5GWjmrpUcjF0qZEmorgi5M64tpdVdhb4nDtfd5IZi4s/wCcHBobfL3k6iiiP6hhFNp8Dr6J6N8uk3WOXZXo24sctH3cM1MzjoMle9mIxFT3Eohm0NRvLb5mrJe/K7may70bTb794oRk+nGH3rDOJ6B0rrKmfoE+sTbyGbIvUjIZyVxay/Eg1N1+g3dDlZf0t1VRn4Pw3eBzN38H+k199FypvqeV3Pf4n9/T7bOzdCvMuAtlJ2yKq42VIRNYUvE8TR4iL6DdW/LK3lur03Hs3r0Oau/g4vIb7WtGfU8xfqi1ZzpLXH2ndTCwd4Uug4pWb0WZYoJ4j8MLxJzjdW+vadc7oVVnr3eeDmbvkrrFlvqUJNdK+UvDJ2RCRkJHspiYGKZiWVFVLjLhLSZe4yzDaxnGazF5RoJwlTezNYfWeidqJElmCzrRMI8eb8BiNXdTl2E6CzViuteZ+H7AWeXN7lZLJm4lMOqIhm3icNGMi/XdZnKpVrTx7xZ0OhtaPRp54rPjk2ev6grTlPXuZRyoyaxw+js8d5roGQRjc6KfTSbelxCIZUK2hEOTTaEKUSjzVMzOqS7TG5jSlt/GSeXjBzte/pytv0ShT2YuSk23ltpNLmS5+gkTpF3cpi3Y+0NoIeHUuIKLNqImZpbJ0qGSiaxEVapI+ztIYlxXsbZuVeolz75emTY2T1m7pqlZ0XLEdnKhl46NrGefpIkwveunmEwbRCtLtFHkXVtJgZWuKXQz7Enh8fAae55WaNSeXPafUs+Ju7DkPynnDYpxdOL6Z48E8+BsrOyjpBWzI27uOi5biLZKmB6OhcnMmR9hkbhEVOzvGnrcv7eG6hRb7Wl5ZN/b/BReVvlXlyk+pOT73g7FkfQ56d9rs79mLDWLZURGSplMjiXS92FnGVeztoNPX5e38/moRj3v1Ohtfgp0qlj4+pOfdFeCb8T9ddEO4q2Fwl3k0s/b20UsnU8nM7em8TEy9pSGSxtNNpQRKIjMyJrtp3jj7u6q31eVxWeZS3s9F0+woaZbQtLZYhBYW/Pid5DGMwryHSNniAK4AADIgAAAAAAAK8h0jZ4gCuAAAyIAACxA0ioPqmyIltHQypmMjAo0Zqe2cN7Eo0qqfclPeLikW3Ew01sq+2s6pzn7qUzCakW3Ey8dJXmTOra6lnIqcRLJBohxUIkjMnEVV7y7CEiJMel5rxdUeFNe2uYwKYOFEQb6TUSUYjLwPt94DB6CbiHFHiL1iLOdM4FDxbecxrZccNDdKGXZ9KioIk/sbYq1zJw9pbISWctUpSNgW3j8zIzL6CjSfEqpNcDrWJ6KV2bT6o+xjloLGRSiqT9n5u9DpI/HqzNSKe6gu0q9W3eaM3F9TaLFxbULtbNxTjNdaTPTFXZdIqTwMTA2Xvqlto4N1lbHo1ppWSXDQpJl/OGKKrn7TIbelyj1GlHYlNSXWvVYZztxyM0avNVIU3CSefkvd3PKOurLdGW/+GkUBIY28Ky0ghIGGRDoOAgXIx4ySVK4nMKamL9PlXqVGhC3ouMVFJbll7u0xqvIPRbi7qXlypTlOTk05YW/sx5mrgehfIZr1Z28vctpPFFTrGWYhEGwr3YUkdC+o1dxqt/d/PVpP34Xcje2ehaVYfu1tCL6cZfe8s7EsP0VOjtYx1EUxdPJ5u+lwz6ybm5GKPtrmcUafyGtcE97NwqjSwj9L2EtBZ2xbLcFZ+xUhkjBZkpl0A0wXyLAkvcKOmiaqM7Qlt5ULEKS0+SiWfiXaIOBcVQ1cHOYaMSSkKLP4GIYJqRKi4JcIZVUSiV2GQoSOMAK8h0jZ4gCuAAAyIAAAANcAAAkT7R9rgAJAAADXAAAJM8UpPo5pUZH63Z9ABw2Jk80f6widTSlFdvmAPYp2XRST9IQSTUdDIyqVBXJTBwpjYiDiam0Rtnn95VElLBBwMrM7tXXCUTayX2fZIir9DE1Mg4GJmdgYuGNWJpbRJMyqZHQ/kJKWS24NGbmFnYxgqE0rPnNWfs4iWSLRLcgon7KiJBFSh1oKlMHDiYQnlmk0qNOaqiLtAocVcAtKez1Ud/j8wyUP4iXOqLElSVJLw7iAHicM80ZGrMRERZ69gA/qCMlJSiqjSefvoAOYxCIxpNpB4VdpnQyICuCvDyGL66qEEaOwl0rQUyVwaqTWNjnlJVgMyM69lc4o5E1Fm+klj3k4fSGlKNX7XgXuFtyLqibCXSNiXEajcIiLOozOgg3kmol5KSSkkl3CJM8gBIn2j7XAASAAAGuAAAAAAAASJ9o+1wAEgAABrgAAEifaPtcABIAAAa4AeJpSfaRACfMjhWVMk8wlSXDOp07KU/xDJTBJi5JIpo2sjJKC7MNcP1ElJoi4ZM7MrsYGLI1Qi2iMyzKpUSUyDpmPml0kyaJRsIIkUqZJMTU0QdNmZiLDTKFqnq1VIzIzpWollENlnDbspGYzWbWHEVTKnYQrkpsnLh7KOumpg0rPEXZnoQpkrslmAu4ioihlAFgV61VFStBTaJKDNNLLsCQjq1JJBGWKlK5z7qiLmSVM1sssLCQjZINs107a9hiDkTUC4Utl8vJKnEpQfdQu0RyT2TwjJkhSCahakXedKChInmtavtKM6585gDWAAAJE+0fa4ACQAAA1wAAAAJGXtT3+QAZe1Pf5AB7b+D1O1ir5eAAZB1zc5gBkHXNzmAGXtT3+QAZe1Pf5AB7b+D1O1ir5eAAZB1zc5gBkHXNzmAGXtT3+QAZe1Pf5AB7b+D1O1ir5eAAZB1zc5gD+pkZoMlJjTIy/ocwB4HO0q7YLf5AD1LjYGIPC/Lk0PNXtp+QZKYR/GpHIo9Sltw5GaM2dObPXmJbTKbKOQ3ZuXNKxIaQR950zimWNk5jcuhmiolJU+QZK4OOU1hk1JLJ1pmLxFCuDwOeKSeE4I6l/S5AASss5vuia2sVfLwAH8yCX+tn/V5gBkHXNzmAGXtT3+QAZe1Pf5AB7b+D1O1ir5eAAZB1zc5gBkHXNzmAGXtT3+QAZe1Pf5ABl7U9/kAJAAACvIdI2eIArgAAMiAAAryHSNniAK4AADIgAAK8h0jZ4gCuAAAyIAACvIdI2eIArgAAMmlxSOwAe5UVjSSVNl7zrnMAc+RHX0jNT7PEAVwAAGRAAAV5DpGzxAFcAABkQAAAAAAAFeQ6Rs8QBXAAAZEAABXkOkbPEAVwAAGRAAAV5DpGzxAFcAABkQAAFeQ6Rs8QBXAAAZEAABXkOkbPEAVwAAGRAAAV5DpGzxAFcAABkQAAAAa4AABIn2j7XAASAAAGuAAASJ9o+1wAEgAABrgAAEifaPtcABIAAAa4AABIn2j7XAASAAAGuAAASJ9o+1wAEgAABrgAAEifaPtcABIAAAa4AAAAAAABIn2j7XAASAAAGuAAASJ9o+1wAEgAABrgAAEifaPtcABIAAAa4AABIn2j7XAASAAAGuAAASJ9o+1wAEgAABrgAAEifaPtcABIAAAa4AAAAEjL2p7/ACADL2p7/IAPbfwep2sVfLwADIOubnMAMg65ucwAy9qe/wAgAy9qe/yAD238HqdrFXy8AAyDrm5zADIOubnMAMvanv8AIAMvanv8gA9t/B6naxV8vAAMg65ucwAyDrm5zADL2p7/ACADL2p7/IAPbfwep2sVfLwADIOubnMAMg65ucwAy9qe/wAgAy9qe/yAD238HqdrFXy8AAyDrm5zADIOubnMAMvanv8AIAMvanv8gA9t/B6naxV8vAAMg65ucwAyDrm5zADL2p7/ACADL2p7/IAMvanv8gBIAAAV5DpGzxAFcAABkQAAFeQ6Rs8QBXAAAZEAABXkOkbPEAVwAAGRAAAV5DpGzxAFcAABkQAAFeQ6Rs8QBXAAAZEAABXkOkbPEAVwAAGRAAAAAAAAV5DpGzxAFcAABkQAAFeQ6Rs8QBXAAAZEAABXkOkbPEAVwAAGRAAAV5DpGzxAFcAABkQAAFeQ6Rs8QBXAAAZEAABXkOkbPEAVwAAGRAAAAB//2Q==;" parent="5" vertex="1">
                    <mxGeometry x="140" y="20" width="54.17" height="50" as="geometry"/>
                </mxCell>
                <mxCell id="10" value="" style="shape=image;verticalLabelPosition=bottom;labelBackgroundColor=#ffffff;verticalAlign=top;aspect=fixed;imageAspect=0;image=data:image/jpeg,/9j/4AAQSkZJRgABAQEASABIAAD/2wBDAAMCAgICAgMCAgIDAwMDBAYEBAQEBAgGBgUGCQgKCgkICQkKDA8MCgsOCwkJDRENDg8QEBEQCgwSExIQEw8QEBD/2wBDAQMDAwQDBAgEBAgQCwkLEBAQEBAQEBAQEBAQEBAQEBAQEBAQEBAQEBAQEBAQEBAQEBAQEBAQEBAQEBAQEBAQEBD/wAARCADwAQQDAREAAhEBAxEB/8QAHQABAQEAAgMBAQAAAAAAAAAAAAUGBAcCAwkIAf/EAFUQAAAEAwMIBgcEBAkJCQAAAAABAgMEBREGBxIVIURkgqLB4QgTMUFRkRQiNWFjcYEyM3KhFyNCUgkWJDRikpOx0RgnN1SjsrTC0jhDU3N0g4SUs//EABwBAQABBQEBAAAAAAAAAAAAAAACAQMEBQYHCP/EAEURAAIBAwEDCQIKCAYCAwAAAAABAgMEEQUSITEGQVFhcZGhscEygQcTIjNCYnKy0eEUIyU0NVKCwhUWJCZDorPwNoPD/9oADAMBAAIRAxEAPwD6pgAAJE+0fa4ACQAAA1wAACRPtH2uAAkAAANcAAAkT7R9rgAJAAADXAAAJE+0fa4ACQAAA1wAACRPtH2uAAkAAANcAAAkT7R9rgAJAAADXAAAAAAAAJE+0fa4ACQAAA1wAACRPtH2uAAkAAANcAAAkT7R9rgAJAAADXAAAJE+0fa4ACQAAA1wAACRPtH2uAAkAAANcAAAkT7R9rgAJAAADXAAAAAkZe1Pf5ABl7U9/kAHtv4PU7WKvl4ABkHXNzmAGQdc3OYAZe1Pf5ABl7U9/kAHtv4PU7WKvl4ABkHXNzmAGQdc3OYAZe1Pf5ABl7U9/kAHtv4PU7WKvl4ABkHXNzmAGQdc3OYAZe1Pf5ABl7U9/kAHtv4PU7WKvl4ABkHXNzmAGQdc3OYAZe1Pf5ABl7U9/kAHtv4PU7WKvl4ABkHXNzmAGQdc3OYAZe1Pf5ABl7U9/kAHtv4PU7WKvl4ABkHXNzmAGQdc3OYAZe1Pf5ABl7U9/kAGXtT3+QAkAAAK8h0jZ4gCuAAAyIAACvIdI2eIArgAAMiAAAryHSNniAK4AADIgAAK8h0jZ4gCuAAAyIAACvIdI2eIArgAAMiAAAryHSNniAK4AADIgAAAAAAAK8h0jZ4gCuAAAyIAACvIdI2eIArgAAMiAAAryHSNniAK4AADIgAAK8h0jZ4gCuAAAyIAACvIdI2eIArgAAMiAAAryHSNniAK4AADIgAAAA1wAACRPtH2uAAkAAANcAAAkT7R9rgAJAAADXAAAJE+0fa4ACQAAA1wAACRPtH2uAAkAAANcAAAkT7R9rgAJAAADXAAAJE+0fa4ACQAAA1wAAAAAAACRPtH2uAAkAAANcAAAkT7R9rgAJAAADXAAAJE+0fa4ACQAAA1wAACRPtH2uAAkAAANcAAAkT7R9rgAJAAADXAAAJE+0fa4ACQAAA1wAAAAJGXtT3+QAZe1Pf5AB7b+D1O1ir5eAAZB1zc5gBkHXNzmAGXtT3+QAZe1Pf5AB7b+D1O1ir5eAAZB1zc5gBkHXNzmAGXtT3+QAZe1Pf5AB7b+D1O1ir5eAAZB1zc5gBkHXNzmAGXtT3+QAZe1Pf5AB7b+D1O1ir5eAAZB1zc5gBkHXNzmAGXtT3+QAZe1Pf5AB7b+D1O1ir5eAAZB1zc5gBkHXNzmAGXtT3+QAZe1Pf5AB7b+D1O1ir5eAAZB1zc5gBkHXNzmAGXtT3+QAZe1Pf5ABl7U9/kAJAAACvIdI2eIArgAAMiAJlp7TSGxln4+1VqJozLpTLGVREXFvVwMtl2qOmegDgddQHTS6NkvW825eQw4tZINKW4N8zVUz8UEL/6NW/lMX9Nt+aaKrPTEuejzwyRc4mhn2ejQiCr/aLSLkbG4nwj4r8S1PU7WHtS8H+Byf8AKSVGFWR3TWpi0n2Ldipcyn/iTP8AIZEdHu5fR8UYk+UFhT4yfczOrvXvSfqUFdJLYcq5lR9pSSdPeTTDn94vR0O5lxaRjT5T2ceCk/d+Z6jt1fXEERlK7ES/xI34uLputDIjyfqfSmu4xpcq6X0ab70Upbbq92XpcUuOsi+pynqZMiWyKle/0g/HwFx8nt26fh+ZZXKx530t3b+RyDvfvjh61shY2Np2YZtFQ1fobDlPMWpcn6vNNF+PKug/apvwPa1fleehP8qukkyz1e1Kj/34VItPQblc68fwL65UWb4xl3L8SQq+O3jJl11zEW6Vc5ws9hF0/tDQLb0S7XBLvLi5S2L4tr3Hiq/mcsU9KuPtsXibDstdIvKKIzFuWkXcfo+KL0eUGny+n4P8DnSzpNyWXddlO6q8qGJVDqUiS+WatfuXVn3i09Nu19Bl+Os2EuFVFBHS6uqQrDMJTbyXn3+kWMmdC+qGVF+YtuyuY8YPuL0dSs5cKse9HsR0xOjtiwRVvnIFWapR0mj4anzNxkiIWnQqx4xfcX43NGXszT96JcL0m+jzFrS03fPZBC19iXpq00fksyFtxa4ouKUXwZp5defdrOCrKbw7Mxv/AKebQ7n+6sxQkbazMbBxaX1wkWy8k8NDbcJRH2+AAvAAAMiAAAryHSNniAK4AADIgAAAAAAAK8h0jZ4gCuAAAyIA6d6YqVK6Ll5yknQ27OxTpH+BOLgKp4eSMltJo6blKYKbyOXxj8Kw8mJhGXfXbJRHiQR95e8e7U9mrTjJrikfK1bao1pRTxhteJx4uw1iY8jKNsdI38WY+sl7Kq+aRSVpQn7UE/cicL+6p+xVkv6n+JLduguvdzpsLKGD/ehocmDL6t0MY8tKsp8aUe7Blw13U6fCvLvb8wV1lmGCIpbHWkltDqXoVo49mn0J6n5Cy9Fsnwi12Nr1MmPKbU48Zp9sYv0OQix09hCpKr2rfQfhim5RJF9H0LFp6Fbv2ZSXvz55L8eVV4vbhB/048mj2tQd70FmgL85s6XcUwk0BEfmltB/mLT0Jr2Kz96T9EZEeVefbt4+5yXqzkNz3pBQX3Vu7HzEiLsjLOOtGZ/NqJp+QtPRbiPs1U+2P5l+PKi0ft0JLsn+MTkNXk3+wdPS7IWDmhEef0eaxcIoy9xLZcL8xael30eDi/e16MyI8oNLnxU4+6L9Ucxu/C8GGURTa42OcT3rlk+hHyL6O9UYtOzvo8aWeyS9cGRDVtLnwr47Yv0ychrpHSdlBrnd2d4Msw/aM5KUURfWGccFmUbiHtUZd2fLJlQr2dR4p3EH78eaRzobpJ3NPKJuMtW9Kln+zNZZFwVPmbzaS/MWnXjH2012przRkRt5T+bal2Si/Jmpk15t3NoMJSK31no5SuxMPM2Vq8iVUVVelLhJFJW9aHtRfceU6vKu7s8lX8YLe2el+HtKJmbLZ+RqqDrUo8ZIRt6s/Zi+4wc76RvRtaxIjraySZq7DTCQTkcZ/wBk2sR24VOCb7E35Il8XUpe1JR7ZJebRgZ9ff0Uo/GS7p4ifGrtNuxGZR/ieQgS/Qp1eFvJ/wBP44If4nSoe1eQj/8AZ+DZio68jo/rVWR9FScIVT1XGzhJZT6tvkovIP8AL9arwte/ZXqR/wA22tDjf9ym/wC0nO3sx7BYbI3Wz+Rkk6pP9KEzZpss4iEv8oV6nGjGP9b9EQfwh2lHhcTl2U16tHpK/HpNM+pZ+8iNkiO4np7GzUyL/wCQVDElyEnP2pxj2bT/AAIS+FSjT9inOXbsryybO42/vpInfNYKyFsb2itHKrRTV2DjIVySwrJ9UmFedqlxCcZUNtPeNNr/ACXholtGv8btNvGMY5m+lnRck+XFTlPeztviVCMY7Wc5fFLoXSfQsceeiFeQ6Rs8QBXAAAZEAAAAGuAAASJ9o+1wAEgAABrgB1J0uIT07ovXrQuA147IzQ8JHStIdZ8AB+Tbo43KV1dj481VN+RQKjOvf1CB7hps9uzpS+rHyPl7WafxWo14dE5ebNaM01oAAAAB4PPNw7LkQ8okttJNa1H3JIqmYo2orLJRi5NRXFmagbzbCzBbLTFoG0LiDSlpLzTjJrNRkSSLGku2pU+YxY31CWMS49Ka8zZVdFv6KblTeFxxh8Oxs1AyzVgAAAP1ioecveAJcys1ZuYoWuY2elkUZEZ1ehG1nmL3kLU6FKftxT9xkUrqvSf6ubXY2j8b2HdkEHYSWz2Il0K1ibwqW3DJNalG6aCLMVTMzoQjosaK06lV2Ut3QunBf5Qq7r61XtYTb3vc5PGMZ53jci+i0bSZlBytyVR8Ocb1hMrdQlCTNCcRlTFiLN7ht1WSkoYayaSWnSdGddVIy2MZSbb3vHRjxPFU0nMXMo2XyuDgsMEptC3Yh5Wc1IJWZKU9xH4ijnOUnGKW7pKq1tqVCnWrylmeXhJczxxb9Ccu0kziLLSuZtGxDxcyjGYU1JQa0IJbpoMyIzz5iqVRb+OlKlGS3NtLxM2OnUKd/VoSzKEIylxw3iOcNrrPPrZzLrWymWxE9ei2I2HinHW1stoKrZIwmWFJH+0feK5nCrGLlnOejqI7NtcafWrQpKMouCTzJ8c54vHN0ElWOPktqJ1Fx8epcHFxrUMlEW4hDaWyIkkSUmRZjqLPtwqTbe5vG98xsFihc2ltThHEowcvkpt53ve03wO37gVKPpX3LQWPOcfMnTrnM8Eud/6u0cby/ni2oQ+s/BHY/BPBSvrqp0RXjL8j6yDy49yJE+0fa4ACQAAA1wAAAAAAACRPtH2uAAkAAANcAOv+kFL0Ta4e8aWuKwpiLKTVBn4VhHAB+FujbFem3C2EiKUrJYdFK1+yWHgPaNDltadRf1UfNXKeGxrNyvrs7JG1NCAAAHW9rLyLQSS08ZJpZASx6HhEMmZxCnCWpS0YjzpzEWcu4YbqV51ZQp4wscc8+86Ky0m3uLWNarKScs8MY3PHOZ+Z3zziLs3NyfspDFSHi2CWzMDOhpJacVFNl3lXtGNUubidvOWwt20t0ujK6DYUuTtGnc00qz4xe+PTh8zZjpVGxbj8mg35XGM9ZGy9vEZoUj79os5pUdOzwEalafxEKcoNb4LO7HFdDNzXpQXx1SM0/kzfPng+o/TJ9o255oAAAAAeD33Ln4D/ALgfAquKPwRZWJxXNy91JmfVx6U1+UwGBocs6PTfX/edHrVPHKitF88X/wCI2doFUtZZgvF2ML/YGN5V+ep+/wAjl7BZ0+77IfePOQuVmtpXK/YjkJ/qwzX+IrSfy5vr9ERvo4oWsfqvxnIzsMsv4lWLznR2YQR9nialDGj8zS7Ubion/id91Qn6ItTNVbxJA3Xsl8cr82iF+f7xDsfoay2X7HuH9en/AHECDdP9HVoHyPPETSNL+tFYRjxf+nm+lvzNtWj+2baP8tOn4Qyd29Gxn0rpr3TsYy/k0HPInD8oQ08Rw/wgy30I/a9Dt/gjhuuqn2F94+rw82PZyRPtH2uAAkAAANcAAAACRl7U9/kAGXtT3+QAe2/g9TtYq+XgAGQdc3OYAZB1zc5gBl7U9/kAMzedMsoXbWsgPRKekyOPZ+1X7UOsuymftAHz96I7xv8AR1sUZmR4INxvN/RecIexcnHnS6PZ6s+c+WUdnXLhda8kdvjdnMHHjo+BlcI5HzKLZhYZkquPPLJCElWmczzFnMhGc4047U3hFylSnWmqdNNt8y4nVV5NrYSYzqTQtnbU9Yz6LFOulLpiaaqxNEnF1aqnQjVSvvGBOpSua8YRnuw3ul1roZ1GkWM6NGrK4pb8xS2o9Us4yuw6+ah4qOm81iomcTRTpxLaMa3ycMyJlulcaVV7RC3tm6tVxnJYa50/orpTOgnUp0aNOKpxxh82PpPoaJL0PHlY+YPIm2JS24xRk7CpOtVud6TT4+AxdiurCclPd8riut9GDN26LvoRcN/yeD6l05LLsVOZPFSyISzL4wmZhCKw41s1wOJVTsX+6Mi5/SowhFqL+VHpXP7zDVO3uI1YpyjmMuh8V7juayd5C7RztMhipAuCfXDuRCXExKXmzJBoIy7EqI/XLu8RmQr1PjVSqQw2m+OeGPxOMvtIVnR+PhU2llLg09+e3o6TmXixsfDyFmXyyJXDRE4joeWFENnRTKHVfrFpPuUSCXQ+46Cl7KWwqcHhyaWejPHwI6Hb0692nVWYxTljpwty78ZPTIIr+Ls6esvFTBa4BcKUZALinjUtoiUSHGjWo6qIjUg0mZmfrGXcQrFK1qui38nGVnm5ms92DL1i0jUhG6pRw28SSW7pTwuHPk1yVJWkloUSkqzkZHUjGUnngc61jczxe+5c/Af9wo+AXFHz1se9W45Z1Iupmzia/KPI+I1HJ+WdGj1Sf3zsddh/ux9cP/yZ2HaNRla2ypZ878Z/+BjpK3z1P3+RxWnL9n3fZD7542fcMztU7nKkzfItllsuAUn84+t+SJX8cfokfqR8ZSIbRYbIWBbr2xsB3/DUYsL5mj2ryNpLfqOoP6tTzRbmBl+kmRl3lLI0/l67QvT/AHmHY/Q1lv8AwW4+3DykZyAqq601JP8AnU0UdfcuPGPD917X/cbmvu13D+jT8qR3r0WVKPpwWIdJnrEwNm5w+eeh+sjBxHAfCBL/AFFGP1X5ne/BHDFncz6ZRXcvzPqJl7U9/kPPj10e2/g9TtYq+XgAGQdc3OYAZB1zc5gBl7U9/kAGXtT3+QAZe1Pf5ACQAAAryHSNniAK4AADIgCZakjOzE3IjofoERQ/D9WoAfPbobrWvo62Wx1qk4tOf3RLg9e5MPOl0vf5s+eOW6xrtf8Ap+6jtG1UrtBN5U7A2etCmTPupNPpPovXLSR/u1UREfvzjfnMUZwhLanHK7TD21ZvIlNgIkpnFSScHLzYiXIv9ZDuLSy8hdVIopJ/ZzmRlmqYxrvZVFylwWH3NM2+kzou/h8Wmm8pLm3prj7zgwkJayMdfK8C6uRTRtS8TL8tNlxSU+BpdoZ/Mj+gyp21Kr85BP3I6KFxVpfNza97Ido4excmZceg7obXNvKPEZQCXGEmqnaZtuGXcXcYxnpttHfCLj2NryZkf4hcS3Tkn2pPzRx4GR3WTmRmyVs51IEOtKS7BzGIQhxo1Z1EfXoMzzmecjFp6XTdN0o1JKL5sp+aZcWozVRVJU4trnw15NHoYlNlrSzhMlkN70DFxcK4iIS2/AoMnDKuZK0KQSu3OSc4Tsq02sVs4ed8V6NCF3RgnmljKxuk/XJsZFYm3lm52mdwcws9GKTDOw2F1p9oqLUhRnUjV/4ZeYO1vPjVUzF4TXOuOO3oMS7hZ3dD4h7UVlPmfBNdXSX5hC25n8M3CTFNnYZDbzUQh5g33VoW2olJUkjwlWpePiJytrqrhT2Vhp7svh3GDa2NrZVfjacpN71hpLKfNznunE4lSnVtO2XmE4NpSmcUPLvSEErNiRiPMXdWpkVS9wu17mjtOMoOWOhZMmM403iVVQfHe8H8sFZ+ZQExmU7iJSmRQcahtuGlDbhHgwmZqecJJmhLiqkWFHYSSqZmebGtaUlUlV2diL4R9Xjdl9RpdbvqF0oUqT23HOZ4455lne0us2a/sK+RjOZoFxPnbZMz/QfOTzUanESZV7iKMSY0nJ7+DP7UvvHb64v920+uEf8Axs7HtGZHa2yR+L8X/wAOY6et89T9/kcPp38PvOyH3zjyBwillrnqUpM44z+jaS4CFJ/JqPrZdv4/r7OP1Kfi2SzLDZi7tBERVjIHN/7CzFr/AIqPavI2HG+1J/VqffRYmSkleVKVGeduTRiv9o2L8/3mP2X6Gttk3olbrqQ8pGflSf8ANNJCp9/Gwqj2o0jGPT/dIdq+8be6f+4K/VGfhTaO++iCwqK6bcM6RqpB2GjF07vWiUFxIec8vpZvqceiPqz0f4J4Y0qrLpqf2o+lA4U9SK8h0jZ4gCuAAAyIAAAAAAACvIdI2eIArgAAMiAJ9ocP8X5njOifQ3qmfcWAwB89Oh1/2ebNUViLHGZ610lwevcl/wCF0/f5s+eeXH8drf0/dR3SN+ckceYQMNNICJlsa3jh4tlbDqfFCkmRl5GIzgqkXCXBlylUlRnGpDinle4z938rttN4eKs1DyBUzmVn8DD/AFUYwh19ilGokkOKTVKyLOZGdFEou4aKfKKlpcla3kZZXOsNNdPHv6z06y0mWtUf0yzlHEuKfGL51+HUaSY2RvAl0ri4+Nso7KkoaUhqJjXWXWkvKIybNSGXTWpOKlaUzd4uU+UFLVNq2sW1UaeHJbsovT0Opp2zcXqTpprKT34J0S1DxZUiIZhZGlONGHEjFQsWHFnpWtK56UG/to1VRirhpzxvxwyaS4dJ1pOgmoZ3Z44IMfd9YaZnijrIyl1X73oqEq8yIjF5xTLO0ybG3R2IjGjYKEj4dBlTDDzKIQnyx0/IUcEV2mZ6YWPcseiEsxYO2FoGJjM1mUJBKiEPtMoI/wBY+snEGaG0kdToZVMyIs5jCurj4jFOnvnLgvNvqX5FxOEacq9bdCPHrfMl1v8AMv2TuwtTY2bnMYO8aMmcOtKkOQUwh6tqxKNRqSaVFhViMzrTvOtRKEFBYicrdX8bzfUhh9KOxk4sJYqVpnp2VEjXH8X9hXyMAj51WT/0GWlMj+zNY1WY69kQkxouTv8ABp/al5nc67/8uofYh91nY9oDNVrLHmVM7sWZ/wD1zHUVfnqfv8jh7Ddp972Q++cOWOdVZu2btT9WPmR+SBCDxTqvrkZNzHavbGP1KXmcaKQaZdd0yVa+lwxnm8IVZiMvZorrXkXqTTranL6svGojlzl3BeGTtSpC2binD91XU/8ASJVHi5z0RfmY9nDa0fZ/mrRX/V/iToNvqrrLKtn+0/KzPN4vIMW4rFrT/p80ZlaW1r12+qr4RaP0P0GoZ2M6YNrIytW5dYdpo/cpyKQfAx5hy5ntaol0RXqer/BdT2NDcumcvRH0WHGno5XkOkbPEAVwAAGRAAAABrgAAEifaPtcABIAAAa4ARbaqSixs+WojwplkUZ0Oh06pQA+a3RBYKH6O1kSIjInGohwiMqHniHB7ByaWNLpe/zZ87ctZbWu1+1fdR3GN6cqABwomDjG5jCWgkUzdlU7l1fRI5pJKMkn9ptxJ5nGlULEg/AjKhkRlrtS0uhqdLYq8VwfOjc6Lrlzodf42g8p8Yvg/wA+hm9hL+YSKlTsivYsjHQZPNm07MJQyuNg3P6eBNXmj76GlRF+8Y4SpoupaTXVeitrZeU16riesWvKnSNZoujWnsOSw1Ld3Pgdazy0d3svcU9LLw5DGQZn6qlRaWXkl4LacwrSf0HcWHKG3uoqNf8AVz51Lcvc2c7eaLWoPboNVIczi896RCdvHsI2eFNqpe+vuRDOdes/klupmNjLUrSP/In2b/IwP0K4W+UGu3d5nidoLSz4uoshZqIaQvNlGbtqhmEF+8lo/wBa4fuokj/eFqV7VrbraHvluXdxfh2mLVuLO0316ik/5Y7373wXj2FqzFkYWzpvxz8W7MZtHU9MmD5ETjtOxCSLMhsqnRBZi7c51MKFuqTc5Pak+Lf/ALuXUc3qGpVdQkk1swXCK4L8W+dsvjINaAB/D7DAHztsp69yFqzIyMjmUxOviXXlnGj5Pfwef2p+Z3Gu7uV1t9mn91nYM5oq11jk5zomMXUj+ARcR09T56l7/I4qz3afev7H3mTDX1NibcrpnKLmZ9vikWc4oVe2RnbO3qdgvq0vM5U0awTKwMHh+w8pVPDBCK/xE5r5VFf+8CxayzR1Gp0peNRHEtG91Vq7RxVf5pZQ/oaluH/yiFZ4qzfRD8TI06G1YW1P+a48lH8TkRLPo9hbKQpJ7ImUpptIPgJNYoU19ks05/Gardzf8tbyZ+n/AODchTiekze5M6HSEs9KoStM3rrNf/IPJeWctrV5roUfI9r+DeGxyfpPpcn4n0fHKneEifaPtcABIAAAa4AAAAAAABIn2j7XAASAAAGuAGdvGYj4m721ENKoZ2JjXZNGohmWiqtx02FkhKS7zM6EXzAHzfudnsoununsnYi8Yo2yc2lsuQzFMTuXREASHampREt5CUKzn2koyMeqaHq9hTsqVCVVKSW9Pd5ng3Kjk/q1bU691GhJwlLKa37vdvO1ZZOpNO2SiJNN4KPaMqkuFiEOpP6pMx00KsKqzCSa6jiqtCrQezVi4vrTXmc0TLQAAAet2HYf+/Ybc/Gglf3ijinxJKTjwZ/WmWWczLKG/wACSL+4EkuAcnLizzFSIAAAAB4PqwMuK/dQZ/kKPcisd7R87rGEargZ88Z1OIiZg5Wvi8NLydX7Ek+ly8ztdef+8aK6FTX/AFOwpiVbb2UbP9iCjV7jZcR0s/n6a6n6HG2+7S7x9MqfnJkeZEaLE23bI87kwi2/6xoLiLM/mKvazY22/VLB9EIPuyy1Nm624srDEWZiGjXflRCEcRfqL9fTXQn6GstZfsu7n/NKmvGT9DPWoWXX3ixp5yZk8PCl8zbWqm+Qx6731pdSXgzb6Yvk6bT6akpf9or0NBP2iRKbMQpFSkygEkX4UmfAZFVYhTXWjU2E83F3U+pU8d3qfrL+DFgCXeLfnOCXi/lUlhC92GHdUZfmQ8b5XPOsVvd5I99+D+Ljyet8/W+8z9/jmzsyRPtH2uAAkAAANcAAAACRl7U9/kAGXtT3+QAe2/g9TtYq+XgAGQdc3OYAZB1zc5gBl7U9/kAPYxNzfXgKEMtrkAPdHS6BnEOcPHwrMQyeY0OJJaVF8jzGAOrrW9E/o62xdOKm908iYjO6NljJy+JI/HrYY0Lr76i5TqzpPMJNPqeC1VoUq8dmrFSXWsnW096EjcCk3Lsr9bbWeWkzNELNVszqF9yaPpJ0i+TtRt7flDqVv7NVvt3+Zzt3yP0W83zoKL6Y/J8tx17PLnelfYxSlsS+wV4EEjOlUBHOyeNUX/lPkto1fJwiG8t+WteO6vST7Hj8Tlrz4NLWe+1rOPVJJrwwzBzO9+Mscs2b0bp7eWPNH24iJlCoyDL3lEQpuJp7zoN9b8rrCruqZg+tbvDJy138Hur2+XR2ai6nh9zx5lmy97F2dtUpOy1u5JMVK/7pqMQTpe421GSiP5kN5b6jaXSzRqJ+/wBOJy93o9/YPFzRlHtTx38DWd1e4xmGtAAAAAAA48wVgl8Uv91hw90xGe6LJ01maXWj582MZUjo6uV9U4n0hZbUSZENVoEXHQo9efvM63W5qXLP7Oz4QOwoxs1XgSXN9zKoxX1NbJDo5L/UR7H6HHUpY0iv11IeU2SJqyo7O2gY/wBYn6EFX+k8yQszX6ua6ZeqNjazSvLaf8tFvujMqzCIh2bxIR2KiWmWoaTvqNTiySRGt5Bdp/hMXZtK4Tb4RfmjAt6c56PONOLblUjw38Iv8TMzZaJlZu38fBmUS3FxiGGlM/rMaUNtJzUrXOZ9gxqny6daS35fojd2idve6dSqfJcYtvO7GXJ8/DmNHFzJmezCRw0sg45xuFjkvuurg3W20oS0siPEpJF2mQyZTVWUFFPc+h9DNNSt5WNK4nXlFOUWklKLbblHmTfNk/ZP8GsRS2Bvcm/oxLOOtYyxirTMzBNe7xcMeL8qXnV6/avJH0HyFWzyetux/eZ+0cvanv8AIc+daPbfwep2sVfLwADIOubnMAMg65ucwAy9qe/yADL2p7/IAMvanv8AIASAAAFeQ6Rs8QBXAAAZEAexlzqlkqqiLvoYAutPstQvXJKhK93aBRszU7th6GRk23XNmE1Eg5GFmlvo1xJlCuLRQqZz7RcUC05mYjbZThwjSpaiIz7s1RLZRHbbM5GWjmrpUcjF0qZEmorgi5M64tpdVdhb4nDtfd5IZi4s/wCcHBobfL3k6iiiP6hhFNp8Dr6J6N8uk3WOXZXo24sctH3cM1MzjoMle9mIxFT3Eohm0NRvLb5mrJe/K7may70bTb794oRk+nGH3rDOJ6B0rrKmfoE+sTbyGbIvUjIZyVxay/Eg1N1+g3dDlZf0t1VRn4Pw3eBzN38H+k199FypvqeV3Pf4n9/T7bOzdCvMuAtlJ2yKq42VIRNYUvE8TR4iL6DdW/LK3lur03Hs3r0Oau/g4vIb7WtGfU8xfqi1ZzpLXH2ndTCwd4Uug4pWb0WZYoJ4j8MLxJzjdW+vadc7oVVnr3eeDmbvkrrFlvqUJNdK+UvDJ2RCRkJHspiYGKZiWVFVLjLhLSZe4yzDaxnGazF5RoJwlTezNYfWeidqJElmCzrRMI8eb8BiNXdTl2E6CzViuteZ+H7AWeXN7lZLJm4lMOqIhm3icNGMi/XdZnKpVrTx7xZ0OhtaPRp54rPjk2ev6grTlPXuZRyoyaxw+js8d5roGQRjc6KfTSbelxCIZUK2hEOTTaEKUSjzVMzOqS7TG5jSlt/GSeXjBzte/pytv0ShT2YuSk23ltpNLmS5+gkTpF3cpi3Y+0NoIeHUuIKLNqImZpbJ0qGSiaxEVapI+ztIYlxXsbZuVeolz75emTY2T1m7pqlZ0XLEdnKhl46NrGefpIkwveunmEwbRCtLtFHkXVtJgZWuKXQz7Enh8fAae55WaNSeXPafUs+Ju7DkPynnDYpxdOL6Z48E8+BsrOyjpBWzI27uOi5biLZKmB6OhcnMmR9hkbhEVOzvGnrcv7eG6hRb7Wl5ZN/b/BReVvlXlyk+pOT73g7FkfQ56d9rs79mLDWLZURGSplMjiXS92FnGVeztoNPX5e38/moRj3v1Ohtfgp0qlj4+pOfdFeCb8T9ddEO4q2Fwl3k0s/b20UsnU8nM7em8TEy9pSGSxtNNpQRKIjMyJrtp3jj7u6q31eVxWeZS3s9F0+woaZbQtLZYhBYW/Pid5DGMwryHSNniAK4AADIgAAAAAAAK8h0jZ4gCuAAAyIAACxA0ioPqmyIltHQypmMjAo0Zqe2cN7Eo0qqfclPeLikW3Ew01sq+2s6pzn7qUzCakW3Ey8dJXmTOra6lnIqcRLJBohxUIkjMnEVV7y7CEiJMel5rxdUeFNe2uYwKYOFEQb6TUSUYjLwPt94DB6CbiHFHiL1iLOdM4FDxbecxrZccNDdKGXZ9KioIk/sbYq1zJw9pbISWctUpSNgW3j8zIzL6CjSfEqpNcDrWJ6KV2bT6o+xjloLGRSiqT9n5u9DpI/HqzNSKe6gu0q9W3eaM3F9TaLFxbULtbNxTjNdaTPTFXZdIqTwMTA2Xvqlto4N1lbHo1ppWSXDQpJl/OGKKrn7TIbelyj1GlHYlNSXWvVYZztxyM0avNVIU3CSefkvd3PKOurLdGW/+GkUBIY28Ky0ghIGGRDoOAgXIx4ySVK4nMKamL9PlXqVGhC3ouMVFJbll7u0xqvIPRbi7qXlypTlOTk05YW/sx5mrgehfIZr1Z28vctpPFFTrGWYhEGwr3YUkdC+o1dxqt/d/PVpP34Xcje2ehaVYfu1tCL6cZfe8s7EsP0VOjtYx1EUxdPJ5u+lwz6ybm5GKPtrmcUafyGtcE97NwqjSwj9L2EtBZ2xbLcFZ+xUhkjBZkpl0A0wXyLAkvcKOmiaqM7Qlt5ULEKS0+SiWfiXaIOBcVQ1cHOYaMSSkKLP4GIYJqRKi4JcIZVUSiV2GQoSOMAK8h0jZ4gCuAAAyIAAAANcAAAkT7R9rgAJAAADXAAAJM8UpPo5pUZH63Z9ABw2Jk80f6widTSlFdvmAPYp2XRST9IQSTUdDIyqVBXJTBwpjYiDiam0Rtnn95VElLBBwMrM7tXXCUTayX2fZIir9DE1Mg4GJmdgYuGNWJpbRJMyqZHQ/kJKWS24NGbmFnYxgqE0rPnNWfs4iWSLRLcgon7KiJBFSh1oKlMHDiYQnlmk0qNOaqiLtAocVcAtKez1Ud/j8wyUP4iXOqLElSVJLw7iAHicM80ZGrMRERZ69gA/qCMlJSiqjSefvoAOYxCIxpNpB4VdpnQyICuCvDyGL66qEEaOwl0rQUyVwaqTWNjnlJVgMyM69lc4o5E1Fm+klj3k4fSGlKNX7XgXuFtyLqibCXSNiXEajcIiLOozOgg3kmol5KSSkkl3CJM8gBIn2j7XAASAAAGuAAAAAAAASJ9o+1wAEgAABrgAAEifaPtcABIAAAa4AeJpSfaRACfMjhWVMk8wlSXDOp07KU/xDJTBJi5JIpo2sjJKC7MNcP1ElJoi4ZM7MrsYGLI1Qi2iMyzKpUSUyDpmPml0kyaJRsIIkUqZJMTU0QdNmZiLDTKFqnq1VIzIzpWollENlnDbspGYzWbWHEVTKnYQrkpsnLh7KOumpg0rPEXZnoQpkrslmAu4ioihlAFgV61VFStBTaJKDNNLLsCQjq1JJBGWKlK5z7qiLmSVM1sssLCQjZINs107a9hiDkTUC4Utl8vJKnEpQfdQu0RyT2TwjJkhSCahakXedKChInmtavtKM6585gDWAAAJE+0fa4ACQAAA1wAAAAJGXtT3+QAZe1Pf5AB7b+D1O1ir5eAAZB1zc5gBkHXNzmAGXtT3+QAZe1Pf5AB7b+D1O1ir5eAAZB1zc5gBkHXNzmAGXtT3+QAZe1Pf5AB7b+D1O1ir5eAAZB1zc5gD+pkZoMlJjTIy/ocwB4HO0q7YLf5AD1LjYGIPC/Lk0PNXtp+QZKYR/GpHIo9Sltw5GaM2dObPXmJbTKbKOQ3ZuXNKxIaQR950zimWNk5jcuhmiolJU+QZK4OOU1hk1JLJ1pmLxFCuDwOeKSeE4I6l/S5AASss5vuia2sVfLwAH8yCX+tn/V5gBkHXNzmAGXtT3+QAZe1Pf5AB7b+D1O1ir5eAAZB1zc5gBkHXNzmAGXtT3+QAZe1Pf5ABl7U9/kAJAAACvIdI2eIArgAAMiAAAryHSNniAK4AADIgAAK8h0jZ4gCuAAAyIAACvIdI2eIArgAAMmlxSOwAe5UVjSSVNl7zrnMAc+RHX0jNT7PEAVwAAGRAAAV5DpGzxAFcAABkQAAAAAAAFeQ6Rs8QBXAAAZEAABXkOkbPEAVwAAGRAAAV5DpGzxAFcAABkQAAFeQ6Rs8QBXAAAZEAABXkOkbPEAVwAAGRAAAV5DpGzxAFcAABkQAAAAa4AABIn2j7XAASAAAGuAAASJ9o+1wAEgAABrgAAEifaPtcABIAAAa4AABIn2j7XAASAAAGuAAASJ9o+1wAEgAABrgAAEifaPtcABIAAAa4AAAAAAABIn2j7XAASAAAGuAAASJ9o+1wAEgAABrgAAEifaPtcABIAAAa4AABIn2j7XAASAAAGuAAASJ9o+1wAEgAABrgAAEifaPtcABIAAAa4AAAAEjL2p7/ACADL2p7/IAPbfwep2sVfLwADIOubnMAMg65ucwAy9qe/wAgAy9qe/yAD238HqdrFXy8AAyDrm5zADIOubnMAMvanv8AIAMvanv8gA9t/B6naxV8vAAMg65ucwAyDrm5zADL2p7/ACADL2p7/IAPbfwep2sVfLwADIOubnMAMg65ucwAy9qe/wAgAy9qe/yAD238HqdrFXy8AAyDrm5zADIOubnMAMvanv8AIAMvanv8gA9t/B6naxV8vAAMg65ucwAyDrm5zADL2p7/ACADL2p7/IAMvanv8gBIAAAV5DpGzxAFcAABkQAAFeQ6Rs8QBXAAAZEAABXkOkbPEAVwAAGRAAAV5DpGzxAFcAABkQAAFeQ6Rs8QBXAAAZEAABXkOkbPEAVwAAGRAAAAAAAAV5DpGzxAFcAABkQAAFeQ6Rs8QBXAAAZEAABXkOkbPEAVwAAGRAAAV5DpGzxAFcAABkQAAFeQ6Rs8QBXAAAZEAABXkOkbPEAVwAAGRAAAAB//2Q==;" parent="5" vertex="1">
                    <mxGeometry x="140" y="170" width="54.17" height="50" as="geometry"/>
                </mxCell>
                <mxCell id="9" value="" style="shape=image;verticalLabelPosition=bottom;labelBackgroundColor=#ffffff;verticalAlign=top;aspect=fixed;imageAspect=0;image=data:image/jpeg,/9j/4AAQSkZJRgABAQEASABIAAD/2wBDAAMCAgICAgMCAgIDAwMDBAYEBAQEBAgGBgUGCQgKCgkICQkKDA8MCgsOCwkJDRENDg8QEBEQCgwSExIQEw8QEBD/2wBDAQMDAwQDBAgEBAgQCwkLEBAQEBAQEBAQEBAQEBAQEBAQEBAQEBAQEBAQEBAQEBAQEBAQEBAQEBAQEBAQEBAQEBD/wAARCADwAQQDAREAAhEBAxEB/8QAHQABAQEAAgMBAQAAAAAAAAAAAAUGBAcCAwkIAf/EAFUQAAAEAwMIBgcEBAkJCQAAAAABAgMEBREGBxIVIURkgqLB4QgTMUFRkRQiNWFjcYEyM3KhFyNCUgkWJDRikpOx0RgnN1SjsrTC0jhDU3N0g4SUs//EABwBAQABBQEBAAAAAAAAAAAAAAACAQMEBQYHCP/EAEURAAIBAwEDCQIKCAYCAwAAAAABAgMEEQUSITEGQVFhcZGhscEygQcTIjNCYnKy0eEUIyU0NVKCwhUWJCZDorPwNoPD/9oADAMBAAIRAxEAPwD6pgAAJE+0fa4ACQAAA1wAACRPtH2uAAkAAANcAAAkT7R9rgAJAAADXAAAJE+0fa4ACQAAA1wAACRPtH2uAAkAAANcAAAkT7R9rgAJAAADXAAAAAAAAJE+0fa4ACQAAA1wAACRPtH2uAAkAAANcAAAkT7R9rgAJAAADXAAAJE+0fa4ACQAAA1wAACRPtH2uAAkAAANcAAAkT7R9rgAJAAADXAAAAAkZe1Pf5ABl7U9/kAHtv4PU7WKvl4ABkHXNzmAGQdc3OYAZe1Pf5ABl7U9/kAHtv4PU7WKvl4ABkHXNzmAGQdc3OYAZe1Pf5ABl7U9/kAHtv4PU7WKvl4ABkHXNzmAGQdc3OYAZe1Pf5ABl7U9/kAHtv4PU7WKvl4ABkHXNzmAGQdc3OYAZe1Pf5ABl7U9/kAHtv4PU7WKvl4ABkHXNzmAGQdc3OYAZe1Pf5ABl7U9/kAHtv4PU7WKvl4ABkHXNzmAGQdc3OYAZe1Pf5ABl7U9/kAGXtT3+QAkAAAK8h0jZ4gCuAAAyIAACvIdI2eIArgAAMiAAAryHSNniAK4AADIgAAK8h0jZ4gCuAAAyIAACvIdI2eIArgAAMiAAAryHSNniAK4AADIgAAAAAAAK8h0jZ4gCuAAAyIAACvIdI2eIArgAAMiAAAryHSNniAK4AADIgAAK8h0jZ4gCuAAAyIAACvIdI2eIArgAAMiAAAryHSNniAK4AADIgAAAA1wAACRPtH2uAAkAAANcAAAkT7R9rgAJAAADXAAAJE+0fa4ACQAAA1wAACRPtH2uAAkAAANcAAAkT7R9rgAJAAADXAAAJE+0fa4ACQAAA1wAAAAAAACRPtH2uAAkAAANcAAAkT7R9rgAJAAADXAAAJE+0fa4ACQAAA1wAACRPtH2uAAkAAANcAAAkT7R9rgAJAAADXAAAJE+0fa4ACQAAA1wAAAAJGXtT3+QAZe1Pf5AB7b+D1O1ir5eAAZB1zc5gBkHXNzmAGXtT3+QAZe1Pf5AB7b+D1O1ir5eAAZB1zc5gBkHXNzmAGXtT3+QAZe1Pf5AB7b+D1O1ir5eAAZB1zc5gBkHXNzmAGXtT3+QAZe1Pf5AB7b+D1O1ir5eAAZB1zc5gBkHXNzmAGXtT3+QAZe1Pf5AB7b+D1O1ir5eAAZB1zc5gBkHXNzmAGXtT3+QAZe1Pf5AB7b+D1O1ir5eAAZB1zc5gBkHXNzmAGXtT3+QAZe1Pf5ABl7U9/kAJAAACvIdI2eIArgAAMiAJlp7TSGxln4+1VqJozLpTLGVREXFvVwMtl2qOmegDgddQHTS6NkvW825eQw4tZINKW4N8zVUz8UEL/6NW/lMX9Nt+aaKrPTEuejzwyRc4mhn2ejQiCr/aLSLkbG4nwj4r8S1PU7WHtS8H+Byf8AKSVGFWR3TWpi0n2Ldipcyn/iTP8AIZEdHu5fR8UYk+UFhT4yfczOrvXvSfqUFdJLYcq5lR9pSSdPeTTDn94vR0O5lxaRjT5T2ceCk/d+Z6jt1fXEERlK7ES/xI34uLputDIjyfqfSmu4xpcq6X0ab70Upbbq92XpcUuOsi+pynqZMiWyKle/0g/HwFx8nt26fh+ZZXKx530t3b+RyDvfvjh61shY2Np2YZtFQ1fobDlPMWpcn6vNNF+PKug/apvwPa1fleehP8qukkyz1e1Kj/34VItPQblc68fwL65UWb4xl3L8SQq+O3jJl11zEW6Vc5ws9hF0/tDQLb0S7XBLvLi5S2L4tr3Hiq/mcsU9KuPtsXibDstdIvKKIzFuWkXcfo+KL0eUGny+n4P8DnSzpNyWXddlO6q8qGJVDqUiS+WatfuXVn3i09Nu19Bl+Os2EuFVFBHS6uqQrDMJTbyXn3+kWMmdC+qGVF+YtuyuY8YPuL0dSs5cKse9HsR0xOjtiwRVvnIFWapR0mj4anzNxkiIWnQqx4xfcX43NGXszT96JcL0m+jzFrS03fPZBC19iXpq00fksyFtxa4ouKUXwZp5defdrOCrKbw7Mxv/AKebQ7n+6sxQkbazMbBxaX1wkWy8k8NDbcJRH2+AAvAAAMiAAAryHSNniAK4AADIgAAAAAAAK8h0jZ4gCuAAAyIA6d6YqVK6Ll5yknQ27OxTpH+BOLgKp4eSMltJo6blKYKbyOXxj8Kw8mJhGXfXbJRHiQR95e8e7U9mrTjJrikfK1bao1pRTxhteJx4uw1iY8jKNsdI38WY+sl7Kq+aRSVpQn7UE/cicL+6p+xVkv6n+JLduguvdzpsLKGD/ehocmDL6t0MY8tKsp8aUe7Blw13U6fCvLvb8wV1lmGCIpbHWkltDqXoVo49mn0J6n5Cy9Fsnwi12Nr1MmPKbU48Zp9sYv0OQix09hCpKr2rfQfhim5RJF9H0LFp6Fbv2ZSXvz55L8eVV4vbhB/048mj2tQd70FmgL85s6XcUwk0BEfmltB/mLT0Jr2Kz96T9EZEeVefbt4+5yXqzkNz3pBQX3Vu7HzEiLsjLOOtGZ/NqJp+QtPRbiPs1U+2P5l+PKi0ft0JLsn+MTkNXk3+wdPS7IWDmhEef0eaxcIoy9xLZcL8xael30eDi/e16MyI8oNLnxU4+6L9Ucxu/C8GGURTa42OcT3rlk+hHyL6O9UYtOzvo8aWeyS9cGRDVtLnwr47Yv0ychrpHSdlBrnd2d4Msw/aM5KUURfWGccFmUbiHtUZd2fLJlQr2dR4p3EH78eaRzobpJ3NPKJuMtW9Kln+zNZZFwVPmbzaS/MWnXjH2012przRkRt5T+bal2Si/Jmpk15t3NoMJSK31no5SuxMPM2Vq8iVUVVelLhJFJW9aHtRfceU6vKu7s8lX8YLe2el+HtKJmbLZ+RqqDrUo8ZIRt6s/Zi+4wc76RvRtaxIjraySZq7DTCQTkcZ/wBk2sR24VOCb7E35Il8XUpe1JR7ZJebRgZ9ff0Uo/GS7p4ifGrtNuxGZR/ieQgS/Qp1eFvJ/wBP44If4nSoe1eQj/8AZ+DZio68jo/rVWR9FScIVT1XGzhJZT6tvkovIP8AL9arwte/ZXqR/wA22tDjf9ym/wC0nO3sx7BYbI3Wz+Rkk6pP9KEzZpss4iEv8oV6nGjGP9b9EQfwh2lHhcTl2U16tHpK/HpNM+pZ+8iNkiO4np7GzUyL/wCQVDElyEnP2pxj2bT/AAIS+FSjT9inOXbsryybO42/vpInfNYKyFsb2itHKrRTV2DjIVySwrJ9UmFedqlxCcZUNtPeNNr/ACXholtGv8btNvGMY5m+lnRck+XFTlPeztviVCMY7Wc5fFLoXSfQsceeiFeQ6Rs8QBXAAAZEAAAAGuAAASJ9o+1wAEgAABrgB1J0uIT07ovXrQuA147IzQ8JHStIdZ8AB+Tbo43KV1dj481VN+RQKjOvf1CB7hps9uzpS+rHyPl7WafxWo14dE5ebNaM01oAAAAB4PPNw7LkQ8okttJNa1H3JIqmYo2orLJRi5NRXFmagbzbCzBbLTFoG0LiDSlpLzTjJrNRkSSLGku2pU+YxY31CWMS49Ka8zZVdFv6KblTeFxxh8Oxs1AyzVgAAAP1ioecveAJcys1ZuYoWuY2elkUZEZ1ehG1nmL3kLU6FKftxT9xkUrqvSf6ubXY2j8b2HdkEHYSWz2Il0K1ibwqW3DJNalG6aCLMVTMzoQjosaK06lV2Ut3QunBf5Qq7r61XtYTb3vc5PGMZ53jci+i0bSZlBytyVR8Ocb1hMrdQlCTNCcRlTFiLN7ht1WSkoYayaSWnSdGddVIy2MZSbb3vHRjxPFU0nMXMo2XyuDgsMEptC3Yh5Wc1IJWZKU9xH4ijnOUnGKW7pKq1tqVCnWrylmeXhJczxxb9Ccu0kziLLSuZtGxDxcyjGYU1JQa0IJbpoMyIzz5iqVRb+OlKlGS3NtLxM2OnUKd/VoSzKEIylxw3iOcNrrPPrZzLrWymWxE9ei2I2HinHW1stoKrZIwmWFJH+0feK5nCrGLlnOejqI7NtcafWrQpKMouCTzJ8c54vHN0ElWOPktqJ1Fx8epcHFxrUMlEW4hDaWyIkkSUmRZjqLPtwqTbe5vG98xsFihc2ltThHEowcvkpt53ve03wO37gVKPpX3LQWPOcfMnTrnM8Eud/6u0cby/ni2oQ+s/BHY/BPBSvrqp0RXjL8j6yDy49yJE+0fa4ACQAAA1wAAAAAAACRPtH2uAAkAAANcAOv+kFL0Ta4e8aWuKwpiLKTVBn4VhHAB+FujbFem3C2EiKUrJYdFK1+yWHgPaNDltadRf1UfNXKeGxrNyvrs7JG1NCAAAHW9rLyLQSS08ZJpZASx6HhEMmZxCnCWpS0YjzpzEWcu4YbqV51ZQp4wscc8+86Ky0m3uLWNarKScs8MY3PHOZ+Z3zziLs3NyfspDFSHi2CWzMDOhpJacVFNl3lXtGNUubidvOWwt20t0ujK6DYUuTtGnc00qz4xe+PTh8zZjpVGxbj8mg35XGM9ZGy9vEZoUj79os5pUdOzwEalafxEKcoNb4LO7HFdDNzXpQXx1SM0/kzfPng+o/TJ9o255oAAAAAeD33Ln4D/ALgfAquKPwRZWJxXNy91JmfVx6U1+UwGBocs6PTfX/edHrVPHKitF88X/wCI2doFUtZZgvF2ML/YGN5V+ep+/wAjl7BZ0+77IfePOQuVmtpXK/YjkJ/qwzX+IrSfy5vr9ERvo4oWsfqvxnIzsMsv4lWLznR2YQR9nialDGj8zS7Ubion/id91Qn6ItTNVbxJA3Xsl8cr82iF+f7xDsfoay2X7HuH9en/AHECDdP9HVoHyPPETSNL+tFYRjxf+nm+lvzNtWj+2baP8tOn4Qyd29Gxn0rpr3TsYy/k0HPInD8oQ08Rw/wgy30I/a9Dt/gjhuuqn2F94+rw82PZyRPtH2uAAkAAANcAAAACRl7U9/kAGXtT3+QAe2/g9TtYq+XgAGQdc3OYAZB1zc5gBl7U9/kAMzedMsoXbWsgPRKekyOPZ+1X7UOsuymftAHz96I7xv8AR1sUZmR4INxvN/RecIexcnHnS6PZ6s+c+WUdnXLhda8kdvjdnMHHjo+BlcI5HzKLZhYZkquPPLJCElWmczzFnMhGc4047U3hFylSnWmqdNNt8y4nVV5NrYSYzqTQtnbU9Yz6LFOulLpiaaqxNEnF1aqnQjVSvvGBOpSua8YRnuw3ul1roZ1GkWM6NGrK4pb8xS2o9Us4yuw6+ah4qOm81iomcTRTpxLaMa3ycMyJlulcaVV7RC3tm6tVxnJYa50/orpTOgnUp0aNOKpxxh82PpPoaJL0PHlY+YPIm2JS24xRk7CpOtVud6TT4+AxdiurCclPd8riut9GDN26LvoRcN/yeD6l05LLsVOZPFSyISzL4wmZhCKw41s1wOJVTsX+6Mi5/SowhFqL+VHpXP7zDVO3uI1YpyjmMuh8V7juayd5C7RztMhipAuCfXDuRCXExKXmzJBoIy7EqI/XLu8RmQr1PjVSqQw2m+OeGPxOMvtIVnR+PhU2llLg09+e3o6TmXixsfDyFmXyyJXDRE4joeWFENnRTKHVfrFpPuUSCXQ+46Cl7KWwqcHhyaWejPHwI6Hb0692nVWYxTljpwty78ZPTIIr+Ls6esvFTBa4BcKUZALinjUtoiUSHGjWo6qIjUg0mZmfrGXcQrFK1qui38nGVnm5ms92DL1i0jUhG6pRw28SSW7pTwuHPk1yVJWkloUSkqzkZHUjGUnngc61jczxe+5c/Af9wo+AXFHz1se9W45Z1Iupmzia/KPI+I1HJ+WdGj1Sf3zsddh/ux9cP/yZ2HaNRla2ypZ878Z/+BjpK3z1P3+RxWnL9n3fZD7542fcMztU7nKkzfItllsuAUn84+t+SJX8cfokfqR8ZSIbRYbIWBbr2xsB3/DUYsL5mj2ryNpLfqOoP6tTzRbmBl+kmRl3lLI0/l67QvT/AHmHY/Q1lv8AwW4+3DykZyAqq601JP8AnU0UdfcuPGPD917X/cbmvu13D+jT8qR3r0WVKPpwWIdJnrEwNm5w+eeh+sjBxHAfCBL/AFFGP1X5ne/BHDFncz6ZRXcvzPqJl7U9/kPPj10e2/g9TtYq+XgAGQdc3OYAZB1zc5gBl7U9/kAGXtT3+QAZe1Pf5ACQAAAryHSNniAK4AADIgCZakjOzE3IjofoERQ/D9WoAfPbobrWvo62Wx1qk4tOf3RLg9e5MPOl0vf5s+eOW6xrtf8Ap+6jtG1UrtBN5U7A2etCmTPupNPpPovXLSR/u1UREfvzjfnMUZwhLanHK7TD21ZvIlNgIkpnFSScHLzYiXIv9ZDuLSy8hdVIopJ/ZzmRlmqYxrvZVFylwWH3NM2+kzou/h8Wmm8pLm3prj7zgwkJayMdfK8C6uRTRtS8TL8tNlxSU+BpdoZ/Mj+gyp21Kr85BP3I6KFxVpfNza97Ido4excmZceg7obXNvKPEZQCXGEmqnaZtuGXcXcYxnpttHfCLj2NryZkf4hcS3Tkn2pPzRx4GR3WTmRmyVs51IEOtKS7BzGIQhxo1Z1EfXoMzzmecjFp6XTdN0o1JKL5sp+aZcWozVRVJU4trnw15NHoYlNlrSzhMlkN70DFxcK4iIS2/AoMnDKuZK0KQSu3OSc4Tsq02sVs4ed8V6NCF3RgnmljKxuk/XJsZFYm3lm52mdwcws9GKTDOw2F1p9oqLUhRnUjV/4ZeYO1vPjVUzF4TXOuOO3oMS7hZ3dD4h7UVlPmfBNdXSX5hC25n8M3CTFNnYZDbzUQh5g33VoW2olJUkjwlWpePiJytrqrhT2Vhp7svh3GDa2NrZVfjacpN71hpLKfNznunE4lSnVtO2XmE4NpSmcUPLvSEErNiRiPMXdWpkVS9wu17mjtOMoOWOhZMmM403iVVQfHe8H8sFZ+ZQExmU7iJSmRQcahtuGlDbhHgwmZqecJJmhLiqkWFHYSSqZmebGtaUlUlV2diL4R9Xjdl9RpdbvqF0oUqT23HOZ4455lne0us2a/sK+RjOZoFxPnbZMz/QfOTzUanESZV7iKMSY0nJ7+DP7UvvHb64v920+uEf8Axs7HtGZHa2yR+L8X/wAOY6et89T9/kcPp38PvOyH3zjyBwillrnqUpM44z+jaS4CFJ/JqPrZdv4/r7OP1Kfi2SzLDZi7tBERVjIHN/7CzFr/AIqPavI2HG+1J/VqffRYmSkleVKVGeduTRiv9o2L8/3mP2X6Gttk3olbrqQ8pGflSf8ANNJCp9/Gwqj2o0jGPT/dIdq+8be6f+4K/VGfhTaO++iCwqK6bcM6RqpB2GjF07vWiUFxIec8vpZvqceiPqz0f4J4Y0qrLpqf2o+lA4U9SK8h0jZ4gCuAAAyIAAAAAAACvIdI2eIArgAAMiAJ9ocP8X5njOifQ3qmfcWAwB89Oh1/2ebNUViLHGZ610lwevcl/wCF0/f5s+eeXH8drf0/dR3SN+ckceYQMNNICJlsa3jh4tlbDqfFCkmRl5GIzgqkXCXBlylUlRnGpDinle4z938rttN4eKs1DyBUzmVn8DD/AFUYwh19ilGokkOKTVKyLOZGdFEou4aKfKKlpcla3kZZXOsNNdPHv6z06y0mWtUf0yzlHEuKfGL51+HUaSY2RvAl0ri4+Nso7KkoaUhqJjXWXWkvKIybNSGXTWpOKlaUzd4uU+UFLVNq2sW1UaeHJbsovT0Opp2zcXqTpprKT34J0S1DxZUiIZhZGlONGHEjFQsWHFnpWtK56UG/to1VRirhpzxvxwyaS4dJ1pOgmoZ3Z44IMfd9YaZnijrIyl1X73oqEq8yIjF5xTLO0ybG3R2IjGjYKEj4dBlTDDzKIQnyx0/IUcEV2mZ6YWPcseiEsxYO2FoGJjM1mUJBKiEPtMoI/wBY+snEGaG0kdToZVMyIs5jCurj4jFOnvnLgvNvqX5FxOEacq9bdCPHrfMl1v8AMv2TuwtTY2bnMYO8aMmcOtKkOQUwh6tqxKNRqSaVFhViMzrTvOtRKEFBYicrdX8bzfUhh9KOxk4sJYqVpnp2VEjXH8X9hXyMAj51WT/0GWlMj+zNY1WY69kQkxouTv8ABp/al5nc67/8uofYh91nY9oDNVrLHmVM7sWZ/wD1zHUVfnqfv8jh7Ddp972Q++cOWOdVZu2btT9WPmR+SBCDxTqvrkZNzHavbGP1KXmcaKQaZdd0yVa+lwxnm8IVZiMvZorrXkXqTTranL6svGojlzl3BeGTtSpC2binD91XU/8ASJVHi5z0RfmY9nDa0fZ/mrRX/V/iToNvqrrLKtn+0/KzPN4vIMW4rFrT/p80ZlaW1r12+qr4RaP0P0GoZ2M6YNrIytW5dYdpo/cpyKQfAx5hy5ntaol0RXqer/BdT2NDcumcvRH0WHGno5XkOkbPEAVwAAGRAAAABrgAAEifaPtcABIAAAa4ARbaqSixs+WojwplkUZ0Oh06pQA+a3RBYKH6O1kSIjInGohwiMqHniHB7ByaWNLpe/zZ87ctZbWu1+1fdR3GN6cqABwomDjG5jCWgkUzdlU7l1fRI5pJKMkn9ptxJ5nGlULEg/AjKhkRlrtS0uhqdLYq8VwfOjc6Lrlzodf42g8p8Yvg/wA+hm9hL+YSKlTsivYsjHQZPNm07MJQyuNg3P6eBNXmj76GlRF+8Y4SpoupaTXVeitrZeU16riesWvKnSNZoujWnsOSw1Ld3Pgdazy0d3svcU9LLw5DGQZn6qlRaWXkl4LacwrSf0HcWHKG3uoqNf8AVz51Lcvc2c7eaLWoPboNVIczi896RCdvHsI2eFNqpe+vuRDOdes/klupmNjLUrSP/In2b/IwP0K4W+UGu3d5nidoLSz4uoshZqIaQvNlGbtqhmEF+8lo/wBa4fuokj/eFqV7VrbraHvluXdxfh2mLVuLO0316ik/5Y7373wXj2FqzFkYWzpvxz8W7MZtHU9MmD5ETjtOxCSLMhsqnRBZi7c51MKFuqTc5Pak+Lf/ALuXUc3qGpVdQkk1swXCK4L8W+dsvjINaAB/D7DAHztsp69yFqzIyMjmUxOviXXlnGj5Pfwef2p+Z3Gu7uV1t9mn91nYM5oq11jk5zomMXUj+ARcR09T56l7/I4qz3afev7H3mTDX1NibcrpnKLmZ9vikWc4oVe2RnbO3qdgvq0vM5U0awTKwMHh+w8pVPDBCK/xE5r5VFf+8CxayzR1Gp0peNRHEtG91Vq7RxVf5pZQ/oaluH/yiFZ4qzfRD8TI06G1YW1P+a48lH8TkRLPo9hbKQpJ7ImUpptIPgJNYoU19ks05/Gardzf8tbyZ+n/AODchTiekze5M6HSEs9KoStM3rrNf/IPJeWctrV5roUfI9r+DeGxyfpPpcn4n0fHKneEifaPtcABIAAAa4AAAAAAABIn2j7XAASAAAGuAGdvGYj4m721ENKoZ2JjXZNGohmWiqtx02FkhKS7zM6EXzAHzfudnsoununsnYi8Yo2yc2lsuQzFMTuXREASHampREt5CUKzn2koyMeqaHq9hTsqVCVVKSW9Pd5ng3Kjk/q1bU691GhJwlLKa37vdvO1ZZOpNO2SiJNN4KPaMqkuFiEOpP6pMx00KsKqzCSa6jiqtCrQezVi4vrTXmc0TLQAAAet2HYf+/Ybc/Gglf3ijinxJKTjwZ/WmWWczLKG/wACSL+4EkuAcnLizzFSIAAAAB4PqwMuK/dQZ/kKPcisd7R87rGEargZ88Z1OIiZg5Wvi8NLydX7Ek+ly8ztdef+8aK6FTX/AFOwpiVbb2UbP9iCjV7jZcR0s/n6a6n6HG2+7S7x9MqfnJkeZEaLE23bI87kwi2/6xoLiLM/mKvazY22/VLB9EIPuyy1Nm624srDEWZiGjXflRCEcRfqL9fTXQn6GstZfsu7n/NKmvGT9DPWoWXX3ixp5yZk8PCl8zbWqm+Qx6731pdSXgzb6Yvk6bT6akpf9or0NBP2iRKbMQpFSkygEkX4UmfAZFVYhTXWjU2E83F3U+pU8d3qfrL+DFgCXeLfnOCXi/lUlhC92GHdUZfmQ8b5XPOsVvd5I99+D+Ljyet8/W+8z9/jmzsyRPtH2uAAkAAANcAAAACRl7U9/kAGXtT3+QAe2/g9TtYq+XgAGQdc3OYAZB1zc5gBl7U9/kAPYxNzfXgKEMtrkAPdHS6BnEOcPHwrMQyeY0OJJaVF8jzGAOrrW9E/o62xdOKm908iYjO6NljJy+JI/HrYY0Lr76i5TqzpPMJNPqeC1VoUq8dmrFSXWsnW096EjcCk3Lsr9bbWeWkzNELNVszqF9yaPpJ0i+TtRt7flDqVv7NVvt3+Zzt3yP0W83zoKL6Y/J8tx17PLnelfYxSlsS+wV4EEjOlUBHOyeNUX/lPkto1fJwiG8t+WteO6vST7Hj8Tlrz4NLWe+1rOPVJJrwwzBzO9+Mscs2b0bp7eWPNH24iJlCoyDL3lEQpuJp7zoN9b8rrCruqZg+tbvDJy138Hur2+XR2ai6nh9zx5lmy97F2dtUpOy1u5JMVK/7pqMQTpe421GSiP5kN5b6jaXSzRqJ+/wBOJy93o9/YPFzRlHtTx38DWd1e4xmGtAAAAAAA48wVgl8Uv91hw90xGe6LJ01maXWj582MZUjo6uV9U4n0hZbUSZENVoEXHQo9efvM63W5qXLP7Oz4QOwoxs1XgSXN9zKoxX1NbJDo5L/UR7H6HHUpY0iv11IeU2SJqyo7O2gY/wBYn6EFX+k8yQszX6ua6ZeqNjazSvLaf8tFvujMqzCIh2bxIR2KiWmWoaTvqNTiySRGt5Bdp/hMXZtK4Tb4RfmjAt6c56PONOLblUjw38Iv8TMzZaJlZu38fBmUS3FxiGGlM/rMaUNtJzUrXOZ9gxqny6daS35fojd2idve6dSqfJcYtvO7GXJ8/DmNHFzJmezCRw0sg45xuFjkvuurg3W20oS0siPEpJF2mQyZTVWUFFPc+h9DNNSt5WNK4nXlFOUWklKLbblHmTfNk/ZP8GsRS2Bvcm/oxLOOtYyxirTMzBNe7xcMeL8qXnV6/avJH0HyFWzyetux/eZ+0cvanv8AIc+daPbfwep2sVfLwADIOubnMAMg65ucwAy9qe/yADL2p7/IAMvanv8AIASAAAFeQ6Rs8QBXAAAZEAexlzqlkqqiLvoYAutPstQvXJKhK93aBRszU7th6GRk23XNmE1Eg5GFmlvo1xJlCuLRQqZz7RcUC05mYjbZThwjSpaiIz7s1RLZRHbbM5GWjmrpUcjF0qZEmorgi5M64tpdVdhb4nDtfd5IZi4s/wCcHBobfL3k6iiiP6hhFNp8Dr6J6N8uk3WOXZXo24sctH3cM1MzjoMle9mIxFT3Eohm0NRvLb5mrJe/K7may70bTb794oRk+nGH3rDOJ6B0rrKmfoE+sTbyGbIvUjIZyVxay/Eg1N1+g3dDlZf0t1VRn4Pw3eBzN38H+k199FypvqeV3Pf4n9/T7bOzdCvMuAtlJ2yKq42VIRNYUvE8TR4iL6DdW/LK3lur03Hs3r0Oau/g4vIb7WtGfU8xfqi1ZzpLXH2ndTCwd4Uug4pWb0WZYoJ4j8MLxJzjdW+vadc7oVVnr3eeDmbvkrrFlvqUJNdK+UvDJ2RCRkJHspiYGKZiWVFVLjLhLSZe4yzDaxnGazF5RoJwlTezNYfWeidqJElmCzrRMI8eb8BiNXdTl2E6CzViuteZ+H7AWeXN7lZLJm4lMOqIhm3icNGMi/XdZnKpVrTx7xZ0OhtaPRp54rPjk2ev6grTlPXuZRyoyaxw+js8d5roGQRjc6KfTSbelxCIZUK2hEOTTaEKUSjzVMzOqS7TG5jSlt/GSeXjBzte/pytv0ShT2YuSk23ltpNLmS5+gkTpF3cpi3Y+0NoIeHUuIKLNqImZpbJ0qGSiaxEVapI+ztIYlxXsbZuVeolz75emTY2T1m7pqlZ0XLEdnKhl46NrGefpIkwveunmEwbRCtLtFHkXVtJgZWuKXQz7Enh8fAae55WaNSeXPafUs+Ju7DkPynnDYpxdOL6Z48E8+BsrOyjpBWzI27uOi5biLZKmB6OhcnMmR9hkbhEVOzvGnrcv7eG6hRb7Wl5ZN/b/BReVvlXlyk+pOT73g7FkfQ56d9rs79mLDWLZURGSplMjiXS92FnGVeztoNPX5e38/moRj3v1Ohtfgp0qlj4+pOfdFeCb8T9ddEO4q2Fwl3k0s/b20UsnU8nM7em8TEy9pSGSxtNNpQRKIjMyJrtp3jj7u6q31eVxWeZS3s9F0+woaZbQtLZYhBYW/Pid5DGMwryHSNniAK4AADIgAAAAAAAK8h0jZ4gCuAAAyIAACxA0ioPqmyIltHQypmMjAo0Zqe2cN7Eo0qqfclPeLikW3Ew01sq+2s6pzn7qUzCakW3Ey8dJXmTOra6lnIqcRLJBohxUIkjMnEVV7y7CEiJMel5rxdUeFNe2uYwKYOFEQb6TUSUYjLwPt94DB6CbiHFHiL1iLOdM4FDxbecxrZccNDdKGXZ9KioIk/sbYq1zJw9pbISWctUpSNgW3j8zIzL6CjSfEqpNcDrWJ6KV2bT6o+xjloLGRSiqT9n5u9DpI/HqzNSKe6gu0q9W3eaM3F9TaLFxbULtbNxTjNdaTPTFXZdIqTwMTA2Xvqlto4N1lbHo1ppWSXDQpJl/OGKKrn7TIbelyj1GlHYlNSXWvVYZztxyM0avNVIU3CSefkvd3PKOurLdGW/+GkUBIY28Ky0ghIGGRDoOAgXIx4ySVK4nMKamL9PlXqVGhC3ouMVFJbll7u0xqvIPRbi7qXlypTlOTk05YW/sx5mrgehfIZr1Z28vctpPFFTrGWYhEGwr3YUkdC+o1dxqt/d/PVpP34Xcje2ehaVYfu1tCL6cZfe8s7EsP0VOjtYx1EUxdPJ5u+lwz6ybm5GKPtrmcUafyGtcE97NwqjSwj9L2EtBZ2xbLcFZ+xUhkjBZkpl0A0wXyLAkvcKOmiaqM7Qlt5ULEKS0+SiWfiXaIOBcVQ1cHOYaMSSkKLP4GIYJqRKi4JcIZVUSiV2GQoSOMAK8h0jZ4gCuAAAyIAAAANcAAAkT7R9rgAJAAADXAAAJM8UpPo5pUZH63Z9ABw2Jk80f6widTSlFdvmAPYp2XRST9IQSTUdDIyqVBXJTBwpjYiDiam0Rtnn95VElLBBwMrM7tXXCUTayX2fZIir9DE1Mg4GJmdgYuGNWJpbRJMyqZHQ/kJKWS24NGbmFnYxgqE0rPnNWfs4iWSLRLcgon7KiJBFSh1oKlMHDiYQnlmk0qNOaqiLtAocVcAtKez1Ud/j8wyUP4iXOqLElSVJLw7iAHicM80ZGrMRERZ69gA/qCMlJSiqjSefvoAOYxCIxpNpB4VdpnQyICuCvDyGL66qEEaOwl0rQUyVwaqTWNjnlJVgMyM69lc4o5E1Fm+klj3k4fSGlKNX7XgXuFtyLqibCXSNiXEajcIiLOozOgg3kmol5KSSkkl3CJM8gBIn2j7XAASAAAGuAAAAAAAASJ9o+1wAEgAABrgAAEifaPtcABIAAAa4AeJpSfaRACfMjhWVMk8wlSXDOp07KU/xDJTBJi5JIpo2sjJKC7MNcP1ElJoi4ZM7MrsYGLI1Qi2iMyzKpUSUyDpmPml0kyaJRsIIkUqZJMTU0QdNmZiLDTKFqnq1VIzIzpWollENlnDbspGYzWbWHEVTKnYQrkpsnLh7KOumpg0rPEXZnoQpkrslmAu4ioihlAFgV61VFStBTaJKDNNLLsCQjq1JJBGWKlK5z7qiLmSVM1sssLCQjZINs107a9hiDkTUC4Utl8vJKnEpQfdQu0RyT2TwjJkhSCahakXedKChInmtavtKM6585gDWAAAJE+0fa4ACQAAA1wAAAAJGXtT3+QAZe1Pf5AB7b+D1O1ir5eAAZB1zc5gBkHXNzmAGXtT3+QAZe1Pf5AB7b+D1O1ir5eAAZB1zc5gBkHXNzmAGXtT3+QAZe1Pf5AB7b+D1O1ir5eAAZB1zc5gD+pkZoMlJjTIy/ocwB4HO0q7YLf5AD1LjYGIPC/Lk0PNXtp+QZKYR/GpHIo9Sltw5GaM2dObPXmJbTKbKOQ3ZuXNKxIaQR950zimWNk5jcuhmiolJU+QZK4OOU1hk1JLJ1pmLxFCuDwOeKSeE4I6l/S5AASss5vuia2sVfLwAH8yCX+tn/V5gBkHXNzmAGXtT3+QAZe1Pf5AB7b+D1O1ir5eAAZB1zc5gBkHXNzmAGXtT3+QAZe1Pf5ABl7U9/kAJAAACvIdI2eIArgAAMiAAAryHSNniAK4AADIgAAK8h0jZ4gCuAAAyIAACvIdI2eIArgAAMmlxSOwAe5UVjSSVNl7zrnMAc+RHX0jNT7PEAVwAAGRAAAV5DpGzxAFcAABkQAAAAAAAFeQ6Rs8QBXAAAZEAABXkOkbPEAVwAAGRAAAV5DpGzxAFcAABkQAAFeQ6Rs8QBXAAAZEAABXkOkbPEAVwAAGRAAAV5DpGzxAFcAABkQAAAAa4AABIn2j7XAASAAAGuAAASJ9o+1wAEgAABrgAAEifaPtcABIAAAa4AABIn2j7XAASAAAGuAAASJ9o+1wAEgAABrgAAEifaPtcABIAAAa4AAAAAAABIn2j7XAASAAAGuAAASJ9o+1wAEgAABrgAAEifaPtcABIAAAa4AABIn2j7XAASAAAGuAAASJ9o+1wAEgAABrgAAEifaPtcABIAAAa4AAAAEjL2p7/ACADL2p7/IAPbfwep2sVfLwADIOubnMAMg65ucwAy9qe/wAgAy9qe/yAD238HqdrFXy8AAyDrm5zADIOubnMAMvanv8AIAMvanv8gA9t/B6naxV8vAAMg65ucwAyDrm5zADL2p7/ACADL2p7/IAPbfwep2sVfLwADIOubnMAMg65ucwAy9qe/wAgAy9qe/yAD238HqdrFXy8AAyDrm5zADIOubnMAMvanv8AIAMvanv8gA9t/B6naxV8vAAMg65ucwAyDrm5zADL2p7/ACADL2p7/IAMvanv8gBIAAAV5DpGzxAFcAABkQAAFeQ6Rs8QBXAAAZEAABXkOkbPEAVwAAGRAAAV5DpGzxAFcAABkQAAFeQ6Rs8QBXAAAZEAABXkOkbPEAVwAAGRAAAAAAAAV5DpGzxAFcAABkQAAFeQ6Rs8QBXAAAZEAABXkOkbPEAVwAAGRAAAV5DpGzxAFcAABkQAAFeQ6Rs8QBXAAAZEAABXkOkbPEAVwAAGRAAAAB//2Q==;" parent="5" vertex="1">
                    <mxGeometry x="140" y="95" width="54.17" height="50" as="geometry"/>
                </mxCell>
                <mxCell id="15" style="edgeStyle=none;html=1;entryX=0;entryY=0.5;entryDx=0;entryDy=0;" edge="1" parent="1" source="14" target="7">
                    <mxGeometry relative="1" as="geometry"/>
                </mxCell>
                <mxCell id="14" value="" style="shape=image;verticalLabelPosition=bottom;labelBackgroundColor=#ffffff;verticalAlign=top;aspect=fixed;imageAspect=0;image=data:image/png,iVBORw0KGgoAAAANSUhEUgAAAVQAAAF8CAMAAACns7PcAAABX1BMVEUAAABEQX9EQX9EQX9EQX9EQX/8oCb8iSZEQX9EQX9EQX9EQX9EQX/8iyZEQX/rUCjlRynpTSj8libpTyhEQX/tVCj8nSbqUChEQX9EQX/8myb8kibnSin8jib8jSbuVijoTSjsUyj8oyb8mCbrUijiQylEQX/8oCb8lCb8oybuVyj8iib8oyb8kSbiQyniQynnSij8oyb8oyb8jSb8oCbiQyn8oybiQyn8kCbpTSj8oybiQynoTCjiQyn8oybiQyniQynuVifygCf8oyb8oyb8oyb8kib8kCbwWSf8oybtayjtXCjiQyn8oybrUijvVyj4iib7oSb8kSb8iSb5fCf8iybrUij8kCZEQX/iQyn8bSb8oyb1YifkRSn8oCb8cCb8mSb8dyb7ayb8fCb3ZSftVCjqUCjlSCnvWCj8jyb6aSbzXif8gSb8hSb8lib8iCbnSyj8iyb8nCb8kib8dCYlLFIEAAAAWHRSTlMAwECA8BD+HzCg0OBgVyAf++fn27CH/M9wUPfP9pyHVxCc8PCw8JBg3MA8PBDAoGAvoIBwL4DgwK9wIOCRQEDQUErlkHDQyLZkUPTAsLCmfPn2pnx6kmRK1bxFhwAAD4JJREFUeNrs201LW1EUheE9c5jEEJxEYiCjOHHYQCaZCYJKB4XlafxAQStUkP5/qIaUNSndPZC7T87ivH9gjZ7cG9jXWq1Wq9VqtVqtVqvVarV20tUY6I+sSKM+ML4yuc6xaWEFWmDTuak1wKaBFWj8Z1usHrb1LLwzbms1xbapeUltdxP1/69Bqe1Oov4Ag+72iSm1BIoZnHJ7ZEoNgWIGB9wemlJrFPPfA1ubUCOgmP8loOmf+gP9U7+m/zWKGTxZQ9M/9bsGpba7jPp9g1LbXUb9vkGp7S5bAGUMUj/7ZhodAWUMUj87Mo36QBmD1M/6JtEEKOWf+tnEFKL+QP/Ur+mf+l2DUttdRv3xBheApn/qdw1KbXcZBfoGpba7bAUUMzjBX1tZ7c2ACIO+fjaz2hsDEQZ9/WxslTcHYvz7+tnc6o76A/1Tv6Z/6g/0z21J/9Qf/wxeAZr+qT/e4AWg6Z8CXYNS2112BhQzOAc0/U+BYgZn+EeXVm8DINKgr1/gqLIHxBr09dd/VE39Qf59/fUfVVN/oH/ql/RP/fH+zwBN/9Qf/wy+BDT9U3+gQeqX9H8CFDPYAzT9j4BiBqdwW1qNDYFiBgeApv814g1Sv59VGPUH+ff1139UTf1BBn399R9VU3+Qf/+9o/qjauqP978ENP1Tf6B/6tf0T/3xz+A1NP2fA8UMjgBN/0dAMYNDQNN/H4g3SP2S/idArEFff/1H1dQfZNDXX/9RNfUHGfT1V39UTf3x/q8AQNE/9Uf6p35J/9Qf6p/bgv5XyGphHfzrkPM/Aws1yF8ePf9jIN4g9Uv6nyOzSch7R90fVVF/kEFff/1H1dQfZNDXX/1RNfUH+ff1139UTf3x/i8ATf/XT9+zw47KX366tgo6TW832T1jJz3nL7+lU9v/vqb0fpPbC3bSS/bwe0pfbP87TCk93mT2ip30mrv7mFI6tL3vIH10+5Dtv4j+h9v00YHte8fps/u7fP/x+u/u02fHtu8dpk0/8v3H6/+VUqrB/0Ha9jPXf7z+3+ydu47aQBSGXZmKhsIFVmgoslJClRR5gqRPiggfmPGNi8HcFt5fWUVJJuyO7XNmbGvG5nsEpG/5fnNYDvCCDf6/g78krfu/pb9JgRX+j+AvjLftfxpQ4AwArPB/AIIwILGca7IMSIQAYIf/wn6gboDVXJMVtfrBEv9H8D95QCBt1f4cXrDEf7iDRS36vyRXv4CZ/Es1E7gn5O35v6JXv2DimMsTvOLanv8pvfoFT465uPCaQ1v+LxWqX+A6xjKBtyQt+b8iVr81/t/ZT98AaTv23xgA2OO/CxLCdvynVb89/k9AStaG/+sASwYAFvkvsZ+2ARZzZRak6rfIf2G/6gaYKxMHhOq3yP9PUMQzx/rftP38GYr44ZiID4Vcm/Z/oVr9At8xEQ+KOQUo4obtP0ExnmMgQxAob4B1o/YnUMbQMQ8fymC3Jv1f4KvfLv89KCVs0v8Y/WjKLv+HUEHWnP9rdPVb5r/UfvoG2M8V2KOr3zL/pfbTN0DclP0RvGCZ/z9BoLUBznMyZ2z12+b/DBAcVf3Xt/8IANb5PwYMp0b8j/WqXzB2zAJwJA34f9atfoFjFoCD3er3f4+o/k6/qBDy2v2PEdVv54vqAZKsbv/P2Oq3r6m+Apac5r++/QfA8tUxi88uYInqParcaVa/wDXu+O8dCDQ3wKbO82nOoAzDb//wr+qxzqPqbVX12/yaOs5wDEhOWP/17b8AkrFpG/UPgydAktTm/6ae6gffuL+n/5i4gIJFGP/17Y8YoHBNPaX4zYcxaQPo+7+ro/qnpn/nd0bYAPr+b+qo/pljPJ88wHCoxf+tfvV7nxwLGIywG0Df/1S7+kfmvkPd88WFahjXP6pc6la/a8OX/UWy6m2Alf75dGhxnMoZ+FDNJSgk1bb/YnecqidrgvWfbn9ue5zK+TDV2QArPfsjZn+cyplpbIBUy34ediFOVZM1w/hPt/9aGafvHWsZjJQ3wErD/kNn4lQxWRN1/1PFR1Pud8dyqpKVcWX/C6u/S3Gqlqyhqv/rouq367ZHI1npG2CheD6ddS5OlZI1D6TMK4gVqn9q9zvUPTOFDbBWsT9inYxThWQNuYL/C/IZqteBdyhCsl4DCbGC/dfuxik9WQ9k/9fEM1TXyI/1m03WROY/1f6k23Eq56NP2gAx0f4b63qcUpM1lPlPsz/sfpzK+TwlPLDakw4os17EqZwZfgPEFPvznsSpnPceegOc8efTEetLnNKS9Zmj/d+/rf4examcdy5uA8Ro+4+9ilNSsp4k/qPsP/UsTgvwURtgj7M/6V+cEpKV3VD+x4jqd8389z0NM5giNsAZYT8P+xmn+GTNEP7vq6v/m9Nbhl7VBthVn0/n/Y1TdLKyqOqoelN1hvrUV/VFspZvgG3F+TR/7necYpP1WOH/rrT6x3YentWNX7oBNqX2Xx5xik3WpMz/bUn1u1Z8K6IdBtPiDbArsT9ijzjFJ2vIC/3fFFW/HT+B2CpDr2gDbAvtzx5xSkvWvMj/VJyhPuKUmqxiAyzl59PRI07JySo2wEp6Ps3ZI05x+LINkErtPxr8H2UMY+JKNsBSYv/lEadqyZoI/1/bn/fysz11vr15YJW+sT9ijzhVS1axAZav7Odhbz/b+8XOHasmDIVhGP4nO3oLQnFVQcQWK3Xr0tEOH0gSkxIQK6G0908PSW3Ian6l0ffZ3PPheyA5Dsm6O+6/uf4v4rRNsh6a+39vVH/vzXDKDTfbxv7LHxlx2jJZo7jev/Kq+onTk0179Rlgo/r16YQ4bZWs9cdr9UsUn8RpOw9/Z4D8uP4P4tQhWaszwOZ3/duIOPW5lDGcAdJq/XFCnHol667cfx6q//q/iji3OlkPYf9h/UVn75P5f0KyZqmUZjfyVcRlTHtRnOffUTcuO+yKu/tkv0+IU2cvRXHD75yey3ptAAAAAAAAAAAAAAAAAAAAAAAAAAAAAAAAAADgUiYGb3ONDb5W0szgayGtDK7GkgYGT4Oh9GxwNZM0Mng/qPz5OxspoFNd9RUMDZ7mCuYGR0tJpL//gxosDb7dT/o7W0gi/X09qvRk8O1+0t/XTJW+wbP7SX9nI1VeDV4mkkj/H/buprdNGAzg+GNsSxgQlSYOcJs6jaxS1Td1qfairlrbw94OuxlxX/f9P8GqNZPHQ8BgGy9d/b/tkDT8oPA4WYnK2dz/eEf/aCTQl0dGcf0CdRNMLDb8afjR+vLRJ6JFIjURUY4+RybNYpod9uGec+ron2c1kZpSQisYTshZMVJXHPrlNZMTS0sOQ6XSsEK7QJ04+meJnJoY2pPcaAsqTCrknBgdYpWmEd0CddOVhnTeXiUxbCuSRiWdnVQxObM09oWq5n796M+JnBu1QsXVdidCFvtAVQvUTe9gpDiR8xMuUaUwM1Wq3lDfN/fpR3+emDtgVFvVWJqVck+oe43qDQxXSLNKl6jy4XJFpGH18qhqgaof/StpGOMuUVP1y29Uvjiqmvv1o38qTaMuUWWmDlSTqBfUi0Z14fBAVTGnqAlAbnek44SjHYQPVP3oL6R5lUtUmW/77SfbS6b8/vOSbCnt7EmypVIz9+tHf7ZlKbo9JnFiDJWR0bZd+AR+/hgGq0Tv9DEtKqUqMvkEtdF9kBpj0YzDUHmJXJMxVALjxTXDu4jg4XO0qPt4uiyqmvv1o38l57wyjsYvC9T+ooOA7IRMda+dLIiqFqiqo/EfoRKgiadou21QIWfdXYRei7bEF6o6UFVvpqJyGA9PkpEdKtQIdeb2ll5Rj5pOJxMv/gXoc4oaj6CCLjxtLIy613SD4cjccz1xiQrDqCno4z5Rv3ZNL6Yb6SucoqYIdebDPaGquV/12iUqdYpKHg3qBUK9ehKobFHUqwb1/EmgZouivkOmH2Ap1AR2B1XAkqhvGtTRUqgs/9eobDMpqE+6HaOquR91vAhqUcaA8o+aScmKTO3bpVBfY9O7E6eoPJEyoRHc9+9Rgas9uyDqXu9A/XxqiYqLOQDsCKpqSdSjBvexPbVFxT0x1L2m17O2vQ6oNqhHfdT2vlVAtUB92eB+tr9VA6o5arPllPqgGlCNUd81uFftRjWgmqK+bnDf203nAdUQ9fkHZPqj/dP+eUA1Qu2rfm7/Ug2oZqhqSaWuU0o1oJqhwslLNPqr9g8DKkY1UL1rO90eBlSEaqD6s8WqAdVwi0/wKVV1EFBNt/hYnVJxq4BqusXHavRHnQZUy/9K+aPtdRBQzbf4WI3+na4DqsUWH22uU6jLgGq0xUr1RRuu/raoWPWu7XUeUC23+EuLOw0rKlvUM2y6/zag2qIeYNSz8IaKNWp7X3iXyi3qOUa9Ce+nWqPeINN1eOffHvUbQl0FVHvUNZr7wwd/9qhv8QI1oNqjfkIH6n/4uT8vaeUX9bqL+tYRakTLfFdQfz+8yHJ/qAdogWqNquCSOt4JVLkpobEnVDT3O/4//0xkfGdQ7yNeUC/RAtUZqireIVRJfaDe4APVPWrKdwhVLo6KR//V//8Xf15Q91vV+gn8GeXiqHj0//T4UJNdRF2hud8Vau0W9fHcmQKP/pcTt6rcoTtTyBzm3dAl8YB6i+b+KUYC9DGXqPkIajnzLhnEAypaoE76EQy0xdIlajmCyrj+tfhDxaP/NYxEZx4dhUtUnnZRu/8skKrmZrpiedQzNPdPO1ZYPOUspuJ2qALdV5LITkk1+lKYlJ5XVN9GF6jYQUVzGC4v8L0+bVCjBN+1lEoUKyiN+lWUEkU65MOjrXX2ZBltTTf6rw9hNIlLappF/UoqEokiY6hJNBKlRSpRVD3epJ4pk8YJzei/0t4vz7yyh2pTBWDhUPTPVBaNj/5r/QXYvNwWFZ9LqM0uQVHnqKdq7tfEpXEEXKIKq1/ZBJZHvVULVF1CmhY5Rc2tJKLlUQ9H/srX2QmdgEvU2uoUX8PyqJfaBar9/dMZd4macpuvxxDgAfVMt0C1v06yGCxR8bOZqwrwgXqg5n7XqkrBIWoaW2iwCryg7msWqNbf81NwcIeKny0XbMb+oBy8oJ5rDlTbb/kqIgB3qCQCHM8KNklUVJr3sMxKB0f/NcwqrpNpomXu8HtYyOCz5VFJKRmqoDSLOIxVFcQwkQ+O/iuYXVRRKshQlNIoHt8xgkyuprSK4fG0fpj7Q7/ar2MbAGEohoKZhQ6JKkKZIE1mYP89EB9GcEFxN4OL56DjO6gELUPN62/3k7TXQSXq6X5DzTqr+4madVAJqvSfjaxxjUZY31YDAAAA+J0b8QVok6eDXCcAAAAASUVORK5CYII=;" parent="1" vertex="1">
                    <mxGeometry x="80" y="180" width="80.53" height="90" as="geometry"/>
                </mxCell>
            </root>
        </mxGraphModel>
    </diagram>
</mxfile>